<svg id="Layer_1" enable-background="new 0 0 512 512" height="512" viewBox="0 0 512 512" width="512" xmlns="http://www.w3.org/2000/svg"><g><path d="m386.391 0h-61.124c-6.967 0-12.614 5.647-12.614 12.614v83.192l2.486 2.453h64.129l16.912 14.165 2.825-2.348v-97.462c0-6.967-5.647-12.614-12.614-12.614z" fill="#8479c2"/><path d="m186.733 0h-61.123c-6.967 0-12.614 5.647-12.614 12.614v97.462l.497.792h2.64l16.408-13.725h64.043l2.765-1.337v-83.192c-.002-6.967-5.649-12.614-12.616-12.614z" fill="#8479c2"/><path d="m349.84 12.614c0-6.967 5.647-12.614 12.614-12.614h-37.186c-6.967 0-12.614 5.647-12.614 12.614v83.192l2.486 2.453h34.701v-85.645z" fill="#6e60b8"/><path d="m150.182 12.614c0-6.967 5.647-12.614 12.614-12.614h-37.186c-6.967 0-12.614 5.647-12.614 12.614v97.462l.497.792h2.64l16.408-13.725h17.642v-84.529z" fill="#6e60b8"/><g><g><path d="m280.823 111.774c-4.267 0-7.726-3.459-7.726-7.726v-18.861c0-9.427-7.669-17.096-17.096-17.096s-17.096 7.669-17.096 17.096v18.861c0 4.267-3.459 7.726-7.726 7.726s-7.726-3.459-7.726-7.726v-18.861c0-17.947 14.601-32.548 32.549-32.548s32.549 14.601 32.549 32.548v18.861c-.002 4.267-3.461 7.726-7.728 7.726z" fill="#8479c2"/></g></g><path d="m397.515 109.834-6.915 4.043h-271.28l-4.834-4.042c-17.407 2.423-30.922 17.457-30.922 35.503v330.81c0 19.719 16.134 35.853 35.853 35.853h30.765l3.391-3.386h30.905l2.79 3.386h137.464l4.228-4.416h25.926l6.932 4.416h30.765c19.719 0 35.853-16.134 35.853-35.853v-330.81c0-18.047-13.515-33.081-30.921-35.504z" fill="#80b4fb"/><g><path d="m214.911 476.147v-330.81c0-13.527 7.594-25.361 18.728-31.461h-114.32l-4.834-4.042c-17.407 2.423-30.922 17.457-30.922 35.503v330.81c0 19.719 16.134 35.853 35.853 35.853h30.765l3.391-3.386h30.905l2.79 3.386h63.496c-19.718 0-35.852-16.134-35.852-35.853z" fill="#61a2f9"/></g><path d="m377.023 95.806h-15.205l-5.989 5.115h-25.838l-5.259-5.115h-137.464l-8.456 4.6h-22.641l-5.989-4.6h-15.205c-12.14 0-21.982 9.842-21.982 21.982v121.145c0 21.671 16.224 39.54 37.186 42.156l5.451-4.008h28.072l3.563 4.35h137.464l3.713-4.865h29.102l4.271 4.523c20.962-2.616 37.186-20.485 37.186-42.156v-121.145c.002-12.14-9.84-21.982-21.98-21.982z" fill="#ffd064"/><g><path d="m205.838 241.48v-127.276c0-7.51 3.587-14.179 9.138-18.397h-27.707l-8.456 4.6h-22.641l-5.989-4.6h-15.205c-12.14 0-21.982 9.842-21.982 21.982v121.145c0 21.671 16.224 39.54 37.186 42.156l5.451-4.008h28.072l3.563 4.35h43.314c-14.665-7.316-24.744-22.449-24.744-39.952z" fill="#ffc250"/></g><g><path d="m298.435 415.676h-84.871c-4.267 0-7.726-3.459-7.726-7.726s3.459-7.726 7.726-7.726h84.871c4.267 0 7.726 3.459 7.726 7.726s-3.458 7.726-7.726 7.726z" fill="#61a2f9"/></g><path d="m150.182 365.491h37.086v146.509h-37.086z" fill="#ff636e"/><path d="m150.182 365.491h18.543v146.509h-18.543z" fill="#ff4654"/><path d="m150.182 304.446 1.524 1.609h33.802l1.76-1.609v-208.64h-37.086z" fill="#ff7f87"/><path d="m168.725 95.806h-18.543v208.64l1.524 1.609h17.019z" fill="#ff636e"/><path d="m150.997 343.077-.815 1.489v24.924c0 10.241 8.302 18.543 18.543 18.543s18.543-8.302 18.543-18.543v-24.924l-1.567-1.489z" fill="#ff7f87"/><path d="m150.997 343.077-.815 1.489v24.924c0 10.241 8.302 18.543 18.543 18.543v-44.956z" fill="#ff636e"/><path d="m184.025 345.109h-30.599c-6.6 0-12-5.4-12-12v-17.206c0-6.6 5.4-12 12-12h30.599c6.6 0 12 5.4 12 12v17.206c0 6.6-5.4 12-12 12z" fill="#f9f6f9"/><path d="m168.725 332.747v-16.482c0-6.799 5.563-12.362 12.362-12.362h-27.3c-6.799 0-12.362 5.563-12.362 12.362v16.482c0 6.799 5.563 12.362 12.362 12.362h27.3c-6.799 0-12.362-5.563-12.362-12.362z" fill="#cbe2ff"/><path d="m324.732 365.491h37.086v146.509h-37.086z" fill="#ff636e"/><path d="m324.732 365.491h18.543v146.509h-18.543z" fill="#ff4654"/><path d="m324.732 304.446 1.524 1.609h33.802l1.761-1.609v-208.64h-37.087z" fill="#ff7f87"/><path d="m343.275 95.806h-18.543v208.64l1.524 1.609h17.019z" fill="#ff636e"/><path d="m325.548 343.077-.815 1.489v24.924c0 10.241 8.302 18.543 18.543 18.543s18.543-8.302 18.543-18.543v-24.924l-1.567-1.489z" fill="#ff7f87"/><path d="m325.548 343.077-.815 1.489v24.924c0 10.241 8.302 18.543 18.543 18.543v-44.956z" fill="#ff636e"/><path d="m358.575 345.109h-30.599c-6.6 0-12-5.4-12-12v-17.206c0-6.6 5.4-12 12-12h30.599c6.6 0 12 5.4 12 12v17.206c0 6.6-5.4 12-12 12z" fill="#f9f6f9"/><path d="m343.275 332.747v-16.482c0-6.799 5.563-12.362 12.362-12.362h-27.3c-6.799 0-12.362 5.563-12.362 12.362v16.482c0 6.799 5.563 12.362 12.362 12.362h27.3c-6.799 0-12.362-5.563-12.362-12.362z" fill="#cbe2ff"/></g></svg>