<svg id="Layer_1" enable-background="new 0 0 512 512" height="512" viewBox="0 0 512 512" width="512" xmlns="http://www.w3.org/2000/svg"><g><path d="m418.758 55.216 13.648-13.493v-19.573c0-12.183-9.967-22.15-22.15-22.15h-218.395c-12.183 0-22.15 9.967-22.15 22.15v19.573l17.601 13.493v391.444l-17.601 23.616v19.573c0 12.183 9.967 22.15 22.15 22.15h218.396c12.183 0 22.15-9.967 22.15-22.15v-19.573l-13.648-23.616v-391.444z" fill="#8479c2"/><path d="m219.717 489.85v-19.573l17.601-23.616v-391.445l-17.601-13.493v-19.573c0-12.183 9.967-22.15 22.15-22.15h-50.006c-12.183 0-22.15 9.967-22.15 22.15v19.573l17.601 13.493v391.444l-17.601 23.616v19.573c0 12.183 9.967 22.15 22.15 22.15h50.006c-12.183.001-22.15-9.966-22.15-22.149z" fill="#6e60b8"/><g><path d="m322.317 34.684h-42.517c-4.267 0-7.726-3.459-7.726-7.726s3.459-7.726 7.726-7.726h42.517c4.267 0 7.726 3.459 7.726 7.726s-3.459 7.726-7.726 7.726z" fill="#9790cc"/></g><path d="m366.379 41.723c-4.599 0-8.698 2.62-10.944 6.633-3.395 6.067-9.878 10.194-17.291 10.194h-74.173c-7.413 0-13.896-4.126-17.291-10.194-2.245-4.013-6.345-6.633-10.944-6.633h-66.026v74.611l16.914 15.749v207.573l-16.914 15.122v115.498h262.695v-428.553z" fill="#80b4fb"/><g><path d="m236.631 339.657v-207.573l-16.914-15.749v-74.612h-50.006v74.612l16.914 15.749v207.573l-16.914 15.122v115.498h50.006v-115.498z" fill="#61a2f9"/></g><path d="m321.525 116.335h-205.676c-19.94 0-36.255 16.315-36.255 36.255v165.935c0 19.94 16.315 36.255 36.255 36.255h119.836c8.642 0 16.743 4.203 21.719 11.268l34.251 48.629c4.494 6.381 14.531 3.201 14.531-4.604v-39.954c0-8.471 6.867-15.339 15.339-15.339 19.94 0 36.255-16.314 36.255-36.255v-165.936c0-19.94-16.315-36.254-36.255-36.254z" fill="#b3e59f"/><g><path d="m135.736 318.524v-165.935c0-19.94 16.315-36.255 36.255-36.255h-56.142c-19.94 0-36.255 16.315-36.255 36.255v165.935c0 19.94 16.315 36.255 36.255 36.255h56.142c-19.94 0-36.255-16.315-36.255-36.255z" fill="#95d6a4"/></g><g><path d="m301.259 265.935h-165.145c-4.267 0-7.726-3.459-7.726-7.726s3.459-7.726 7.726-7.726h165.145c4.267 0 7.726 3.459 7.726 7.726s-3.458 7.726-7.726 7.726z" fill="#78c2a4"/></g><g><path d="m301.259 307.289h-165.145c-4.267 0-7.726-3.459-7.726-7.726s3.459-7.726 7.726-7.726h165.145c4.267 0 7.726 3.459 7.726 7.726s-3.458 7.726-7.726 7.726z" fill="#78c2a4"/></g><g><path d="m301.259 183.226h-165.145c-4.267 0-7.726-3.459-7.726-7.726s3.459-7.726 7.726-7.726h165.145c4.267 0 7.726 3.459 7.726 7.726s-3.458 7.726-7.726 7.726z" fill="#78c2a4"/></g><g><path d="m301.259 224.58h-165.145c-4.267 0-7.726-3.459-7.726-7.726s3.459-7.726 7.726-7.726h165.145c4.267 0 7.726 3.459 7.726 7.726s-3.458 7.726-7.726 7.726z" fill="#78c2a4"/></g></g></svg>