<svg id="Layer_1" enable-background="new 0 0 512 512" height="512" viewBox="0 0 512 512" width="512" xmlns="http://www.w3.org/2000/svg"><g><path d="m269.382 291.289h-26.613l-1.745 1.445v101.215l.5 1.817h27.6l1.852-1.817v-101.216z" fill="#f9f6f9"/><path d="m256 292.734 1.745-1.445h-14.976l-1.745 1.445v101.215l.5 1.817h14.976l-.5-1.817z" fill="#cbe2ff"/><path d="m304.676 0h-97.352c-6.799 0-12.362 5.563-12.362 12.362v17.589l4.498 4.437h112.502l5.076-4.437v-17.589c0-6.799-5.563-12.362-12.362-12.362z" fill="#8479c2"/><path d="m268.289 393.712h-24.578c-9.149 0-16.565 7.416-16.565 16.565v94.551c0 3.96 3.21 7.171 7.171 7.171h43.367c3.96 0 7.171-3.211 7.171-7.171v-94.551c0-9.148-7.417-16.565-16.566-16.565z" fill="#ff7f87"/><path d="m256 504.829v-94.551c0-8.422 6.291-15.361 14.427-16.412-.702-.091-1.412-.153-2.138-.153h-24.578c-9.149 0-16.565 7.416-16.565 16.565v94.551c0 3.96 3.21 7.171 7.171 7.171h28.855c-3.961 0-7.172-3.211-7.172-7.171z" fill="#ff636e"/><path d="m280.155 255.705h-48.547l-4.472 4.414v15.578c0 9.604 7.785 17.389 17.389 17.389h22.945c9.604 0 17.389-7.785 17.389-17.389v-15.577z" fill="#6e60b8"/><path d="m255.998 275.698v-15.578l4.472-4.414h-28.861l-4.472 4.414v15.578c0 9.604 7.785 17.389 17.389 17.389h22.945c1.011 0 1.995-.104 2.958-.27-8.192-1.407-14.431-8.526-14.431-17.119z" fill="#6353b2"/><path d="m312.864 226.732h-70.133l-2.772 2.342v19.042c0 5.258 3.081 9.82 7.521 12.005h57.196c6.799 0 12.362-5.563 12.362-12.362v-17.59z" fill="#8479c2"/><g fill="#6e60b8"><path d="m240.98 12.362c0-6.799 5.562-12.362 12.362-12.362h-46.017c-6.799 0-12.362 5.563-12.362 12.362v17.589l4.498 4.437h46.017l-4.498-4.437z"/><path d="m240.98 247.758v-17.59l4.067-3.436h-46.017l-4.067 3.436v17.59c0 6.799 5.563 12.362 12.362 12.362h46.017c-6.8 0-12.362-5.563-12.362-12.362z"/><path d="m114.559 39.368h-8.632l-13.24-9.416h-14.919c-9.285 0-16.882 7.597-16.882 16.882v166.452c0 9.285 7.597 16.882 16.882 16.882h14.918l12.725-11.034h9.147v-179.766z"/></g><path d="m434.232 29.952h-14.918l-4.334 2.237v193.837l4.334 4.142h14.918c9.285 0 16.882-7.597 16.882-16.882v-166.453c-.001-9.285-7.597-16.881-16.882-16.881z" fill="#8479c2"/><path d="m92.687 179.845c0-3.505 1.997-6.629 5.056-8.341 4.624-2.588 7.769-7.529 7.769-13.179v-56.532c0-5.65-3.145-10.591-7.769-13.179-3.059-1.712-5.056-4.836-5.056-8.341v-50.321h326.627v200.216h-326.627z" fill="#80b4fb"/><path d="m128.662 171.504c4.624-2.588 7.769-7.529 7.769-13.179v-56.532c0-5.65-3.145-10.591-7.769-13.179-3.059-1.712-5.056-4.836-5.056-8.341v-50.321h-30.92v50.323c0 3.505 1.997 6.629 5.056 8.341 4.624 2.588 7.769 7.529 7.769 13.179v56.532c0 5.65-3.145 10.591-7.769 13.179-3.059 1.712-5.056 4.836-5.056 8.341v50.323h30.92v-50.323c0-3.507 1.997-6.631 5.056-8.343z" fill="#61a2f9"/><path d="m213.406 144.325h-52.873c-14.673 0-26.567 11.895-26.567 26.568v59.275h106.008v-59.275c-.001-14.673-11.896-26.568-26.568-26.568z" fill="#ff636e"/><circle cx="186.969" cy="95.802" fill="#ffdecf" r="23.014"/><path d="m351.468 144.325h-52.873c-14.673 0-26.567 11.895-26.567 26.568v59.275h106.008v-59.275c-.001-14.673-11.895-26.568-26.568-26.568z" fill="#ffd064"/><path d="m196.846 144.325h-36.314c-14.673 0-26.568 11.895-26.568 26.568v59.275h36.314v-59.275c.001-14.673 11.896-26.568 26.568-26.568z" fill="#ff4654"/><path d="m334.908 144.325h-36.314c-14.673 0-26.567 11.895-26.567 26.568v59.275h36.314v-59.275c0-14.673 11.895-26.568 26.567-26.568z" fill="#ffc250"/><circle cx="325.031" cy="95.802" fill="#ffdecf" r="23.014"/><path d="m188.938 95.802c0-8.104 4.192-15.224 10.523-19.324-3.598-2.331-7.885-3.689-12.491-3.689-12.71 0-23.013 10.304-23.013 23.014s10.303 23.013 23.013 23.013c4.606 0 8.893-1.359 12.491-3.689-6.331-4.101-10.523-11.221-10.523-19.325z" fill="#ffcebe"/><path d="m326.999 95.802c0-8.104 4.192-15.224 10.523-19.324-3.598-2.331-7.885-3.689-12.491-3.689-12.71 0-23.013 10.304-23.013 23.014s10.304 23.013 23.013 23.013c4.606 0 8.893-1.359 12.491-3.689-6.33-4.101-10.523-11.221-10.523-19.325z" fill="#ffcebe"/></g></svg>