<svg id="Layer_1" enable-background="new 0 0 512 512" height="512" viewBox="0 0 512 512" width="512" xmlns="http://www.w3.org/2000/svg"><g><path d="m373.267 457.13v-407.264l14.08-8.143v-19.573c0-12.183-9.967-22.15-22.15-22.15h-218.395c-12.183 0-22.15 9.967-22.15 22.15v19.573l14.08 10.203v397.648l-14.08 20.702v19.573c0 12.183 9.967 22.15 22.15 22.15h218.396c12.182 0 22.15-9.967 22.15-22.15v-19.573z" fill="#8479c2"/><path d="m176.161 489.85v-19.573l14.08-20.702v-397.648l-14.08-10.203v-19.574c0-12.183 9.967-22.15 22.15-22.15h-51.509c-12.183 0-22.15 9.967-22.15 22.15v19.573l14.08 10.203v397.648l-14.08 20.702v19.573c0 12.183 9.967 22.15 22.15 22.15h51.509c-12.182.001-22.15-9.966-22.15-22.149z" fill="#6e60b8"/><path d="m382.701 125.413h-250.676l-7.373 6.426v338.438h262.696v-338.438z" fill="#f9f6f9"/><path d="m183.534 125.413h-51.509l-7.373 6.426v338.438h51.509v-338.438z" fill="#cbe2ff"/><path d="m321.321 41.723c-4.599 0-8.698 2.62-10.944 6.633-3.395 6.067-9.878 10.194-17.291 10.194h-74.173c-7.413 0-13.896-4.126-17.291-10.194-2.245-4.013-6.345-6.633-10.944-6.633h-66.026v90.116h38.794l5.064 4.991h172.812l7.231-4.991h38.794v-90.116z" fill="#80b4fb"/><path d="m166.879 128.847h9.282v-87.124h-51.509v90.116h38.794l3.433 3.384z" fill="#61a2f9"/><path d="m336.046 117.073h-160.093c-6.907 0-12.508 5.6-12.508 12.507v124.021c0 6.908 5.6 12.507 12.508 12.507h160.093c6.907 0 12.508-5.6 12.508-12.507v-124.02c0-6.908-5.6-12.508-12.508-12.508z" fill="#ff636e"/><path d="m205.118 253.602v-124.021c0-6.908 5.6-12.507 12.507-12.507h-41.672c-6.907 0-12.507 5.6-12.507 12.507v124.021c0 6.908 5.6 12.507 12.507 12.507h41.672c-6.907 0-12.507-5.6-12.507-12.507z" fill="#ff4654"/><g><path d="m277.258 34.684h-42.517c-4.267 0-7.726-3.459-7.726-7.726s3.459-7.726 7.726-7.726h42.517c4.267 0 7.726 3.459 7.726 7.726s-3.458 7.726-7.726 7.726z" fill="#9790cc"/></g><g><path d="m238.081 305.909h-66.909c-4.267 0-7.726-3.459-7.726-7.726s3.459-7.726 7.726-7.726h66.909c4.267 0 7.726 3.459 7.726 7.726s-3.459 7.726-7.726 7.726z" fill="#ff636e"/></g><g><path d="m194.523 338.347h-23.351c-4.267 0-7.726-3.459-7.726-7.726s3.459-7.726 7.726-7.726h23.351c4.267 0 7.726 3.459 7.726 7.726s-3.459 7.726-7.726 7.726z" fill="#8479c2"/></g><g><path d="m239.064 370.784h-67.892c-4.267 0-7.726-3.459-7.726-7.726s3.459-7.726 7.726-7.726h67.892c4.267 0 7.726 3.459 7.726 7.726s-3.459 7.726-7.726 7.726z" fill="#cbe2ff"/></g><g><path d="m194.523 403.222h-23.351c-4.267 0-7.726-3.459-7.726-7.726s3.459-7.726 7.726-7.726h23.351c4.267 0 7.726 3.459 7.726 7.726s-3.459 7.726-7.726 7.726z" fill="#8479c2"/></g><g><path d="m239.064 435.66h-67.892c-4.267 0-7.726-3.459-7.726-7.726s3.459-7.726 7.726-7.726h67.892c4.267 0 7.726 3.459 7.726 7.726.001 4.267-3.459 7.726-7.726 7.726z" fill="#cbe2ff"/></g><path d="m283.839 185.196-41.615-26.36c-5.04-3.192-11.62.429-11.62 6.395v52.719c0 5.966 6.58 9.587 11.62 6.395l41.615-26.36c4.692-2.971 4.692-9.817 0-12.789z" fill="#f9f6f9"/><path d="m256 167.563-13.776-8.726c-5.04-3.192-11.62.429-11.62 6.395v52.719c0 5.966 6.58 9.587 11.62 6.395l13.776-8.727z" fill="#cbe2ff"/></g></svg>