<svg id="Layer_1" enable-background="new 0 0 512 512" height="512" viewBox="0 0 512 512" width="512" xmlns="http://www.w3.org/2000/svg"><g><path d="m435.353 105.294h-61.657c-6.799 0-12.362 5.563-12.362 12.362v15.551l3.168 3.236h78.293l4.921-3.236v-15.551c0-6.799-5.563-12.362-12.363-12.362z" fill="#f9f6f9"/><path d="m138.304 105.294h-61.657c-6.799 0-12.362 5.563-12.362 12.362v15.551l1.852 3.236h81.513l3.017-3.236v-15.551c-.001-6.799-5.564-12.362-12.363-12.362z" fill="#f9f6f9"/><path d="m404.525 117.656c0-6.799 5.563-12.362 12.362-12.362h-43.191c-6.799 0-12.362 5.563-12.362 12.362v15.551l3.168 3.236h43.191l-3.168-3.236z" fill="#cbe2ff"/><path d="m107.475 117.656c0-6.799 5.563-12.362 12.362-12.362h-43.19c-6.799 0-12.362 5.563-12.362 12.362v15.551l1.852 3.236h43.191l-1.852-3.236v-15.551z" fill="#cbe2ff"/><path d="m72.275 348.274 6.524 11.332v36.743l5.565 10.357h343.271l5.888-4.519v-42.273l14.766-12.67h58.377l5.334-5.353v-151.818c0-31.276-25.59-56.866-56.866-56.866h-398.268c-31.277.001-56.866 25.59-56.866 56.866v151.818l4.97 6.383z" fill="#8479c2"/><g><path d="m36.056 190.073c0-31.276 25.589-56.866 56.866-56.866h-36.056c-31.277.001-56.866 25.59-56.866 56.866v151.818l4.97 6.383h36.056l-4.97-6.383z" fill="#6e60b8"/></g><g fill="#6e60b8"><circle cx="75.333" cy="226.304" r="16.217"/><circle cx="75.333" cy="286.331" r="16.217"/><circle cx="105.346" cy="256.317" r="16.217"/><circle cx="45.32" cy="256.317" r="16.217"/></g><path d="m75.333 226.304c0-5.999 3.266-11.224 8.108-14.029-2.387-1.383-5.151-2.187-8.108-2.187-8.956 0-16.217 7.26-16.217 16.217 0 8.956 7.261 16.217 16.217 16.217 2.957 0 5.721-.804 8.108-2.187-4.842-2.807-8.108-8.032-8.108-14.031z" fill="#6353b2"/><path d="m75.333 286.331c0-5.999 3.266-11.224 8.108-14.03-2.387-1.383-5.151-2.187-8.108-2.187-8.956 0-16.217 7.261-16.217 16.217s7.261 16.217 16.217 16.217c2.957 0 5.721-.804 8.108-2.187-4.842-2.806-8.108-8.031-8.108-14.03z" fill="#6353b2"/><path d="m105.346 256.317c0-5.999 3.266-11.224 8.109-14.029-2.387-1.383-5.151-2.187-8.109-2.187-8.956 0-16.216 7.26-16.216 16.217 0 8.956 7.26 16.217 16.216 16.217 2.957 0 5.721-.804 8.109-2.187-4.843-2.806-8.109-8.032-8.109-14.031z" fill="#6353b2"/><path d="m45.32 256.317c0-5.999 3.266-11.224 8.108-14.029-2.387-1.383-5.151-2.187-8.108-2.187-8.956 0-16.217 7.26-16.217 16.217 0 8.956 7.26 16.217 16.217 16.217 2.957 0 5.721-.804 8.108-2.187-4.842-2.806-8.108-8.032-8.108-14.031z" fill="#6353b2"/><path d="m447.977 341.891c-11.234 0-20.342 9.107-20.342 20.342v44.473h27.499c31.276 0 56.866-25.59 56.866-56.866v-7.949z" fill="#f9f6f9"/><path d="m460.601 362.233c0-11.234 9.107-20.342 20.341-20.342h-32.966c-11.234 0-20.341 9.107-20.341 20.342v44.473h27.498c1.844 0 3.666-.096 5.467-.27v-44.203z" fill="#cbe2ff"/><path d="m56.866 406.706h27.499v-44.473c0-11.234-9.107-20.342-20.342-20.342h-64.023v7.949c0 31.276 25.59 56.866 56.866 56.866z" fill="#f9f6f9"/><path d="m36.056 349.84v-7.949h-36.056v7.949c0 31.276 25.589 56.866 56.866 56.866h27.499v-.649c-27.255-4.159-48.309-27.848-48.309-56.217z" fill="#cbe2ff"/><path d="m342.758 192.172h-173.517c-10.217 0-18.575 8.359-18.575 18.575v140.04c0 10.217 8.359 18.575 18.575 18.575h173.517c10.217 0 18.576-8.359 18.576-18.575v-140.04c0-10.216-8.359-18.575-18.576-18.575z" fill="#80b4fb"/><path d="m342.758 192.172h-173.517c-10.217 0-18.575 8.359-18.575 18.575v140.04c0 10.217 8.359 18.575 18.575 18.575h173.517c10.217 0 18.576-8.359 18.576-18.575v-140.04c0-10.216-8.359-18.575-18.576-18.575z" fill="#80b4fb"/><path d="m188.439 350.787v-140.04c0-10.216 8.359-18.575 18.575-18.575h-37.773c-10.216 0-18.575 8.359-18.575 18.575v140.04c0 10.216 8.359 18.575 18.575 18.575h37.773c-10.216.001-18.575-8.358-18.575-18.575z" fill="#61a2f9"/><g><path d="m307.646 170.268h-103.292c-4.267 0-7.726-3.459-7.726-7.726s3.459-7.726 7.726-7.726h103.292c4.267 0 7.726 3.459 7.726 7.726s-3.459 7.726-7.726 7.726z" fill="#6e60b8"/></g><circle cx="436.667" cy="226.304" fill="#6e60b8" r="16.217"/><circle cx="436.667" cy="286.331" fill="#6e60b8" r="16.217"/><circle cx="466.68" cy="256.317" fill="#6e60b8" r="16.217"/><circle cx="406.654" cy="256.317" fill="#6e60b8" r="16.217"/><path d="m436.667 226.304c0-5.999 3.266-11.224 8.108-14.029-2.387-1.383-5.151-2.187-8.108-2.187-8.956 0-16.217 7.26-16.217 16.217 0 8.956 7.261 16.217 16.217 16.217 2.957 0 5.721-.804 8.108-2.187-4.842-2.807-8.108-8.032-8.108-14.031z" fill="#6353b2"/><path d="m436.667 286.331c0-5.999 3.266-11.224 8.108-14.03-2.387-1.383-5.151-2.187-8.108-2.187-8.956 0-16.217 7.261-16.217 16.217s7.261 16.217 16.217 16.217c2.957 0 5.721-.804 8.108-2.187-4.842-2.806-8.108-8.031-8.108-14.03z" fill="#6353b2"/><path d="m466.68 256.317c0-5.999 3.266-11.224 8.109-14.029-2.387-1.383-5.151-2.187-8.109-2.187-8.956 0-16.216 7.26-16.216 16.217 0 8.956 7.26 16.217 16.216 16.217 2.957 0 5.721-.804 8.109-2.187-4.843-2.806-8.109-8.032-8.109-14.031z" fill="#6353b2"/><path d="m406.654 256.317c0-5.999 3.266-11.224 8.108-14.029-2.387-1.383-5.151-2.187-8.108-2.187-8.956 0-16.217 7.26-16.217 16.217 0 8.956 7.26 16.217 16.217 16.217 2.957 0 5.721-.804 8.108-2.187-4.843-2.806-8.108-8.032-8.108-14.031z" fill="#6353b2"/></g></svg>