<svg id="Layer_1" enable-background="new 0 0 512 512" height="512" viewBox="0 0 512 512" width="512" xmlns="http://www.w3.org/2000/svg"><g><path d="m484.002 504.689 11.052 1.446c1.845-2.452 2.951-5.49 2.951-8.795v-487.012c0-1.102-1.309-1.678-2.122-.934l-19.737 18.067c-7.744 7.089-19.62 7.089-27.365 0l-21.858-20.009-4.045 3.268v483.256l4.045 18.024 7.287-3.877z" fill="#f9f6f9"/><path d="m460.989 32.711c-4.403-.32-8.723-2.061-12.207-5.25l-21.859-20.009-4.045 3.268v483.256l4.045 18.024 7.287-3.877 26.779-1.847z" fill="#cbe2ff"/><path d="m419.27 2.859-17.253 9.2c-2.695 1.437-5.929 1.437-8.624 0l-20.594-10.981c-2.695-1.437-5.929-1.437-8.624 0l-20.589 10.98c-2.695 1.437-5.93 1.437-8.625 0l-20.587-10.98c-2.695-1.438-5.93-1.438-8.625 0l-20.587 10.979c-2.696 1.437-5.93 1.437-8.626 0l-20.587-10.978c-2.696-1.438-5.93-1.438-8.626 0l-20.583 10.978c-2.696 1.438-5.931 1.438-8.626 0l-20.582-10.978c-2.696-1.438-5.931-1.438-8.626 0l-20.579 10.978c-2.696 1.438-5.931 1.438-8.626 0l-20.585-10.978c-2.696-1.438-5.931-1.438-8.626 0l-20.584 10.978c-2.696 1.438-5.93 1.438-8.626 0l-17.243-9.196c-3.467-1.849-7.653.663-7.653 4.592v217.664l4.743 10.868h157.102v247.929l15.959 28.086h172.735v-504.548c0-3.929-4.186-6.441-7.653-4.593z" fill="#f9f6f9"/><g><path d="m121.669 5.783-11.764 6.274c-2.696 1.438-5.93 1.438-8.626 0l-17.242-9.196c-3.467-1.849-7.653.663-7.653 4.592v217.664l4.743 10.868h40.542z" fill="#cbe2ff"/></g><path d="m468.493 478.432c-3.25-3.39-8.7-3.292-11.825.214l-29.745 33.354h56.423c4.792 0 9.033-2.309 11.708-5.864z" fill="#9dc6fb"/><path d="m278.57 412.032h-71.214c5.175 0 9.371 4.196 9.371 9.371v16.111c0 5.175-4.196 9.371-9.371 9.371h71.214c5.175 0 9.371-4.195 9.371-9.371v-16.111c0-5.175-4.196-9.371-9.371-9.371z" fill="#ff4654"/><path d="m94.903 437.514v-16.111c0-5.175 4.196-9.371 9.371-9.371h-71.213c-5.175 0-9.371 4.196-9.371 9.371v16.111c0 5.175 4.195 9.371 9.371 9.371h71.214c-5.176 0-9.372-4.195-9.372-9.371z" fill="#ff4654"/><path d="m209.417 412.032h-107.203c-5.175 0-9.371 4.196-9.371 9.371v16.111c0 5.175 4.195 9.371 9.371 9.371h107.203c5.175 0 9.371-4.195 9.371-9.371v-16.111c0-5.175-4.196-9.371-9.371-9.371z" fill="#ff7f87"/><path d="m144.384 437.514v-16.111c0-5.175 4.195-9.371 9.371-9.371h-51.541c-5.175 0-9.371 4.196-9.371 9.371v16.111c0 5.176 4.195 9.371 9.371 9.371h51.541c-5.175 0-9.371-4.195-9.371-9.371z" fill="#ff636e"/><path d="m274.94 445.855h-238.249c-12.535 0-22.697 10.162-22.697 22.697 0 23.996 19.452 43.448 43.448 43.448h196.746c23.996 0 43.448-19.453 43.448-43.448 0-12.535-10.161-22.697-22.696-22.697z" fill="#fcd79b"/><path d="m71.513 468.552c0-12.535 10.161-22.697 22.697-22.697h-57.519c-12.535 0-22.697 10.162-22.697 22.697 0 23.996 19.452 43.448 43.448 43.448h57.518c-23.995 0-43.447-19.453-43.447-43.448z" fill="#fbc56c"/><path d="m271.682 358.884h-9.158c-5.717.001-10.354 4.625-10.375 10.337-.037 9.993-7.467 18.156-17.461 18.156h-.657c-7.1 0-13.246-4.084-16.217-10.031-.798-1.598-3.003-1.598-3.801 0-2.971 5.947-9.117 10.031-16.217 10.031-9.999 0-18.105-8.1-18.117-18.095-.007-5.721-4.38-10.397-10.101-10.398h-129.629c-8.98 0-16.259 7.279-16.259 16.259v21.661c0 8.98 7.279 16.259 16.259 16.259h231.733c8.98 0 16.259-7.279 16.259-16.259v-21.661c0-8.98-7.28-16.259-16.259-16.259z" fill="#ad6a50"/><g><path d="m81.208 396.803v-21.661c0-8.98 7.28-16.259 16.259-16.259h-57.518c-8.98 0-16.259 7.28-16.259 16.259v21.661c0 8.98 7.279 16.259 16.259 16.259h57.518c-8.98 0-16.259-7.279-16.259-16.259z" fill="#935b43"/></g><path d="m269.824 321.618h-228.017c-10.006 0-18.117 9.142-18.117 19.147 0 10.006 8.111 19.147 18.117 19.147h127.77c5.721 0 10.095 4.677 10.102 10.398.012 9.996 8.119 18.095 18.117 18.095 7.1 0 13.246-4.084 16.217-10.031.798-1.598 3.003-1.598 3.801 0 2.971 5.947 9.117 10.031 16.217 10.031h.657c9.994 0 17.424-8.163 17.461-18.156.021-5.713 4.658-10.337 10.376-10.337h7.298c10.006 0 18.117-9.142 18.117-19.148.001-10.004-8.11-19.146-18.116-19.146z" fill="#ffe07d"/><g><path d="m81.208 340.766c0-10.006 8.112-19.148 18.117-19.148h-57.518c-10.006 0-18.117 9.142-18.117 19.148 0 10.006 8.112 19.147 18.117 19.147h57.518c-10.006.001-18.117-9.141-18.117-19.147z" fill="#ffc250"/></g><path d="m221.548 223.863h-131.465c-42.022 0-76.088 34.066-76.088 76.088 0 12.535 10.162 22.697 22.697 22.697h238.248c12.535 0 22.697-10.162 22.697-22.697-.001-42.022-34.066-76.088-76.089-76.088z" fill="#fcd79b"/><path d="m71.513 299.952c0-42.023 34.066-76.088 76.088-76.088h-57.518c-42.022 0-76.088 34.066-76.088 76.088 0 12.535 10.162 22.697 22.697 22.697h57.518c-12.536 0-22.697-10.162-22.697-22.697z" fill="#fbc56c"/><g><path d="m81.127 266.454c-4.267 0-7.726-3.459-7.726-7.726v-6.245c0-4.267 3.459-7.726 7.726-7.726s7.726 3.459 7.726 7.726v6.245c.001 4.267-3.459 7.726-7.726 7.726z" fill="#fbc56c"/></g><g><path d="m130.919 266.454c-4.267 0-7.726-3.459-7.726-7.726v-6.245c0-4.267 3.459-7.726 7.726-7.726s7.726 3.459 7.726 7.726v6.245c.001 4.267-3.459 7.726-7.726 7.726z" fill="#fbc56c"/></g><g><path d="m180.711 266.454c-4.267 0-7.726-3.459-7.726-7.726v-6.245c0-4.267 3.459-7.726 7.726-7.726s7.726 3.459 7.726 7.726v6.245c.001 4.267-3.458 7.726-7.726 7.726z" fill="#fbc56c"/></g><g><path d="m230.503 266.454c-4.267 0-7.726-3.459-7.726-7.726v-6.245c0-4.267 3.459-7.726 7.726-7.726s7.726 3.459 7.726 7.726v6.245c0 4.267-3.459 7.726-7.726 7.726z" fill="#fbc56c"/></g><g><path d="m106.024 294.011c-4.267 0-7.726-3.459-7.726-7.726v-6.245c0-4.267 3.459-7.726 7.726-7.726s7.726 3.459 7.726 7.726v6.245c0 4.267-3.459 7.726-7.726 7.726z" fill="#fbc56c"/></g><g><path d="m155.815 294.011c-4.267 0-7.726-3.459-7.726-7.726v-6.245c0-4.267 3.459-7.726 7.726-7.726s7.726 3.459 7.726 7.726v6.245c0 4.267-3.459 7.726-7.726 7.726z" fill="#fbc56c"/></g><g><path d="m205.607 294.011c-4.267 0-7.726-3.459-7.726-7.726v-6.245c0-4.267 3.459-7.726 7.726-7.726s7.726 3.459 7.726 7.726v6.245c.001 4.267-3.459 7.726-7.726 7.726z" fill="#fbc56c"/></g></g></svg>