<svg id="Layer_1" enable-background="new 0 0 512 512" height="512" viewBox="0 0 512 512" width="512" xmlns="http://www.w3.org/2000/svg"><g><path d="m346.141 240.84h-44.034l-1.905-.808-6.095 4.207v30.648l56.66 22.664 14.091-7.07v-30.923c0-10.295-8.423-18.718-18.717-18.718z" fill="#80b4fb"/><path d="m209.901 240.84h-44.042c-10.295 0-18.718 8.423-18.718 18.718v30.923l3.426 1.33 19.23 2.992 47.497-16.531v-36.684l-5.088-2.93z" fill="#80b4fb"/><g><path d="m190.924 259.558c0-10.295 8.423-18.718 18.718-18.718h-43.783c-10.295 0-18.718 8.423-18.718 18.718v30.923l3.426 1.33 19.23 2.992 21.127-7.353z" fill="#61a2f9"/></g><g fill="#ff7f87"><path d="m341.22 291.024c-13.002-5.036-24.889-9.639-32.164-12.457l-11.966 12.252h-82.241l-11.961-12.546-32.124 12.546-2.683 2.461v215.975l2.749 2.745h170.341l1.57-3.604v-216.146z"/><path d="m405.781 316.027c-1.333-.517-8.987-3.481-19.589-7.587l-5.463 5.25v121.562l5.463 2.747h50.768l9.038-7.555c0-23.923 0-46.229 0-52.039-.001-28.452-18.218-53.323-40.217-62.378z"/><path d="m125.808 308.377-19.588 7.65c-17.194 7.076-40.217 29.341-40.217 62.379v52.039l4.896 7.555h54.909l4.069-2.232v-123.365z"/></g><path d="m106.22 316.027c-17.194 7.076-40.217 29.341-40.217 62.379v52.039l4.896 7.555h30.759c0-29.264 0-57.809 0-73.83 0-27.716 12.15-45.451 20.505-54.37z" fill="#ff636e"/><path d="m125.808 430.445h-59.805v68.153c0 7.401 6.001 13.402 13.402 13.402h46.404l2.781-1.93v-77.007z" fill="#ffcebe"/><path d="m101.658 430.445h-35.655v68.153c0 7.401 6.001 13.402 13.402 13.402h22.253c0-20.721 0-52.031 0-81.555z" fill="#ffb1a0"/><path d="m386.192 430.445-4.78 5.151v72.972l4.78 3.432h46.404c7.402 0 13.402-6.001 13.402-13.402 0-6.138 0-38.397 0-68.153z" fill="#ffcebe"/><path d="m168.08 430.445h174.66v39.963h-174.66z" fill="#f9f6f9"/><path d="m297.09 290.819h-82.241l-11.961-12.546-29.091 11.362c3.652 13.839 10.792 26.573 21.002 37.06 16.049 16.483 38.058 25.56 61.973 25.56 38.908 0 71.724-26.518 81.363-62.426-11.782-4.563-22.382-8.668-29.078-11.261z" fill="#ff636e"/><path d="m301.871 275.785c-2.85-1.102-4.744-3.844-4.752-6.916l-.02-24.441-3.85-5.769h-73.315l-5.096 5.66v24.506c0 3.063-1.473 4.868-3.168 6.019l-8.781 3.43c4.62 23.564 24.961 43.076 53.884 43.076 25.797 0 47.372-18.411 52.285-42.781-3.901-1.512-6.479-2.51-7.187-2.784z" fill="#ffcebe"/><path d="m255.972 238.659h-36.039l-5.096 5.66v24.506c0 3.063-1.473 4.868-3.168 6.019l-8.781 3.43c4.576 23.344 24.589 42.701 53.084 43.059z" fill="#ffb1a0"/><path d="m344.34 127.594-.956-1.998h-15.281v56.317l2.244 3.068c18.873 2.007 34.511-11.815 34.511-28.711 0-12.811-8.341-24.824-20.518-28.676z" fill="#ffcebe"/><path d="m165.355 129.241c-10.302 4.631-18.214 15.343-18.214 27.126 0 16.852 15.618 30.676 34.509 28.602l2.398-3.787v-53.612h-16.998z" fill="#ffcebe"/><path d="m350.072 130.182c-1.794-1.06-3.704-1.946-5.732-2.588l-.956-1.998h-15.281v56.317l2.244 3.068c7.3.776 14.111-.823 19.725-4.045z" fill="#ffb1a0"/><path d="m169.11 156.367c0-10.496 6.285-20.129 14.938-25.385v-3.413h-16.998l-1.695 1.672c-10.302 4.631-18.214 15.343-18.214 27.126 0 16.852 15.618 30.676 34.509 28.602l2.398-3.787v-.112c-8.989-5.069-14.938-14.307-14.938-24.703z" fill="#ffb1a0"/><path d="m160.578 284.947-30.173 12.428c-2.781 1.146-4.597 3.857-4.597 6.865v207.76h45.021v-220.189c0-5.284-5.365-8.877-10.251-6.864z" fill="#8479c2"/><path d="m381.595 297.375-30.173-12.428c-4.886-2.013-10.251 1.58-10.251 6.865v220.188h45.021v-207.761c0-3.008-1.816-5.719-4.597-6.864z" fill="#8479c2"/><path d="m149.604 289.467-19.199 7.908c-2.781 1.146-4.597 3.857-4.597 6.865v207.76h21.333v-217.032c0-2.14.931-4.119 2.463-5.501z" fill="#6e60b8"/><path d="m362.832 289.647-11.411-4.7c-4.886-2.013-10.251 1.58-10.251 6.865v220.188h21.333v-220.189c0-.762.123-1.484.329-2.164z" fill="#6e60b8"/><path d="m326.558 124.479-15.11-25.755h-6.181l-36.228 26.27h-38.032l-2.978 3.898v53.945c0 30.864 19 59.607 49.708 70.544 30.399-8.95 52.66-37.09 52.66-70.347v-53.174z" fill="#ffdecf"/><g><path d="m229.335 183.034v-52.593l4.162-5.447h-47.732l-4.162 5.447v52.593c0 38.328 30.031 73.335 75.458 73.335 8.072 0 15.834-1.33 23.103-3.75-31.329-10-50.829-38.707-50.829-69.585z" fill="#ffcebe"/></g><path d="m325.632 33.907c-7.007.539-13.436-3.867-14.785-10.764-2.271-11.616-8.022-23.143-30.486-23.143h-77.938c-28.604 0-51.792 23.188-51.792 51.792v56.841c0 12.044 9.763 21.807 21.807 21.807h88.457c19.785 0 36.969-11.1 45.688-27.408.676-1.264 2.595-.771 2.595.663 0 14.71 12.035 26.745 26.745 26.745 7.71 0 14.019-6.309 14.019-14.019v-59.315c0-13.974-12.192-24.131-24.31-23.199z" fill="#fff1af"/><g><path d="m198.363 108.634v-56.842c0-28.604 23.188-51.792 51.792-51.792h-47.732c-28.604 0-51.792 23.188-51.792 51.792v56.841c0 12.044 9.763 21.807 21.807 21.807h47.732c-12.044.001-21.807-9.762-21.807-21.806z" fill="#ffe07d"/></g></g></svg>