<svg id="Layer_1" enable-background="new 0 0 512 512" height="512" viewBox="0 0 512 512" width="512" xmlns="http://www.w3.org/2000/svg"><g><path d="m352.178 0h-192.356c-11.647 0-21.09 9.442-21.09 21.09v14.727l4.968 4.974h220.801l8.766-4.974v-14.727c0-11.648-9.442-21.09-21.089-21.09z" fill="#cbe2ff"/><path d="m181.53 21.09c0-11.648 9.442-21.09 21.09-21.09h-42.797c-11.647 0-21.09 9.442-21.09 21.09v14.727l4.968 4.974h42.797l-4.968-4.974z" fill="#9dc6fb"/><path d="m381.5 90.071 11.432-8.874v-21.126c0-13.637-11.157-24.794-24.794-24.794h-224.275c-13.637 0-24.794 11.157-24.794 24.794v21.126l9.007 8.874v367.255l-9.007 8.754v21.127c0 13.637 11.157 24.794 24.794 24.794h224.274c13.637 0 24.794-11.157 24.794-24.794v-21.127l-11.431-13.39z" fill="#f9f6f9"/><path d="m161.866 487.206v-21.127l9.007-8.754v-367.254l-9.007-8.874v-21.126c0-13.637 11.157-24.794 24.794-24.794h-42.797c-13.637 0-24.794 11.157-24.794 24.794v21.126l9.007 8.874v367.255l-9.007 8.754v21.127c0 13.637 11.157 24.794 24.794 24.794h42.797c-13.637-.001-24.794-11.158-24.794-24.795z" fill="#cbe2ff"/><path d="m384.762 432.258 8.169-7.422v-343.639h-273.862v343.639l5.905 7.422z" fill="#8479c2"/><path d="m161.866 81.197h-42.797v343.639l5.905 7.422h42.798l-5.906-7.422z" fill="#6e60b8"/><path d="m119.069 424.836h273.862v41.243h-273.862z" fill="#ffd064"/><path d="m119.069 424.836h42.797v41.243h-42.797z" fill="#ffc250"/><path d="m283.074 165.384-2.703 2.367-55.973 3.014-2.449-3.014c-35.738 13.7-61.112 48.325-61.112 88.883 0 45.347 31.719 83.281 74.18 92.838l4.492-2.891 14.759 1.545v3.65c.577.01 1.154.021 1.734.021 52.558 0 95.164-42.606 95.164-95.164-.002-43.15-28.725-79.586-68.092-91.249z" fill="#ff636e"/><path d="m217.839 256.381c0-36.215 17.919-68.23 45.363-87.705l-38.804 2.089-2.449-3.014c-35.738 13.7-61.112 48.325-61.112 88.883 0 45.347 31.719 83.281 74.18 92.838l4.492-2.891 14.759 1.545v3.65c.577.01 1.154.021 1.734.021 5.806 0 11.489-.522 17.008-1.517-32.91-18.376-55.171-53.531-55.171-93.899z" fill="#ff4654"/><path d="m330.22 220.905-58.434 6.368c-3.757.409-6.707-3.158-5.6-6.771l24.792-80.92c1.036-3.382-1.493-6.802-5.03-6.802h-49.724c-2.33 0-4.383 1.534-5.044 3.768l-40.328 136.297c-1.071 3.62 1.907 7.157 5.657 6.717l52.084-6.106c3.712-.435 6.681 3.031 5.682 6.632l-27.12 97.701c-1.3 4.682 4.991 7.542 7.665 3.486l100.363-152.245c2.45-3.716-.537-8.607-4.963-8.125z" fill="#ffd064"/><path d="m281.559 254.913-52.084 6.106c-3.75.44-6.728-3.097-5.657-6.717l35.957-121.522h-23.549c-2.33 0-4.383 1.534-5.044 3.768l-40.328 136.297c-1.071 3.621 1.907 7.157 5.657 6.717l52.084-6.106c3.712-.435 6.681 3.031 5.682 6.632l-27.12 97.701c-1.3 4.682 4.991 7.542 7.665 3.486l33.14-50.272 19.28-69.458c.998-3.6-1.971-7.066-5.683-6.632z" fill="#ffc250"/></g></svg>