<svg id="Layer_1" enable-background="new 0 0 512 512" height="512" viewBox="0 0 512 512" width="512" xmlns="http://www.w3.org/2000/svg"><g><path d="m417.858 126.532c-4.204 0-7.611 3.408-7.611 7.611v103.048c0 10.729-8.729 19.458-19.458 19.458h-18.826c-10.729 0-19.458-8.729-19.458-19.458v-103.047c0-4.204-3.408-7.611-7.611-7.611s-7.611 3.408-7.611 7.611v103.048c0 19.123 15.558 34.681 34.681 34.681h1.802v186.199c0 21.342-17.363 38.705-38.706 38.705h-72.595c-21.342 0-38.705-17.363-38.705-38.705v-22.768c0-4.204-3.408-7.611-7.611-7.611-4.204 0-7.611 3.408-7.611 7.611v22.768c0 29.736 24.192 53.928 53.928 53.928h72.595c29.736 0 53.928-24.192 53.928-53.928v-186.199h1.802c19.123 0 34.681-15.558 34.681-34.681v-103.048c-.002-4.204-3.41-7.612-7.614-7.612z" fill="#f9f6f9"/><path d="m229.181 399.699h-25.879l-2.378 3.082v27.016c0 8.407 6.816 15.223 15.223 15.223s15.223-6.816 15.223-15.223v-27.016z" fill="#f9f6f9"/><path d="m216.147 429.797v-27.016l2.378-3.082h-15.223l-2.378 3.082v27.016c0 8.407 6.816 15.223 15.223 15.223 2.776 0 5.371-.755 7.611-2.053-4.545-2.634-7.611-7.539-7.611-13.17z" fill="#cbe2ff"/><path d="m432.452 51.27h-9.498c-10.873 0-19.688 8.815-19.688 19.688v64.296c0 4.661 3.779 8.441 8.441 8.441h12.305c4.662 0 8.44-3.779 8.44-8.441v-58.007l1.351-.824v-23.595z" fill="#f9f6f9"/><path d="m418.534 135.254v-64.296c0-9.085 6.163-16.713 14.53-18.982l-.612-.706h-9.498c-10.873 0-19.688 8.815-19.688 19.688v64.296c0 4.661 3.779 8.441 8.441 8.441h12.305c.506 0 1-.053 1.482-.138-3.955-.702-6.96-4.148-6.96-8.303z" fill="#cbe2ff"/><path d="m455.494 35.41h-11.557c-6.343 0-11.485 5.142-11.485 11.485v30.353c0 6.343 5.142 11.485 11.485 11.485h11.557c6.343 0 11.485-5.142 11.485-11.485v-30.353c-.001-6.343-5.142-11.485-11.485-11.485z" fill="#cbe2ff"/><path d="m449.715 77.247v-30.352c0-5.356 3.672-9.843 8.632-11.113-.914-.234-1.866-.372-2.853-.372h-11.557c-6.343 0-11.485 5.142-11.485 11.485v30.353c0 6.343 5.142 11.485 11.485 11.485h11.557c.987 0 1.939-.138 2.853-.372-4.96-1.271-8.632-5.758-8.632-11.114z" fill="#9dc6fb"/><path d="m248.209 51.27 8.919-10.167v-19.282c0-12.002-9.819-21.821-21.821-21.821h-168.465c-12.001 0-21.82 9.819-21.82 21.821v19.282l8.841 10.167v303.353l-8.841 10.1v16.238c0 12.001 9.819 21.821 21.821 21.821h168.465c12.001 0 21.821-9.819 21.821-21.821v-16.238l-8.919-8.07v-305.383z" fill="#8479c2"/><path d="m83.745 380.96v-16.238l8.841-10.1v-303.352l-8.841-10.167v-19.282c0-12.002 9.819-21.821 21.821-21.821h-38.724c-12.001 0-21.82 9.819-21.82 21.821v19.282l8.841 10.167v303.353l-8.841 10.1v16.238c0 12.001 9.819 21.821 21.821 21.821h38.724c-12.003-.001-21.822-9.82-21.822-21.822z" fill="#6e60b8"/><path d="m205.276 41.103c-4.53 0-8.569 2.581-10.781 6.535-3.345 5.977-9.731 10.042-17.034 10.042h-52.773c-7.303 0-13.689-4.065-17.034-10.042-2.212-3.953-6.251-6.535-10.781-6.535h-51.851v323.62h212.106v-323.62z" fill="#ffd064"/><g><path d="m45.022 41.103h38.724v323.62h-38.724z" fill="#ffc250"/></g><path d="m161.869 18.946h-21.588c-4.204 0-7.611 3.408-7.611 7.611s3.408 7.611 7.611 7.611h21.588c4.204 0 7.611-3.408 7.611-7.611s-3.408-7.611-7.611-7.611z" fill="#9790cc"/><path d="m103.221 81.121h-21.587c-4.204 0-7.611 3.408-7.611 7.611s3.408 7.611 7.611 7.611h21.588c4.204 0 7.611-3.408 7.611-7.611s-3.408-7.611-7.612-7.611z" fill="#8479c2"/><g><path d="m115.428 249.977c-4.204 0-7.611-3.408-7.611-7.611v-102.126c0-4.204 3.408-7.611 7.611-7.611s7.611 2.64 7.611 6.843v102.894c0 4.203-3.408 7.611-7.611 7.611z" fill="#ff4654"/></g><g><path d="m208.101 229.718c-4.204 0-7.611-3.408-7.611-7.611v-102.126c0-4.204 3.408-7.611 7.611-7.611 4.204 0 7.611 3.408 7.611 7.611v102.126c0 4.203-3.407 7.611-7.611 7.611z" fill="#ff636e"/></g><g><path d="m218.225 313.144h-40.643c-4.204 0-7.611-3.408-7.611-7.611s3.408-7.611 7.611-7.611h40.643c4.204 0 7.611 3.408 7.611 7.611s-3.408 7.611-7.611 7.611z" fill="#f9f6f9"/></g><g><path d="m177.582 313.144h-93.658c-4.204 0-7.611-3.408-7.611-7.611s3.408-7.611 7.611-7.611h93.657c4.204 0 7.611 3.408 7.611 7.611s-3.407 7.611-7.61 7.611z" fill="#ff4654"/></g><g><path d="m177.582 320.755c-4.204 0-7.611-3.408-7.611-7.611v-15.223c0-4.204 3.408-7.611 7.611-7.611 4.204 0 7.611 3.408 7.611 7.611v15.223c.001 4.204-3.407 7.611-7.611 7.611z" fill="#ff636e"/></g><path d="m330.3 51.27h9.498c10.873 0 19.688 8.815 19.688 19.688v64.296c0 4.661-3.779 8.441-8.441 8.441h-12.305c-4.661 0-8.44-3.779-8.44-8.441v-58.007l-1.351-.824v-23.595z" fill="#f9f6f9"/><path d="m344.218 135.254v-64.296c0-9.085-6.163-16.713-14.53-18.982l.612-.706h9.498c10.873 0 19.688 8.815 19.688 19.688v64.296c0 4.661-3.779 8.441-8.441 8.441h-12.305c-.506 0-1-.053-1.482-.138 3.954-.702 6.96-4.148 6.96-8.303z" fill="#cbe2ff"/><path d="m318.815 35.41h-11.557c-6.343 0-11.485 5.142-11.485 11.485v30.353c0 6.343 5.142 11.485 11.485 11.485h11.557c6.343 0 11.485-5.142 11.485-11.485v-30.353c0-6.343-5.142-11.485-11.485-11.485z" fill="#cbe2ff"/><path d="m313.036 77.247v-30.352c0-5.356 3.672-9.843 8.632-11.113-.914-.234-1.866-.372-2.853-.372h-11.557c-6.343 0-11.485 5.142-11.485 11.485v30.353c0 6.343 5.142 11.485 11.485 11.485h11.557c.987 0 1.939-.138 2.853-.372-4.96-1.271-8.632-5.758-8.632-11.114z" fill="#9dc6fb"/><circle cx="102.189" cy="242.366" fill="#ff636e" r="20.85"/><circle cx="194.862" cy="222.107" fill="#ff636e" r="20.85"/><path d="m102.784 242.366c0-7.589 4.067-14.21 10.128-17.857-3.136-1.887-6.796-2.993-10.722-2.993-11.515 0-20.85 9.335-20.85 20.85s9.335 20.85 20.85 20.85c3.927 0 7.586-1.105 10.722-2.993-6.061-3.647-10.128-10.269-10.128-17.857z" fill="#ff4654"/><path d="m195.457 222.107c0-7.589 4.067-14.21 10.128-17.857-3.136-1.887-6.796-2.993-10.722-2.993-11.515 0-20.85 9.335-20.85 20.85s9.335 20.85 20.85 20.85c3.927 0 7.586-1.105 10.722-2.993-6.061-3.647-10.128-10.269-10.128-17.857z" fill="#ff4654"/><path d="m208.101 147.316-92.673 20.26v-34.947l92.673-20.26z" fill="#ff636e"/><path d="m140.63 127.119-25.202 5.51v34.947l25.202-5.51z" fill="#ff4654"/></g></svg>