<svg id="Layer_1" enable-background="new 0 0 512 512" height="512" viewBox="0 0 512 512" width="512" xmlns="http://www.w3.org/2000/svg"><g><path d="m337.717 474.839h-164.313l-4.481 5.479 2.765 20.834c.824 6.209 6.119 10.848 12.383 10.848h143.859c6.264 0 11.559-4.639 12.383-10.848l2.765-20.834z" fill="#f9f6f9"/><path d="m218.56 501.152-2.765-20.834 4.481-5.479h-46.873l-4.481 5.479 2.765 20.834c.824 6.209 6.119 10.848 12.383 10.848h46.873c-6.264 0-11.559-4.639-12.383-10.848z" fill="#cbe2ff"/><path d="m363.42 442.259-6.817-10.344 30.905-232.477 8.812-5.128 5.05-38.059v-11.068h-290.741v11.068l5.05 38.059 10.851 8.562 30.562 226.296-8.513 13.091 3.373 25.418c.96 7.235 7.13 12.641 14.429 12.641h179.237c7.299 0 13.469-5.405 14.429-12.641z" fill="#b3e59f"/><path d="m198.826 467.677-3.373-25.418 8.513-13.091-30.562-226.296-10.851-8.562-5.05-38.059v-11.068h-46.873v11.068l5.05 38.059 10.851 8.562 30.562 226.296-8.513 13.091 3.373 25.418c.96 7.235 7.13 12.641 14.429 12.641h46.873c-7.299 0-13.469-5.405-14.429-12.641z" fill="#95d6a4"/><path d="m363.42 442.259 32.901-247.949h-280.642l32.901 247.949z" fill="#95d6a4"/><path d="m115.679 194.31 32.901 247.949h46.873l-32.901-247.949z" fill="#78c2a4"/><circle cx="256" cy="311.587" fill="#ffe07d" r="78.98"/><path d="m208.612 311.587c0-38.21 27.134-70.079 63.184-77.397-5.104-1.036-10.386-1.583-15.796-1.583-43.62 0-78.98 35.361-78.98 78.98s35.361 78.98 78.98 78.98c5.41 0 10.692-.547 15.796-1.583-36.05-7.318-63.184-39.188-63.184-77.397z" fill="#ffc250"/><ellipse cx="256" cy="311.587" fill="#ad6a50" rx="33.824" ry="40.52"/><path d="m263.648 272.119c-2.459-.681-5.016-1.053-7.648-1.053-3.667 0-7.194.708-10.5 2.001-5.443 10.548-8.521 27.31 4.496 43.382 12.255 15.132 1.371 29.139.123 30.646-.994 1.167-1.574 2.544-1.768 3.958 2.459.681 5.017 1.053 7.649 1.053 3.666 0 7.193-.708 10.499-2 5.443-10.548 8.521-27.31-4.495-43.382-12.236-15.109-1.404-29.096-.095-30.679.977-1.16 1.547-2.525 1.739-3.926z" fill="#935b43"/><path d="m256 0c-69.607 0-127.814 48.768-142.34 113.999l2.019 5.086h280.642l2.019-5.086c-14.526-65.231-72.734-113.999-142.34-113.999z" fill="#cbe2ff"/><path d="m279.436 1.881c-7.63-1.233-15.457-1.881-23.436-1.881-69.607 0-127.814 48.768-142.34 113.999l2.019 5.086h46.873l-2.019-5.086c12.862-57.753 59.965-102.595 118.903-112.118z" fill="#9dc6fb"/><path d="m404.462 113.999h-296.924c-5.067 0-9.176 4.108-9.176 9.176v23.901c0 5.067 4.108 9.176 9.176 9.176h296.923c5.067 0 9.176-4.108 9.176-9.176v-23.901c0-5.068-4.108-9.176-9.175-9.176z" fill="#f9f6f9"/><path d="m145.236 147.075v-23.901c0-5.067 4.108-9.176 9.176-9.176h-46.873c-5.067 0-9.176 4.108-9.176 9.176v23.901c0 5.067 4.108 9.176 9.176 9.176h46.873c-5.068-.001-9.176-4.109-9.176-9.176z" fill="#cbe2ff"/></g></svg>