<svg id="Layer_1" enable-background="new 0 0 512 512" height="512" viewBox="0 0 512 512" width="512" xmlns="http://www.w3.org/2000/svg"><g><path d="m356.962 48.988-17.185 2.448-107.654-39.147-9.731-12.289c-115.628 0-209.362 93.735-209.362 209.362 0 64.384 29.071 121.969 74.792 160.374l17.074-3.582 101.988 35.026 15.508 17.544c39.247 0 75.966-10.81 107.359-29.599l4.359-3.141v-89.11l82.672-19.831 5.525-5.316c6.139-19.699 9.448-40.646 9.448-62.366 0-64.382-29.071-121.968-74.793-160.373zm-134.57 207.522c-26.039 0-47.148-21.109-47.148-47.148s21.109-47.148 47.148-47.148 47.148 21.109 47.148 47.148-21.109 47.148-47.148 47.148z" fill="#f9f6f9"/><g fill="#cbe2ff"><path d="m80.315 209.363c0-93.633 56.379-174.085 137.034-209.299-113.297 2.679-204.319 95.357-204.319 209.298 0 64.384 29.071 121.969 74.792 160.374l17.074-3.582 60.062 20.627c-51.631-41.852-84.643-105.775-84.643-177.418z"/><path d="m356.962 48.988c-36.391-30.567-83.325-48.988-134.57-48.988v125.785c20.457 0 39.187 7.36 53.715 19.563z"/><path d="m87.822 369.737c36.391 30.568 83.326 48.989 134.57 48.989v-125.786c-20.457 0-39.187-7.361-53.715-19.563z"/></g><path d="m117.539 334.321-29.717 35.415c35.195 29.563 80.252 47.762 129.531 48.927-40.92-17.865-75.584-47.372-99.814-84.342z" fill="#9dc6fb"/><path d="m468.065 421.592c17.087.115 30.905 11.938 30.905 29.053v-133.923l-30.905 6.756z" fill="#ff4654"/><path d="m329.752 353.715v98.113c17.087.116 30.905 11.938 30.905 29.053v-133.923z" fill="#ff4654"/><circle cx="329.538" cy="480.881" fill="#ff636e" r="31.119"/><circle cx="467.852" cy="450.645" fill="#ff636e" r="31.119"/><path d="m331.48 480.881c0-11.111 5.827-20.855 14.588-26.361-4.79-3.01-10.455-4.758-16.53-4.758-17.186 0-31.119 13.932-31.119 31.119 0 17.186 13.932 31.119 31.119 31.119 6.075 0 11.74-1.747 16.53-4.758-8.761-5.505-14.588-15.25-14.588-26.361z" fill="#ff4654"/><path d="m469.793 450.645c0-11.111 5.828-20.855 14.588-26.361-4.79-3.01-10.455-4.758-16.53-4.758-17.186 0-31.119 13.932-31.119 31.119 0 17.186 13.932 31.119 31.119 31.119 6.075 0 11.74-1.747 16.53-4.758-8.76-5.506-14.588-15.25-14.588-26.361z" fill="#ff4654"/><path d="m488.454 257.269-151.887 33.204c-3.979.87-6.815 4.393-6.815 8.466v56.837l169.219-36.993v-53.048c-.001-5.532-5.113-9.647-10.517-8.466z" fill="#ff636e"/><path d="m385.381 288.291c0-3.632 1.507-6.966 3.974-9.359l-52.788 11.54c-3.979.87-6.815 4.393-6.815 8.466v56.837l55.63-12.161v-55.323z" fill="#ff4654"/><path d="m222.392 124.755c-46.653 0-84.607 37.955-84.607 84.607s37.955 84.608 84.607 84.608 84.608-37.955 84.608-84.608-37.955-84.607-84.608-84.607zm0 130.725c-25.429 0-46.118-20.688-46.118-46.118s20.688-46.118 46.118-46.118 46.118 20.688 46.118 46.118-20.688 46.118-46.118 46.118z" fill="#8479c2"/><g><path d="m179.876 227.225c-2.318-5.497-3.602-11.533-3.602-17.863s1.284-12.366 3.602-17.863c6.819-31.593 31.325-56.666 62.604-64.315-6.443-1.575-13.167-2.43-20.088-2.43-46.653 0-84.607 37.955-84.607 84.607s37.955 84.608 84.607 84.608c6.922 0 13.645-.854 20.088-2.43-31.279-7.647-55.785-32.721-62.604-64.314z" fill="#6e60b8"/></g></g></svg>