<svg id="Layer_1" enable-background="new 0 0 512 512" height="512" viewBox="0 0 512 512" width="512" xmlns="http://www.w3.org/2000/svg"><g><path d="m471.166 495.586-58.527-318.339c-1.213-6.597-6.964-11.387-13.671-11.387h-285.935c-6.708 0-12.459 4.79-13.671 11.387l-58.528 318.339c-1.57 8.54 4.987 16.414 13.671 16.414h402.989c8.684 0 15.242-7.874 13.672-16.414z" fill="#ff636e"/><path d="m94.918 495.586 58.528-318.339c1.212-6.597 6.963-11.387 13.671-11.387h-54.084c-6.708 0-12.459 4.79-13.671 11.387l-58.528 318.339c-1.57 8.54 4.987 16.414 13.671 16.414h54.084c-8.683 0-15.241-7.874-13.671-16.414z" fill="#ff4654"/><path d="m372.413 294.788-55.566-27.269c-6.547-3.213-13.743-4.883-21.036-4.883-11.542 0-68.081 0-79.623 0-7.293 0-14.489 1.67-21.036 4.883l-55.566 27.269c-3.195 1.568-4.452 5.474-2.771 8.611l20.236 37.757c1.526 2.847 4.961 4.074 7.945 2.838l24.777-10.265c4.138-1.714 8.691 1.327 8.691 5.807v96.79c0 5.347 4.334 9.681 9.681 9.681h95.707c5.347 0 9.681-4.334 9.681-9.681v-96.79c0-4.479 4.552-7.521 8.691-5.807l24.777 10.265c2.984 1.236 6.42.009 7.945-2.838l20.236-37.757c1.684-3.137.427-7.043-2.769-8.611z" fill="#ffe07d"/><path d="m229.548 436.035v-92.189c0-5.778-4.684-10.462-10.462-10.462h-25.629c2.766.582 5.007 3.009 5.007 6.151v96.79c0 5.347 4.334 9.681 9.681 9.681h25.475c-4.802-5.022-4.072-9.971-4.072-9.971z" fill="#ffc250"/><path d="m198.465 351.151h115.07v37.96h-115.07z" fill="#ffc250"/><path d="m198.465 351.151h31.083v37.96h-31.083z" fill="#ebb044"/><path d="m256 302.798c21.144 0 37.324-19.112 33.534-40.162-16.041 0-51.027 0-67.068 0-3.78 20.993 12.332 40.162 33.534 40.162z" fill="#ffc250"/><path d="m251.054 262.636c-11.035 0-21.606 0-28.587 0-3.78 20.993 12.331 40.162 33.534 40.162 5.129 0 9.96-1.132 14.291-3.136-13.541-6.266-22.103-21.118-19.238-37.026z" fill="#ebb044"/><g><path d="m358.683 223.909c-8.534 0-15.453-6.918-15.453-15.453v-90.321c0-48.099-39.132-87.23-87.23-87.23s-87.23 39.131-87.23 87.23v90.321c0 8.534-6.918 15.453-15.453 15.453-8.534 0-15.453-6.918-15.453-15.453v-90.321c.001-65.14 52.996-118.135 118.136-118.135s118.135 52.995 118.135 118.135v90.321c0 8.534-6.918 15.453-15.452 15.453z" fill="#f9f6f9"/></g><g><path d="m271.71 1.047c-5.141-.686-10.384-1.047-15.71-1.047-65.14 0-118.135 52.995-118.135 118.135v90.321c0 8.534 6.918 15.453 15.453 15.453 8.534 0 15.453-6.918 15.453-15.453v-90.321c0-6.206.663-12.258 1.901-18.101 7.947-51.469 49.239-92.073 101.038-98.987z" fill="#cbe2ff"/></g></g></svg>