<svg id="Layer_1" enable-background="new 0 0 512 512" height="512" viewBox="0 0 512 512" width="512" xmlns="http://www.w3.org/2000/svg"><g><path d="m8.575 48.442h-8.575v443.604c0 8.823 7.153 15.977 15.977 15.977h443.604l-1.591-13.148zm285.631 378.941h-208.558c-2.766 0-5.008-2.242-5.008-5.008v-208.558c0-4.462 5.394-6.696 8.549-3.541l208.558 208.558c3.154 3.155.92 8.549-3.541 8.549z" fill="#80b4fb"/><g><path d="m40.735 492.046v-411.658l-32.16-31.946h-8.575v443.604c0 8.823 7.153 15.977 15.977 15.977h40.735c-8.824 0-15.977-7.154-15.977-15.977z" fill="#61a2f9"/></g><g><path d="m459.581 508.023h2.824c14.234 0 21.362-17.209 11.298-27.275l-446.428-446.428c-10.066-10.065-27.275-2.936-27.275 11.298v2.824z" fill="#9dc6fb"/></g><path d="m27.275 34.32c-10.065-10.064-27.273-2.937-27.275 11.296v2.826l40.735 40.735v-41.397z" fill="#80b4fb"/><g fill="#0094fd"><path d="m138.749 508.023v-18.571c0-4.268-3.459-7.726-7.726-7.726s-7.726 3.459-7.726 7.726v18.571z"/><path d="m335.352 481.726c-4.267 0-7.726 3.459-7.726 7.726v18.571h15.453v-18.571c-.001-4.267-3.46-7.726-7.727-7.726z"/><path d="m294.486 481.726c-4.267 0-7.726 3.459-7.726 7.726v18.571h15.453v-18.571c-.001-4.267-3.46-7.726-7.727-7.726z"/><path d="m376.218 481.726c-4.267 0-7.726 3.459-7.726 7.726v18.571h15.453v-18.571c-.001-4.267-3.46-7.726-7.727-7.726z"/><path d="m49.291 481.726c-4.267 0-7.726 3.459-7.726 7.726v18.571h15.453v-18.571c-.001-4.267-3.46-7.726-7.727-7.726z"/><path d="m261.347 489.452c0-4.268-3.459-7.726-7.726-7.726s-7.726 3.459-7.726 7.726v18.571h15.453v-18.571z"/><path d="m179.615 489.452c0-4.268-3.459-7.726-7.726-7.726s-7.726 3.459-7.726 7.726v18.571h15.453v-18.571z"/><path d="m97.883 489.452c0-4.268-3.459-7.726-7.726-7.726s-7.726 3.459-7.726 7.726v18.571h15.453v-18.571z"/><path d="m220.481 489.452c0-4.268-3.459-7.726-7.726-7.726s-7.726 3.459-7.726 7.726v18.571h15.453v-18.571z"/></g><path d="m194.288 8.073-65.218 65.218c-5.462 5.462-5.462 14.317 0 19.778l293.837 293.837c5.462 5.462 14.317 5.462 19.778 0l65.218-65.218c5.462-5.462 5.462-14.317 0-19.778l-293.836-293.837c-5.462-5.461-14.317-5.461-19.779 0z" fill="#ffd064"/><path d="m448.743 365.876-298.642-298.642c-2.978-2.978-4.343-6.949-4.125-10.848l-16.906 16.905c-5.462 5.462-5.462 14.317 0 19.778l293.837 293.837c5.461 5.462 14.317 5.462 19.778 0l16.905-16.905c-3.898.218-7.868-1.147-10.847-4.125z" fill="#ffc250"/><path d="m194.763 158.762 13.131-13.131c3.018-3.017 3.018-7.909 0-10.927-3.017-3.017-7.909-3.017-10.927 0l-13.131 13.131z" fill="#ebb044"/><path d="m370.346 308.084-13.131 13.131 10.927 10.927 13.13-13.13c3.018-3.018 3.018-7.909 0-10.928-3.016-3.016-7.909-3.016-10.926 0z" fill="#ebb044"/><path d="m165.866 129.865 13.132-13.132c3.018-3.017 3.018-7.909 0-10.927-3.017-3.017-7.909-3.017-10.927 0l-13.132 13.132z" fill="#ebb044"/><path d="m341.449 279.187-13.131 13.131 10.927 10.927 13.13-13.13c3.018-3.018 3.018-7.909 0-10.928-3.016-3.017-7.908-3.017-10.926 0z" fill="#ebb044"/><path d="m399.242 336.98-13.131 13.131 10.927 10.927 13.13-13.13c3.018-3.018 3.018-7.909 0-10.928-3.016-3.016-7.908-3.016-10.926 0z" fill="#ebb044"/><path d="m254.761 192.497-13.131 13.131 10.927 10.927 13.131-13.131c3.018-3.018 3.018-7.909 0-10.928-3.018-3.015-7.91-3.015-10.927.001z" fill="#ebb044"/><path d="m225.864 163.6-13.131 13.131 10.927 10.927 13.131-13.131c3.018-3.017 3.018-7.909 0-10.927-3.018-3.017-7.91-3.017-10.927 0z" fill="#ebb044"/><path d="m283.657 221.393-13.131 13.131 10.927 10.927 13.131-13.131c3.018-3.018 3.018-7.909 0-10.928-3.018-3.015-7.91-3.015-10.927.001z" fill="#ebb044"/><path d="m312.553 250.29-13.131 13.131 10.927 10.927 13.13-13.13c3.018-3.018 3.018-7.909 0-10.928-3.016-3.016-7.909-3.016-10.926 0z" fill="#ebb044"/><path d="m183.479 18.882 313.615 313.615 10.809-10.809c5.461-5.461 5.461-14.313.003-19.775l-293.843-293.843c-5.462-5.458-14.314-5.457-19.775.003z" fill="#ffe07d"/></g></svg>