<svg id="Layer_1" enable-background="new 0 0 511.999 511.999" height="512" viewBox="0 0 511.999 511.999" width="512" xmlns="http://www.w3.org/2000/svg"><g><path d="m239.075 30.17v71.712c5.581-.521 11.223-.802 16.925-.802 5.698 0 11.337.281 16.913.801v-71.711z" fill="#cbe2ff"/><path d="m255.994 30.17h-16.919v71.712c5.579-.521 11.219-.802 16.919-.802z" fill="#9dc6fb"/><path d="m50.753 2.101c-7.491 4.325-10.058 13.904-5.733 21.396l8.71 15.086 5.443 1.503 21.685-13.392v-3.774l-8.71-15.086c-4.325-7.491-13.904-10.058-21.395-5.733z" fill="#f9f6f9"/><path d="m60.129 19.204c-3.577-6.196-2.429-13.812 2.311-18.711-3.819-.971-8.004-.518-11.687 1.608-7.491 4.325-10.058 13.904-5.733 21.396l8.71 15.086 5.443 1.503 9.592-5.924z" fill="#cbe2ff"/><path d="m461.247 2.101c-7.491-4.325-17.071-1.758-21.396 5.733l-8.71 15.086v7.25l21.685 10.559 5.443-2.147 8.71-15.086c4.326-7.491 1.759-17.07-5.732-21.395z" fill="#f9f6f9"/><path d="m444.276 30.647 8.71-15.086c2.963-5.132 8.391-7.95 13.925-7.827-1.327-2.262-3.23-4.227-5.664-5.632-7.491-4.325-17.071-1.758-21.396 5.733l-8.71 15.086v7.25l13.135 6.396z" fill="#cbe2ff"/><path d="m367.326 133.451 1.467 5.059 16.483 14.958h6.665l20.74-35.923-27.129-15.662z" fill="#f9f6f9"/><path d="m378.318 147.154 21.412-37.086-14.178-8.185-18.226 31.568 1.467 5.059z" fill="#cbe2ff"/><path d="m99.319 117.545 20.74 35.923h4.025l20.589-16.803v-3.214l-18.226-31.568z" fill="#f9f6f9"/><path d="m113.317 109.463-13.998 8.082 20.74 35.923h4.025l9.95-8.121z" fill="#cbe2ff"/><path d="m383.741 477.692-11.497-23.286-4.91-1.091-35.627 21.29-.971 3.145 10.365 20.994c5.813 11.774 20.071 16.606 31.845 10.793 11.775-5.813 16.608-20.07 10.795-31.845z" fill="#f9f6f9"/><path d="m358.88 482.479-9.193-18.619-17.981 10.745-.971 3.145 10.365 20.994c5.813 11.774 20.071 16.606 31.845 10.793 6.102-3.012 10.333-8.295 12.191-14.322-10.384 2.212-21.34-2.779-26.256-12.736z" fill="#cbe2ff"/><path d="m139.756 454.406-11.497 23.286c-5.813 11.775-.98 26.032 10.794 31.845s26.032.981 31.845-10.793l10.365-20.993v-4.991l-36.833-19.96z" fill="#f9f6f9"/><path d="m152.607 480.611 9.107-18.445-17.284-9.366-4.674 1.607-11.497 23.286c-5.813 11.775-.98 26.032 10.794 31.845 6.619 3.268 14.023 3.172 20.27.369-8.737-6.785-11.804-18.991-6.716-29.296z" fill="#cbe2ff"/><g><g><path d="m256 492.504c-108.531 0-196.827-88.296-196.827-196.827s88.296-196.827 196.827-196.827 196.827 88.296 196.827 196.827-88.296 196.827-196.827 196.827z" fill="#ff636e"/></g></g><path d="m107.977 295.677c0-100.269 75.367-183.26 172.425-195.315-7.998-.993-16.14-1.512-24.402-1.512-108.531 0-196.827 88.296-196.827 196.827s88.296 196.827 196.827 196.827c8.262 0 16.405-.518 24.402-1.512-97.058-12.055-172.425-95.046-172.425-195.315z" fill="#ff4654"/><circle cx="256" cy="295.677" fill="#f9f6f9" r="162.988"/><path d="m141.816 295.677c0-81.58 60.248-149.35 138.586-161.161-7.962-1.201-16.11-1.827-24.402-1.827-89.872 0-162.989 73.116-162.989 162.989s73.116 162.988 162.989 162.988c8.292 0 16.44-.627 24.402-1.827-78.338-11.812-138.586-79.581-138.586-161.162z" fill="#cbe2ff"/><g><path d="m255.994 157.018c-4.267 0-7.726-3.459-7.726-7.726v-15.572c0-4.267 3.459-7.726 7.726-7.726s7.726 3.459 7.726 7.726v15.572c0 4.267-3.459 7.726-7.726 7.726z" fill="#9dc6fb"/></g><g><path d="m255.994 465.362c-4.267 0-7.726-3.459-7.726-7.726v-15.572c0-4.268 3.459-7.726 7.726-7.726s7.726 3.459 7.726 7.726v15.572c0 4.267-3.459 7.726-7.726 7.726z" fill="#9dc6fb"/></g><g><path d="m176.11 172.767-7.786-13.486c-2.134-3.696-.867-8.421 2.828-10.554 3.695-2.134 8.421-.868 10.554 2.828l7.786 13.486c2.134 3.696.867 8.421-2.828 10.554s-8.421.868-10.554-2.828z" fill="#9dc6fb"/></g><g><path d="m330.282 439.801-7.786-13.486c-2.134-3.695-.868-8.421 2.828-10.554 3.695-2.132 8.421-.868 10.554 2.828l7.786 13.486c2.134 3.695.868 8.42-2.828 10.554-3.696 2.133-8.421.867-10.554-2.828z" fill="#9dc6fb"/></g><g><path d="m125.356 229.175-13.486-7.786c-3.695-2.134-4.962-6.859-2.828-10.554 2.133-3.696 6.859-4.961 10.554-2.828l13.486 7.786c3.695 2.134 4.962 6.859 2.828 10.554-2.131 3.695-6.856 4.962-10.554 2.828z" fill="#9dc6fb"/></g><g><path d="m392.391 383.347-13.486-7.786c-3.695-2.134-4.962-6.859-2.828-10.554 2.133-3.696 6.859-4.961 10.554-2.828l13.486 7.786c3.695 2.134 4.962 6.859 2.828 10.554-2.132 3.695-6.857 4.962-10.554 2.828z" fill="#9dc6fb"/></g><g><path d="m109.608 303.403h-15.573c-4.267 0-7.726-3.459-7.726-7.726 0-4.268 3.459-7.726 7.726-7.726h15.572c4.267 0 7.726 3.459 7.726 7.726.001 4.267-3.458 7.726-7.725 7.726z" fill="#9dc6fb"/></g><g><path d="m417.952 303.403h-15.572c-4.267 0-7.726-3.459-7.726-7.726 0-4.268 3.459-7.726 7.726-7.726h15.572c4.267 0 7.726 3.459 7.726 7.726.001 4.267-3.459 7.726-7.726 7.726z" fill="#9dc6fb"/></g><g><path d="m109.043 380.519c-2.134-3.695-.867-8.42 2.828-10.554l13.486-7.786c3.695-2.132 8.421-.868 10.554 2.828 2.134 3.695.867 8.42-2.828 10.554l-13.486 7.786c-3.697 2.134-8.421.867-10.554-2.828z" fill="#9dc6fb"/></g><g><path d="m376.077 226.347c-2.134-3.695-.867-8.42 2.828-10.554l13.486-7.786c3.696-2.132 8.42-.868 10.554 2.828 2.134 3.695.867 8.42-2.828 10.554l-13.486 7.786c-3.696 2.134-8.421.867-10.554-2.828z" fill="#9dc6fb"/></g><g><path d="m171.151 442.629c-3.696-2.134-4.962-6.859-2.828-10.554l7.786-13.486c2.134-3.696 6.859-4.961 10.554-2.828 3.696 2.134 4.962 6.859 2.828 10.554l-7.786 13.486c-2.133 3.695-6.857 4.961-10.554 2.828z" fill="#9dc6fb"/></g><g><path d="m325.324 175.595c-3.695-2.133-4.962-6.859-2.828-10.554l7.786-13.486c2.134-3.696 6.859-4.963 10.554-2.828 3.695 2.133 4.962 6.859 2.828 10.554l-7.786 13.486c-2.134 3.695-6.859 4.962-10.554 2.828z" fill="#9dc6fb"/></g><g><path d="m66.628 29.598c-44.177 25.505-59.367 82.195-33.861 126.371l160.232-92.51c-25.505-44.177-82.195-59.367-126.371-33.861z" fill="#ff636e"/></g><path d="m72.555 26.458c-1.997.969-3.975 2.013-5.928 3.14-44.176 25.505-59.366 82.195-33.861 126.371l28.064-16.203c-18.236-37.648-12.684-81.547 11.725-113.308z" fill="#ff4654"/><g><path d="m445.372 29.598c44.176 25.505 59.366 82.195 33.861 126.371l-160.233-92.51c25.506-44.177 82.196-59.367 126.372-33.861z" fill="#ff636e"/></g><path d="m449.042 31.836c-1.201-.769-2.422-1.518-3.67-2.238-44.176-25.506-100.866-10.316-126.372 33.861l26.229 15.143c23.611-34.386 64.154-51.565 103.813-46.766z" fill="#ff4654"/><g><path d="m281.033 0h-50.066c-4.628 0-8.38 3.752-8.38 8.38v17.078c0 4.628 3.752 8.38 8.38 8.38h50.066c4.628 0 8.38-3.751 8.38-8.38v-17.078c0-4.628-3.752-8.38-8.38-8.38z" fill="#f9f6f9"/></g><path d="m248.761 25.458v-17.078c0-4.628 3.752-8.38 8.38-8.38h-26.175c-4.628 0-8.38 3.752-8.38 8.38v17.078c0 4.628 3.752 8.38 8.38 8.38h26.175c-4.628 0-8.38-3.751-8.38-8.38z" fill="#cbe2ff"/><g><path d="m256 466.392c-94.132 0-170.715-76.583-170.715-170.715s76.582-170.714 170.715-170.714 170.715 76.582 170.715 170.714-76.583 170.715-170.715 170.715zm0-325.977c-85.612 0-155.262 69.65-155.262 155.262s69.65 155.263 155.262 155.263 155.262-69.651 155.262-155.263c0-85.611-69.651-155.262-155.262-155.262z" fill="#ff7f87"/></g><path d="m256 175.303c-8.534 0-15.453 6.918-15.453 15.453v80.962l.596.973h28.968l1.341-.973v-80.962c0-8.534-6.918-15.453-15.452-15.453z" fill="#ff636e"/><path d="m256 190.756c0-5.716 3.112-10.695 7.726-13.368-2.275-1.318-4.908-2.084-7.726-2.084-8.534 0-15.453 6.918-15.453 15.453v80.962l.596.973h15.453l-.596-.974z" fill="#ff4654"/><path d="m256 321.452-23.876-12.748h-1.489l-32.526 56.333c-4.268 7.391-1.735 16.841 5.656 21.109 7.39 4.268 16.841 1.736 21.109-5.655l32.52-56.322z" fill="#6e60b8"/><path d="m214.086 366.859 29.916-51.813-11.879-6.343h-1.489l-32.526 56.333c-4.268 7.391-1.735 16.841 5.656 21.109 3.698 2.135 7.911 2.568 11.734 1.542-4.513-5.835-5.329-14.045-1.412-20.828z" fill="#6353b2"/><path d="m265.991 268.962c-9.225 5.341-15.452 15.31-15.452 26.716 0 11.405 6.226 21.374 15.452 26.716 10.815-4.058 18.534-14.501 18.534-26.716.001-12.216-7.718-22.658-18.534-26.716z" fill="#cbe2ff"/><path d="m251.876 295.677c0-11.366 6.683-21.197 16.325-25.779-3.701-1.759-7.838-2.747-12.201-2.747-15.73 0-28.526 12.797-28.526 28.526s12.797 28.526 28.526 28.526c4.363 0 8.5-.988 12.201-2.747-9.642-4.581-16.325-14.413-16.325-25.779z" fill="#9dc6fb"/><g><g><path d="m19.607 163.567c-2.134-3.696-.868-8.421 2.828-10.554l173.17-99.98c3.696-2.135 8.42-.868 10.554 2.828s.868 8.421-2.828 10.554l-173.17 99.98c-3.695 2.134-8.421.868-10.554-2.828z" fill="#ff7f87"/></g></g><g><g><path d="m481.838 166.395-173.169-99.98c-3.696-2.133-4.962-6.859-2.828-10.554 2.133-3.695 6.858-4.963 10.554-2.828l173.17 99.98c3.696 2.133 4.962 6.859 2.828 10.554-2.134 3.696-6.859 4.962-10.555 2.828z" fill="#ff7f87"/></g></g></g></svg>