<svg id="Layer_1" enable-background="new 0 0 511.999 511.999" height="512" viewBox="0 0 511.999 511.999" width="512" xmlns="http://www.w3.org/2000/svg"><g><path d="m67.123 431.767-8.322 4.939v62.386c0 7.099 5.808 12.908 12.907 12.908h55.933c7.099 0 12.908-5.808 12.908-12.908v-62.386l-7.941-4.939z" fill="#8479c2"/><path d="m99.314 499.092v-62.386l8.322-4.939h-40.513l-8.322 4.939v62.386c0 7.099 5.808 12.908 12.907 12.908h40.512c-7.097-.001-12.906-5.809-12.906-12.908z" fill="#6e60b8"/><path d="m448.46 431.767h-68.507l-8.503 4.939v62.386c0 7.099 5.808 12.908 12.907 12.908h55.933c7.099 0 12.907-5.808 12.907-12.908v-62.386z" fill="#8479c2"/><path d="m411.963 499.092v-62.386l8.503-4.939h-40.512l-8.503 4.939v62.386c0 7.099 5.808 12.908 12.907 12.908h40.512c-7.099-.001-12.907-5.809-12.907-12.908z" fill="#6e60b8"/><g><path d="m461.425 174.132c-4.267 0-7.726-3.459-7.726-7.726v-36.918c0-2.984-2.428-5.412-5.412-5.412h-27.222c-4.267 0-7.726-3.459-7.726-7.726s3.459-7.726 7.726-7.726h27.222c11.505 0 20.865 9.36 20.865 20.865v36.918c-.001 4.266-3.46 7.725-7.727 7.725z" fill="#cbe2ff"/></g><g><path d="m50.574 178.253c-4.267 0-7.726-3.459-7.726-7.726v-41.039c0-11.505 9.36-20.865 20.866-20.865h27.222c4.267 0 7.726 3.459 7.726 7.726s-3.459 7.726-7.726 7.726h-27.222c-2.985 0-5.413 2.428-5.413 5.412v41.039c0 4.267-3.46 7.727-7.727 7.727z" fill="#cbe2ff"/></g><path d="m425.281 87.989h-339.443l-4.174 3.483v167.543l7.093 5.949h31.122l40.304-34.425h182.169l46.615 32.708h37.859l3.509-4.232v-167.543z" fill="#80b4fb"/><g><path d="m147.457 91.472 4.174-3.483h-65.793l-4.174 3.483v167.543l7.093 5.949h31.122l27.578-23.555z" fill="#61a2f9"/></g><path d="m479.606 159.194h-36.364c-7.099 0-12.908 5.809-12.908 12.908v41.591c0 7.099 5.808 12.908 12.908 12.908h36.364c7.099 0 12.908-5.808 12.908-12.908v-41.591c0-7.099-5.808-12.908-12.908-12.908z" fill="#f9f6f9"/><path d="m32.393 159.194h36.364c7.099 0 12.908 5.809 12.908 12.908v41.591c0 7.099-5.808 12.908-12.908 12.908h-36.364c-7.099 0-12.907-5.808-12.907-12.908v-41.591c-.001-7.099 5.808-12.908 12.907-12.908z" fill="#f9f6f9"/><path d="m461.425 213.693v-41.591c0-7.099 5.808-12.908 12.908-12.908h-31.089c-7.099 0-12.907 5.809-12.907 12.908v41.591c0 7.099 5.808 12.908 12.907 12.908h31.089c-7.1-.001-12.908-5.809-12.908-12.908z" fill="#cbe2ff"/><path d="m50.575 213.693v-41.591c0-7.099 5.808-12.908 12.907-12.908h-31.089c-7.099 0-12.908 5.809-12.908 12.908v41.591c0 7.099 5.808 12.908 12.908 12.908h31.089c-7.099-.001-12.907-5.809-12.907-12.908z" fill="#cbe2ff"/><path d="m268.05 87.989h-24.08l-2.67 3.799v134.812l3.185 3.939h23.179l3.036-3.939v-134.812z" fill="#8479c2"/><path d="m256 91.788 2.67-3.799h-14.7l-2.67 3.799v134.812l3.185 3.939h14.7l-3.185-3.939z" fill="#6e60b8"/><path d="m428.131 258.952h-36.011l-3.153 4.296v137.013h70.567l9.016-4.429v-96.461c0-22.231-18.188-40.419-40.419-40.419z" fill="#ffc250"/><path d="m430.861 259.055c-.903-.061-1.812-.103-2.73-.103h-36.011l-3.153 4.296v137.013h41.894z" fill="#ebb044"/><path d="m119.879 258.952h-36.01c-22.23 0-40.419 18.188-40.419 40.419v96.461l3.757 4.429h78.036v-135.297z" fill="#ffc250"/><path d="m85.343 299.371c0-20.353 15.249-37.308 34.885-40.028l-.349-.391h-36.01c-22.23 0-40.419 18.188-40.419 40.419v96.461l3.757 4.429h41.893l-3.757-4.429z" fill="#ebb044"/><path d="m388.191 0h-66.399l-7.77 5.189h-118.728l-5.087-5.189h-66.399c-23.275 0-42.144 18.869-42.144 42.144v20.561l4.002 5.324h340.645l4.024-5.324v-20.561c0-23.275-18.868-42.144-42.144-42.144z" fill="#ffc250"/><path d="m147.457 39.839c0-17.055 8.549-31.927 21.228-39.839h-44.877c-23.275 0-42.144 18.869-42.144 42.144v20.561l4.002 5.324h65.792l-4.002-3.738v-24.452z" fill="#ebb044"/><path d="m190.207 0v62.388l3.8 5.641h122.848l4.937-5.641v-62.388z" fill="#8479c2"/><circle cx="430.743" cy="330.312" fill="#80b4fb" r="37.807"/><circle cx="81.256" cy="330.312" fill="#80b4fb" r="37.807"/><path d="m424.614 330.312c0-15.223 9.002-28.335 21.968-34.328-4.819-2.227-10.181-3.479-15.839-3.479-20.88 0-37.807 16.926-37.807 37.806s16.927 37.807 37.807 37.807c5.658 0 11.02-1.251 15.839-3.479-12.966-5.992-21.968-19.104-21.968-34.327z" fill="#61a2f9"/><path d="m75.127 330.312c0-15.223 9.002-28.335 21.968-34.328-4.819-2.227-10.181-3.479-15.839-3.479-20.88 0-37.807 16.926-37.807 37.806s16.927 37.807 37.807 37.807c5.658 0 11.02-1.251 15.839-3.479-12.966-5.992-21.968-19.104-21.968-34.327z" fill="#61a2f9"/><g><path d="m284.773 39.28h-57.546c-4.267 0-7.726-3.459-7.726-7.726s3.459-7.726 7.726-7.726h57.546c4.267 0 7.726 3.459 7.726 7.726s-3.459 7.726-7.726 7.726z" fill="#6e60b8"/></g><path d="m427.741 62.388h-282.286c-4.78 1.379-8.28 5.779-8.28 11.003v7.394c0 5.224 3.5 9.624 8.28 11.003h282.286c6.139 0 11.115-4.976 11.115-11.114v-7.171c0-6.138-4.977-11.115-11.115-11.115z" fill="#ffe07d"/><path d="m138.936 80.674v-7.171c0-6.138 4.976-11.114 11.114-11.114h-65.792c-6.138 0-11.114 4.976-11.114 11.114v7.171c0 6.138 4.976 11.114 11.114 11.114h65.793c-6.139 0-11.115-4.976-11.115-11.114z" fill="#ffc250"/><path d="m352.517 226.6h-193.034c-22.23 0-40.419 18.188-40.419 40.419v128.812l4.719 6.403h251.363l17.791-6.403v-128.811c-.001-22.231-18.189-40.42-40.42-40.42z" fill="#ffc250"/><path d="m159.927 267.02c0-22.231 18.189-40.419 40.419-40.419h-40.864c-22.23 0-40.419 18.188-40.419 40.419v128.812l4.719 6.403h40.864l-4.719-6.403z" fill="#ebb044"/><g><path d="m239.417 272.69h-79.417c-4.267 0-7.726-3.459-7.726-7.726s3.459-7.726 7.726-7.726h79.417c4.267 0 7.726 3.459 7.726 7.726s-3.459 7.726-7.726 7.726z" fill="#ebb044"/></g><g><path d="m239.417 302.629h-79.417c-4.267 0-7.726-3.459-7.726-7.726 0-4.268 3.459-7.726 7.726-7.726h79.417c4.267 0 7.726 3.459 7.726 7.726.001 4.267-3.459 7.726-7.726 7.726z" fill="#ebb044"/></g><g><path d="m239.417 332.567h-79.417c-4.267 0-7.726-3.459-7.726-7.726s3.459-7.726 7.726-7.726h79.417c4.267 0 7.726 3.459 7.726 7.726s-3.459 7.726-7.726 7.726z" fill="#ebb044"/></g><g><path d="m352 272.69h-79.417c-4.267 0-7.726-3.459-7.726-7.726s3.459-7.726 7.726-7.726h79.417c4.267 0 7.726 3.459 7.726 7.726s-3.459 7.726-7.726 7.726z" fill="#ebb044"/></g><g><path d="m352 302.629h-79.417c-4.267 0-7.726-3.459-7.726-7.726 0-4.268 3.459-7.726 7.726-7.726h79.417c4.267 0 7.726 3.459 7.726 7.726s-3.459 7.726-7.726 7.726z" fill="#ebb044"/></g><g><path d="m352 332.567h-79.417c-4.267 0-7.726-3.459-7.726-7.726s3.459-7.726 7.726-7.726h79.417c4.267 0 7.726 3.459 7.726 7.726s-3.459 7.726-7.726 7.726z" fill="#ebb044"/></g><path d="m468.974 395.832h-425.948c-7.327 0-13.266 5.939-13.266 13.266v14.342c0 7.327 5.94 13.266 13.266 13.266h425.948c7.327 0 13.266-5.94 13.266-13.266v-14.342c-.001-7.327-5.94-13.266-13.266-13.266z" fill="#f9f6f9"/><path d="m70.272 423.44v-14.342c0-7.327 5.94-13.266 13.266-13.266h-40.512c-7.327 0-13.266 5.939-13.266 13.266v14.342c0 7.327 5.94 13.266 13.266 13.266h40.512c-7.326 0-13.266-5.94-13.266-13.266z" fill="#cbe2ff"/><path d="m317.865 357.468h-123.73c-5.634 0-10.202 4.568-10.202 10.202v26.924c0 5.634 4.567 10.202 10.202 10.202h123.73c5.634 0 10.202-4.567 10.202-10.202v-26.924c0-5.634-4.568-10.202-10.202-10.202z" fill="#cbe2ff"/><path d="m240.224 394.594v-26.924c0-5.634 4.567-10.202 10.202-10.202h-56.291c-5.634 0-10.202 4.568-10.202 10.202v26.924c0 5.634 4.567 10.202 10.202 10.202h56.291c-5.635-.001-10.202-4.568-10.202-10.202z" fill="#9dc6fb"/></g></svg>