<svg id="Layer_1" enable-background="new 0 0 512 512" height="512" viewBox="0 0 512 512" width="512" xmlns="http://www.w3.org/2000/svg"><g><path d="m202.007 112.261c-3.946-13.51-19.62-19.575-31.666-12.296-13.745 8.305-22.797 18.412-28.481 26.625l1.693 1.84 16.544-.687 6.868 8.799 31.163 68.979 53.054 61.467 23.179 13.221 6.281-3.881c-40.287-45.165-67.163-124.787-78.635-164.067z" fill="#e61e2b"/><path d="m378.971 299.512c-7.874-.305-16.201-.681-25.011-1.135-108.877-5.612-162.723-115.076-180.487-160.632-4.13-10.59-15.8-16.102-26.638-12.675-45.582 14.413-78.44 13.2-98.941 9.09-13.318-2.671-25.72 7.609-25.72 21.192v19.066c0 30.737-3.3 61.401-10.132 91.369-.464 2.034-.93 4.167-1.395 6.385l13.896 13.876v70.124l93.486 11.604h76.493l138.044 12.534 49.449-6.696v-63.114z" fill="#ff636e"/><path d="m79.517 136.871c-12.65.177-23.186-1.02-31.623-2.712-13.318-2.671-25.72 7.609-25.72 21.192v19.066c0 30.737-3.3 61.401-10.132 91.369-.464 2.034-.93 4.167-1.395 6.385l13.896 13.876v70.124l19.449 2.414c.618-10.963 2.187-25.426 5.815-42.184 8.28-38.244 17.427-139.692 17.17-159.04-.145-10.94 6.627-17.154 12.54-20.49z" fill="#ff4654"/><circle cx="146.282" cy="172.408" fill="#ff4654" r="17.213"/><path d="m456.787 300.222c-18.994.617-44.281.59-77.816-.711-6.343 15.246-11.757 39.481-3.527 70.752l8.288 6.002 72.112-10.207 47.731-15.624 6.508-6.567v-4.319c-6.38-23.255-28.005-40.147-53.296-39.326z" fill="#cbe2ff"/><path d="m414.558 300.488c-10.689-.157-22.502-.468-35.587-.976-6.343 15.246-11.757 39.481-3.527 70.752l8.288 6.002 28.691-4.061c-6.909-29.931-3.508-54.252 2.135-71.717z" fill="#9dc6fb"/><path d="m31.601 269.6c-7.228 0-14.243.9-20.953 2.572-3.471 16.551-6.895 38.254-8.935 65.218l1.198 6.864 9.615 7.555 52.539 7.726 48.762 2.404 4.166-3.789c.017-.706.038-1.411.038-2.121-.002-47.734-38.698-86.429-86.43-86.429z" fill="#ff4654"/><path d="m12.525 351.808 31.598 4.647c.696-10.679 2.286-24.357 5.685-40.053 2.287-10.564 4.64-25.955 6.844-43.101-7.931-2.398-16.337-3.701-25.051-3.701-7.228 0-14.243.9-20.953 2.572-3.471 16.551-6.895 38.254-8.935 65.218l1.198 6.864z" fill="#e61e2b"/><g><path d="m146.282 197.347c-13.752 0-24.94-11.188-24.94-24.94s11.188-24.94 24.94-24.94 24.94 11.188 24.94 24.94-11.188 24.94-24.94 24.94zm0-34.426c-5.231 0-9.487 4.256-9.487 9.487s4.256 9.487 9.487 9.487 9.487-4.256 9.487-9.487-4.255-9.487-9.487-9.487z" fill="#cbe2ff"/></g><g><path d="m296.923 324.761c-3.989-1.516-5.994-5.978-4.478-9.967l13.484-35.485c1.516-3.989 5.979-5.993 9.967-4.478 3.989 1.516 5.994 5.978 4.478 9.967l-13.484 35.485c-1.515 3.987-5.974 5.994-9.967 4.478z" fill="#f9f6f9"/></g><g><path d="m246.47 298.892c-3.322-2.678-3.844-7.542-1.166-10.864l27.678-34.332c2.679-3.323 7.543-3.844 10.864-1.166 3.322 2.678 3.844 7.542 1.166 10.864l-27.678 34.332c-2.681 3.325-7.546 3.842-10.864 1.166z" fill="#f9f6f9"/></g><g><path d="m203.459 262.47c-2.756-3.258-2.348-8.133.91-10.888l43.115-36.462c3.259-2.757 8.134-2.349 10.889.91 2.755 3.258 2.348 8.133-.91 10.888l-43.115 36.462c-3.257 2.754-8.134 2.35-10.889-.91z" fill="#f9f6f9"/></g><g><path d="m173.298 216.2c-2.041-3.747-.659-8.44 3.088-10.482l55.357-30.163c3.748-2.042 8.439-.659 10.481 3.088s.659 8.44-3.088 10.482l-55.357 30.163c-3.74 2.039-8.436.663-10.481-3.088z" fill="#f9f6f9"/></g><g><path d="m151.692 170.229c-1.414-4.026.702-8.437 4.728-9.851l62.265-21.876c4.025-1.414 8.436.702 9.851 4.728 1.414 4.026-.703 8.437-4.728 9.851l-62.265 21.876c-4.015 1.411-8.433-.692-9.851-4.728z" fill="#f9f6f9"/></g><path d="m500.999 347.218c-106.58 35.678-224.612 23.9-281.928 14.611-23.728-3.846-47.799-5.269-71.816-4.266-61.984 2.588-107.724-3.898-130.732-8.337-6.762-1.304-12.19-5.86-14.812-11.84-.822 10.857-1.421 22.561-1.705 35.135-.225 9.928 6.767 18.564 16.517 20.446 23.008 4.439 68.748 10.925 130.732 8.337 24.017-1.003 48.088.421 71.816 4.266 57.316 9.288 175.348 21.067 281.928-14.611 6.565-2.198 11.001-8.337 11.001-15.26v-21.934c0-4.926-.675-9.691-1.917-14.218-1.899 3.539-5.094 6.335-9.084 7.671z" fill="#f9f6f9"/><path d="m16.523 349.226c-6.762-1.304-12.19-5.86-14.812-11.839-.822 10.857-1.421 22.561-1.705 35.135-.225 9.928 6.767 18.564 16.517 20.446 8.273 1.596 19.499 3.456 33.347 5.064-5.351-8.287-5.9-17.089-5.9-17.089s-.954-10.277.353-27.324c-11.326-1.44-20.66-3.015-27.8-4.393z" fill="#cbe2ff"/></g></svg>