<svg id="Layer_1" enable-background="new 0 0 512 512" height="512" viewBox="0 0 512 512" width="512" xmlns="http://www.w3.org/2000/svg"><g><path d="m475.391 128.593h-43.609l-8.904 11.857v232.389l-79.667 79.411h-191.612l-10.243 7.987v34.234c0 9.68 7.848 17.528 17.528 17.528h251.279l82.756-82.756v-283.122c0-9.681-7.847-17.528-17.528-17.528z" fill="#ffafe2"/><g><path d="m196.632 494.472v-34.234l10.243-7.987h-55.277l-10.243 7.987v34.234c0 9.68 7.848 17.528 17.528 17.528h55.277c-9.68 0-17.528-7.848-17.528-17.528z" fill="#ff94d5"/></g><path d="m492.919 429.244h-65.228c-9.68 0-17.528 7.848-17.528 17.528v65.228z" fill="#ff94d5"/><path d="m414.254 76.83h-43.609l-10.95 16.488v226.978l-80.354 80.445h-193.674l-5.449 7.733v34.234c0 9.68 7.847 17.528 17.528 17.528h251.28l82.756-82.756v-283.122c0-9.681-7.848-17.528-17.528-17.528z" fill="#80b4fb"/><g><path d="m135.495 442.709v-34.234l5.449-7.733h-55.277l-5.449 7.733v34.234c0 9.68 7.847 17.528 17.528 17.528h55.277c-9.681 0-17.528-7.848-17.528-17.528z" fill="#61a2f9"/></g><path d="m431.782 377.481h-65.228c-9.68 0-17.528 7.848-17.528 17.528v65.228z" fill="#61a2f9"/><path d="m353.116 25.067h-124.815l-4.247 3.435h-59.578l-3.052-3.435h-124.815c-9.681 0-17.528 7.847-17.528 17.528v348.351c0 9.681 7.847 17.528 17.528 17.528h251.279l1.668-5.501 24.595-23.747h2.985l53.508-53.508v-283.123c0-9.68-7.847-17.528-17.528-17.528z" fill="#f9f6f9"/><g><path d="m74.358 390.946v-348.351c0-9.681 7.847-17.528 17.528-17.528h-55.277c-9.681 0-17.528 7.847-17.528 17.528v348.351c0 9.681 7.847 17.528 17.528 17.528h55.277c-9.681 0-17.528-7.847-17.528-17.528z" fill="#cbe2ff"/></g><circle cx="194.863" cy="34.838" fill="#ffd064" r="34.838"/><path d="m190.415 34.838c0-13.792 8.016-25.711 19.643-31.355-4.593-2.23-9.747-3.483-15.195-3.483-19.24 0-34.838 15.597-34.838 34.838s15.597 34.838 34.838 34.838c5.448 0 10.603-1.253 15.195-3.482-11.627-5.646-19.643-17.564-19.643-31.356z" fill="#ffc250"/><path d="m252.595 124.806c-14.516-14.303-37.986-13.884-52.396.526l-3.758 3.757c-.872.872-2.287.872-3.159 0l-3.757-3.757c-14.41-14.41-37.88-14.828-52.396-.526-14.632 14.416-14.698 37.965-.199 52.464 2.099 2.098 42.561 42.561 54.64 54.64 1.82 1.82 4.764 1.82 6.584 0l54.64-54.64c14.499-14.5 14.433-38.048-.199-52.464z" fill="#ff94d5"/><g><path d="m167.321 177.269c-14.499-14.499-14.433-38.048.199-52.464 3.174-3.127 6.775-5.55 10.616-7.277-13.528-5.985-29.891-3.675-41.007 7.277-14.632 14.416-14.698 37.965-.199 52.464 2.099 2.098 42.561 42.561 54.64 54.64 1.82 1.82 4.764 1.82 6.584 0l11.903-11.903c-16.637-16.638-41.116-41.116-42.736-42.737z" fill="#ff72c7"/></g><path d="m314.152 379.226h2.985l53.507-53.507h-65.228c-9.68 0-17.528 7.848-17.528 17.528v65.228l1.668-5.501z" fill="#cbe2ff"/><path d="m439.411 446.772c0-9.681 7.848-17.528 17.528-17.528h-29.248c-9.68 0-17.528 7.848-17.528 17.528v65.228l29.248-29.248z" fill="#ff72c7"/><path d="m378.274 395.01c0-9.681 7.848-17.528 17.528-17.528h-29.249c-9.68 0-17.528 7.848-17.528 17.528v65.228l29.248-29.248v-35.98z" fill="#0094fd"/><path d="m317.137 343.247c0-9.681 7.848-17.528 17.528-17.528h-29.249c-9.68 0-17.528 7.848-17.528 17.528v65.228l29.249-29.248z" fill="#9dc6fb"/><g><path d="m286.986 277.032h-187.252c-4.267 0-7.726-3.459-7.726-7.726s3.459-7.726 7.726-7.726h187.252c4.267 0 7.726 3.459 7.726 7.726s-3.459 7.726-7.726 7.726z" fill="#cbe2ff"/></g><g><path d="m286.986 310.5h-187.252c-4.267 0-7.726-3.459-7.726-7.726 0-4.268 3.459-7.726 7.726-7.726h187.252c4.267 0 7.726 3.459 7.726 7.726s-3.459 7.726-7.726 7.726z" fill="#cbe2ff"/></g><g><path d="m256 343.968h-156.266c-4.267 0-7.726-3.459-7.726-7.726 0-4.268 3.459-7.726 7.726-7.726h156.266c4.267 0 7.726 3.459 7.726 7.726s-3.459 7.726-7.726 7.726z" fill="#cbe2ff"/></g></g></svg>