<svg id="Layer_1" enable-background="new 0 0 511.999 511.999" height="512" viewBox="0 0 511.999 511.999" width="512" xmlns="http://www.w3.org/2000/svg"><g><path d="m9.09 378.763h489.334l13.575-5.925v-148.688l-13.06-7.639h-486.243l-12.696 7.639v148.688z" fill="#8479c2"/><path d="m53.73 224.15 12.696-7.639h-53.73l-12.696 7.639v148.688l9.09 5.925h53.73l-9.09-5.925z" fill="#6e60b8"/><path d="m114.821 93.318h-49.448c-6.799 0-12.362 5.563-12.362 12.362v18.371l3.467 3.092h67.605l3.1-3.092v-18.371c.001-6.799-5.562-12.362-12.362-12.362z" fill="#cbe2ff"/><path d="m90.097 105.68c0-6.799 5.563-12.362 12.362-12.362h-37.086c-6.799 0-12.362 5.563-12.362 12.362v18.371l3.467 3.092h37.086l-3.467-3.092z" fill="#9dc6fb"/><path d="m0 372.838v19.778c0 14.336 11.729 26.065 26.064 26.065h459.87c14.335 0 26.064-11.729 26.064-26.065v-19.778z" fill="#f9f6f9"/><path d="m53.73 392.616v-19.778h-53.73v19.778c0 14.336 11.729 26.065 26.064 26.065h53.73c-14.335 0-26.064-11.729-26.064-26.065z" fill="#cbe2ff"/><path d="m485.935 124.051h-459.871c-14.335 0-26.064 11.729-26.064 26.064v74.035h511.999v-74.035c0-14.335-11.729-26.064-26.064-26.064z" fill="#f9f6f9"/><path d="m79.795 124.051h-53.73c-14.336 0-26.065 11.729-26.065 26.064v74.035h53.73v-74.035c0-14.335 11.729-26.064 26.065-26.064z" fill="#cbe2ff"/><path d="m467.484 157.704h-60.437c-3.793 0-6.868 3.075-6.868 6.868v20.26c0 3.793 3.075 6.868 6.868 6.868h60.437c3.793 0 6.868-3.075 6.868-6.868v-20.26c.001-3.793-3.074-6.868-6.868-6.868z" fill="#9dc6fb"/><path d="m433.47 184.832v-20.26c0-3.793 3.075-6.868 6.868-6.868h-33.29c-3.793 0-6.868 3.075-6.868 6.868v20.26c0 3.793 3.075 6.868 6.868 6.868h33.29c-3.793 0-6.868-3.075-6.868-6.868z" fill="#80b4fb"/><path d="m319.542 160.883c-11.134 0-20.651 7.044-24.336 16.908l.96 2.749 36.056 27.191h2.743c6.393-4.735 10.547-12.33 10.547-20.879 0-14.319-11.65-25.969-25.97-25.969z" fill="#8479c2"/><path d="m338.413 169.039c-4.738-5.016-11.443-8.156-18.871-8.156-11.134 0-20.651 7.044-24.336 16.908l.96 2.749 14.393 10.854c4.965-11.41 15.33-19.947 27.854-22.355z" fill="#6e60b8"/><g><path d="m256 372.838c-55.952 0-101.472-45.52-101.472-101.472s45.519-101.472 101.472-101.472 101.472 45.52 101.472 101.472-45.52 101.472-101.472 101.472z" fill="#9dc6fb"/></g><path d="m187.836 271.366c0-50.281 36.762-92.129 84.818-100.098-5.421-.899-10.983-1.374-16.655-1.374-55.952 0-101.472 45.52-101.472 101.472s45.52 101.472 101.473 101.472c5.672 0 11.234-.475 16.655-1.374-48.057-7.969-84.819-49.817-84.819-100.098z" fill="#80b4fb"/><circle cx="256" cy="271.366" fill="#80b4fb" r="70.567"/><path d="m218.741 271.366c0-33.174 23.015-61.057 53.913-68.564-5.344-1.298-10.917-2.003-16.655-2.003-38.911 0-70.567 31.656-70.567 70.567s31.656 70.567 70.567 70.567c5.737 0 11.311-.705 16.655-2.003-30.897-7.507-53.913-35.39-53.913-68.564z" fill="#61a2f9"/><circle cx="256" cy="271.366" fill="#61a2f9" r="25.97"/><path d="m258.445 271.366c0-9.078 4.686-17.078 11.762-21.723-4.086-2.681-8.966-4.247-14.208-4.247-14.32 0-25.97 11.65-25.97 25.97s11.65 25.97 25.97 25.97c5.242 0 10.122-1.566 14.208-4.247-7.076-4.644-11.762-12.645-11.762-21.723z" fill="#0094fd"/></g></svg>