<svg id="Layer_1" enable-background="new 0 0 512 512" height="512" viewBox="0 0 512 512" width="512" xmlns="http://www.w3.org/2000/svg"><g><path d="m436.635 300.571-180.635-179.999-182.855 182.028-2.357 9.156v169.781l6.586 4.754h358.584l5.254-4.754v-169.782z" fill="#ffd064"/><path d="m107.266 323.989c0-6.372 2.573-12.356 6.941-16.705l164.665-163.921-22.872-22.791-182.855 182.028-2.357 9.156v169.781l6.586 4.753h29.892z" fill="#ffc250"/><path d="m311.998 13.701h-55.998v45.082h55.998c3.759 0 6.805-3.047 6.805-6.805v-31.472c0-3.758-3.046-6.805-6.805-6.805z" fill="#ff636e"/><path d="m256 13.701h33.829v45.082h-33.829z" fill="#ff4654"/><path d="m281.192 216.425h-50.384c-6.233 0-11.286 5.053-11.286 11.286v50.384c0 6.233 5.053 11.286 11.286 11.286h50.384c6.233 0 11.286-5.053 11.286-11.286v-50.384c0-6.233-5.053-11.286-11.286-11.286z" fill="#8479c2"/><path d="m256 216.425h-25.192c-6.233 0-11.286 5.053-11.286 11.286v50.384c0 6.233 5.053 11.286 11.286 11.286h25.192z" fill="#6e60b8"/><path d="m337.688 350.637h30.463v135.653h-30.463z" fill="#cbe2ff"/><path d="m143.849 350.637h30.463v135.653h-30.463z" fill="#cbe2ff"/><path d="m337.688 350.637h15.231v135.653h-15.231z" fill="#9dc6fb"/><path d="m143.849 350.637h15.231v135.653h-15.231z" fill="#9dc6fb"/><path d="m291.34 389.459h-70.68c-4.163 0-7.538 3.375-7.538 7.538v84.54l2.611 3.062h79.498l3.647-3.062v-84.54c0-4.163-3.375-7.538-7.538-7.538z" fill="#8479c2"/><path d="m256 389.459h-35.34c-4.163 0-7.538 3.375-7.538 7.538v84.54l2.611 3.062h40.267z" fill="#6e60b8"/><g><path d="m256 113.836c-4.204 0-7.611-3.407-7.611-7.611v-98.614c0-4.204 3.407-7.611 7.611-7.611s7.611 3.407 7.611 7.611v98.613c.001 4.205-3.407 7.612-7.611 7.612z" fill="#f9f6f9"/></g><path d="m480.597 308.905-205.568-205.568c-10.509-10.509-27.548-10.509-38.057 0l-205.569 205.568c-3.573 3.573-1.043 9.683 4.011 9.683h20.65c5.053 0 9.9-2.007 13.473-5.581l180.687-180.687c3.19-3.19 8.363-3.19 11.553 0l180.687 180.687c3.573 3.573 8.42 5.581 13.473 5.581h20.649c5.054 0 7.584-6.11 4.011-9.683z" fill="#ff636e"/><g><path d="m69.537 313.007 180.687-180.687c.676-.677 1.445-1.201 2.262-1.59l9.011-9.011c6.686-6.686 16.014-9.111 24.623-7.29l-11.091-11.091c-10.509-10.509-27.548-10.509-38.057 0l-205.569 205.567c-3.573 3.573-1.043 9.683 4.011 9.683h20.65c5.053 0 9.899-2.008 13.473-5.581z" fill="#ff4654"/></g><path d="m455.166 481.537h-398.333c-2.894 0-5.24 2.346-5.24 5.24v19.982c0 2.894 2.346 5.24 5.24 5.24h398.333c2.894 0 5.241-2.346 5.241-5.24v-19.982c0-2.893-2.346-5.24-5.241-5.24z" fill="#b3e59f"/><path d="m105.38 506.76v-19.982c0-2.894 2.346-5.24 5.24-5.24h-53.787c-2.894 0-5.24 2.346-5.24 5.24v19.982c0 2.894 2.346 5.24 5.24 5.24h53.788c-2.894 0-5.241-2.346-5.241-5.24z" fill="#95d6a4"/><path d="m378.294 324.11h-190.208c-2.894 0-5.24 2.347-5.24 5.241v19.982c0 2.894 2.346 5.24 5.24 5.24h190.208c2.894 0 5.241-2.346 5.241-5.24v-19.982c0-2.894-2.347-5.241-5.241-5.241z" fill="#f9f6f9"/><path d="m186.144 349.333v-19.982c0-2.894 2.346-5.241 5.24-5.241h-57.678c-2.894 0-5.24 2.347-5.24 5.241v19.982c0 2.894 2.346 5.24 5.24 5.24h57.678c-2.894 0-5.24-2.346-5.24-5.24z" fill="#cbe2ff"/></g></svg>