<svg id="Layer_1" enable-background="new 0 0 512 512" height="512" viewBox="0 0 512 512" width="512" xmlns="http://www.w3.org/2000/svg"><g><path d="m358.32 302.619h-186.752l-31.131-35.114v-143.344l-7.829-9.497h-71.786c-26.257 0-47.739 21.483-47.739 47.739v218.5c0 26.257 21.483 47.739 47.739 47.739 11.155 0 20.198 9.043 20.198 20.198v52.611c0 10.277 13.216 14.464 19.134 6.062l45.101-64.033c6.552-9.303 17.22-14.838 28.599-14.838h157.798c26.257 0 47.739-21.483 47.739-47.739v-34.133l6.228-12.82z" fill="#80b4fb"/><path d="m124.006 428.644c-26.257 0-47.739-21.483-47.739-47.739v-218.5c0-26.256 21.483-47.739 47.739-47.739h-63.184c-26.257 0-47.739 21.483-47.739 47.739v218.5c0 26.257 21.483 47.739 47.739 47.739 11.155 0 20.198 9.043 20.198 20.198v52.611c0 10.277 13.216 14.464 19.134 6.062l43.738-62.098c-1.63-9.52-9.901-16.773-19.886-16.773z" fill="#61a2f9"/><g><path d="m132.609 279.528h-50.805c-4.267 0-7.726-3.459-7.726-7.726 0-4.268 3.459-7.726 7.726-7.726h50.805c4.267 0 7.726 3.459 7.726 7.726s-3.459 7.726-7.726 7.726z" fill="#61a2f9"/></g><g><path d="m171.568 320.882h-89.764c-4.267 0-7.726-3.459-7.726-7.726s3.459-7.726 7.726-7.726h89.764c4.267 0 7.726 3.459 7.726 7.726s-3.459 7.726-7.726 7.726z" fill="#61a2f9"/></g><g><path d="m302.428 362.236h-220.624c-4.267 0-7.726-3.459-7.726-7.726 0-4.268 3.459-7.726 7.726-7.726h220.624c4.267 0 7.726 3.459 7.726 7.726.001 4.267-3.458 7.726-7.726 7.726z" fill="#61a2f9"/></g><g><path d="m132.609 196.819h-50.805c-4.267 0-7.726-3.459-7.726-7.726 0-4.268 3.459-7.726 7.726-7.726h50.805c4.267 0 7.726 3.459 7.726 7.726s-3.459 7.726-7.726 7.726z" fill="#61a2f9"/></g><g><path d="m132.609 238.173h-50.805c-4.267 0-7.726-3.459-7.726-7.726 0-4.268 3.459-7.726 7.726-7.726h50.805c4.267 0 7.726 3.459 7.726 7.726s-3.459 7.726-7.726 7.726z" fill="#61a2f9"/></g><path d="m451.179 0h-270.83c-26.257 0-47.74 21.483-47.74 47.739v218.501c0 26.257 21.483 47.739 47.739 47.739h157.798c11.379 0 22.047 5.535 28.599 14.838l45.101 64.033c5.918 8.402 19.134 4.215 19.134-6.062v-52.611c0-11.155 9.043-20.198 20.198-20.198 26.257 0 47.739-21.483 47.739-47.739v-218.501c.001-26.256-21.482-47.739-47.738-47.739z" fill="#ffafe2"/><g fill="#ff94d5"><path d="m429.93 328.817c-6.552-9.303-17.22-14.838-28.599-14.838h-63.184c11.379 0 22.047 5.535 28.599 14.838l45.102 64.033c5.918 8.402 19.134 4.215 19.134-6.063v-52.611c0-1.17.121-2.309.312-3.424z"/><path d="m195.793 266.24v-218.501c0-26.256 21.483-47.739 47.739-47.739h-63.184c-26.257 0-47.74 21.483-47.74 47.739v218.501c0 26.257 21.483 47.739 47.739 47.739h63.184c-26.256 0-47.738-21.482-47.738-47.739z"/></g><path d="m392.653 100.082c-19.333-19.048-50.59-18.491-69.781.7l-5.004 5.004c-1.162 1.162-3.046 1.162-4.208 0l-5.004-5.004c-19.191-19.191-50.449-19.749-69.781-.7-19.487 19.2-19.575 50.562-.265 69.872l72.77 72.77c2.424 2.423 6.344 2.424 8.768 0 16.087-16.088 69.975-69.976 72.771-72.77 19.309-19.31 19.22-50.672-.266-69.872z" fill="#f9f6f9"/><g><path d="m287.714 169.954c-19.31-19.31-19.222-50.672.265-69.872 3.026-2.981 6.344-5.482 9.862-7.506-18.746-10.587-42.947-8.278-58.967 7.506-19.487 19.199-19.575 50.562-.265 69.872l72.771 72.771c2.424 2.423 6.344 2.424 8.768 0 4.454-4.454 11.807-11.807 20.168-20.168-21.843-21.843-50.581-50.582-52.602-52.603z" fill="#cbe2ff"/></g></g></svg>