<svg id="Layer_1" enable-background="new 0 0 512 512" height="512" viewBox="0 0 512 512" width="512" xmlns="http://www.w3.org/2000/svg"><g><path d="m83.242 220.282v3.294l22.299 14.294 3.786-.481 113.978-185.97c7.883-12.863 19.8-20.239 32.695-20.239s24.812 7.377 32.695 20.239l113.978 185.969 4.753.61 19.573-12.877 1.759-4.839-113.479-185.156c-13.48-21.995-35.64-35.126-59.279-35.126s-45.8 13.131-59.279 35.126z" fill="#95d6a4"/><g><path d="m83.242 223.576 12.684 8.13 115.206-187.974c12.827-20.93 31.385-36.002 52.373-43.28-2.48-.294-4.983-.452-7.505-.452-23.639 0-45.8 13.131-59.279 35.126l-113.48 185.155v3.295z" fill="#78c2a4"/></g><path d="m418.872 293.555-9.042-8.169h-307.508l-9.193 8.169v130.585c0 48.323 39.537 87.86 87.86 87.86h150.024c48.323 0 87.86-39.537 87.86-87.86v-130.585z" fill="#95d6a4"/><path d="m146.011 424.14v-130.585l9.193-8.169h-52.883l-9.193 8.169v130.585c0 48.323 39.537 87.86 87.86 87.86h52.883c-48.323 0-87.86-39.537-87.86-87.86z" fill="#78c2a4"/><path d="m377.162 232.8h-203.677c-16.5 6.596-28.389 24.252-28.389 44.864v21.751c0 33.778 15.157 63.792 38.25 82h30.631l4.583-5.888h73.143l6.321 5.888h32.989c48.323 0 87.859-39.537 87.859-87.86v-19.045c0-22.94-18.77-41.71-41.71-41.71z" fill="#b3e59f"/><path d="m146.011 299.588v-21.258c0-22.285 14.216-41.036 33.024-45.53h-44.196c-22.941 0-41.711 18.77-41.711 41.711v19.045c0 48.323 39.537 87.86 87.86 87.86h4.608c-23.803-17.596-39.585-47.752-39.585-81.828z" fill="#95d6a4"/><path d="m83.242 220.282-15.517 25.317c-4.499 7.342-2.195 16.94 5.146 21.439 7.343 4.5 16.94 2.195 21.439-5.145l15.018-24.503z" fill="#8479c2"/><path d="m72.871 267.037c.344.211.697.392 1.049.573l23.363-38.119-14.042-9.209-15.517 25.317c-4.498 7.341-2.194 16.939 5.147 21.438z" fill="#6e60b8"/><path d="m428.758 220.282-26.085 17.107 15.018 24.503c4.5 7.342 14.098 9.644 21.439 5.145s9.645-14.097 5.146-21.439z" fill="#8479c2"/><path d="m295.795 347.653c-10.006-9.859-26.183-9.57-36.116.362l-2.59 2.59c-.601.601-1.576.601-2.178 0l-2.59-2.59c-9.933-9.933-26.11-10.221-36.116-.362-10.086 9.937-10.131 26.169-.137 36.163 1.447 1.446 29.337 29.337 37.663 37.663 1.254 1.254 3.284 1.254 4.538 0 8.326-8.326 36.216-36.216 37.663-37.663 9.994-9.995 9.948-26.227-.137-36.163z" fill="#ff94d5"/><g><path d="m244.913 383.815c-9.994-9.994-9.948-26.226.137-36.163 1.072-1.056 2.218-1.988 3.416-2.812-9.9-6.676-23.465-5.855-32.261 2.812-10.085 9.937-10.131 26.169-.137 36.163 1.447 1.446 29.337 29.337 37.663 37.663 1.254 1.254 3.283 1.254 4.538 0 2.605-2.605 7.126-7.126 12.153-12.153-11.037-11.038-24.515-24.516-25.509-25.51z" fill="#ff72c7"/></g></g></svg>