<svg id="Layer_1" enable-background="new 0 0 512 512" height="512" viewBox="0 0 512 512" width="512" xmlns="http://www.w3.org/2000/svg"><g><path d="m119.148 376.213-6.909 1.165-59.948 59.948-4.569 7.222 20.089 15.952 6.179-1.476 59.948-59.947 3.925-5.351z" fill="#f9f6f9"/><path d="m128.006 384.503-8.858-8.29-6.909 1.165-59.948 59.948-4.569 7.222 11.281 8.958z" fill="#cbe2ff"/><path d="m99.975 485.009-73.402-73.401c-4.303-4.304-11.673-1.911-12.627 4.1l-13.851 87.253c-.794 5.001 3.526 9.321 8.527 8.527l87.253-13.852c6.011-.954 8.404-8.323 4.1-12.627z" fill="#ffd064"/><path d="m35.792 502.961 11.252-70.882-20.472-20.471c-4.303-4.304-11.673-1.911-12.627 4.1l-13.85 87.253c-.794 5.002 3.526 9.321 8.527 8.527l27.698-4.397c-.542-1.243-.762-2.655-.528-4.13z" fill="#ffc250"/><path d="m384.095 164.653c-2.489-2.452-5.071-4.749-7.732-6.901l-10.574 3.24-16.837-10.044v-9.183c-38.678-15.247-84.651-6.818-115.872 24.402l-10.831 10.831c-2.514 2.514-6.591 2.514-9.105 0l-10.83-10.83c-41.532-41.532-109.177-42.738-151.015-1.515-42.172 41.55-42.362 109.422-.574 151.211 6.049 6.048 122.669 122.669 157.484 157.484 5.245 5.245 13.73 5.245 18.974 0 34.817-34.815 151.437-151.435 157.486-157.483 41.788-41.79 41.597-109.662-.574-151.212z" fill="#ffafe2"/><g><path d="m107.9 315.865c-41.789-41.789-41.598-109.661.574-151.211 13.22-13.026 29.018-21.81 45.754-26.43-35.507-9.709-74.977-1.112-102.929 26.43-42.172 41.55-42.362 109.422-.574 151.211 6.049 6.048 122.669 122.669 157.484 157.484 5.245 5.245 13.73 5.245 18.974 0 4.916-4.916 11.464-11.464 19.101-19.1-46.445-46.446-133.189-133.19-138.384-138.384z" fill="#ff94d5"/></g><path d="m362.543 186.527v-.001c-2.557-2.52-5.264-4.801-8.078-6.876l-8.507 2.203-20.26-11.16-1.452-4.222c-24.255-4.657-50.553 2.508-69.452 21.409l-10.833 10.831c-14.509 14.517-38.016 14.52-52.535-.005l-10.824-10.825c-29.864-29.864-78.2-30.473-107.752-1.356-30.012 29.57-30.217 77.82-.413 107.627l139.873 139.872c2.975 2.975 7.795 2.977 10.77.002 46.055-46.054 134.628-134.626 139.877-139.876 29.79-29.79 29.61-78.042-.414-107.623z" fill="#ff94d5"/><g><path d="m129.612 294.152c-29.804-29.806-29.599-78.057.413-107.627 7.17-7.064 15.45-12.363 24.299-15.934-27.368-10.877-59.575-5.642-81.474 15.934-30.012 29.57-30.217 77.82-.413 107.627l139.873 139.872c2.975 2.975 7.795 2.977 10.77.002 6.916-6.916 14.796-14.795 23.203-23.203z" fill="#ff72c7"/></g><path d="m469.016 52.071h-6.104c-1.418 0-2.566-1.149-2.566-2.566v-6.104c0-23.408-18.722-42.81-42.129-42.984-23.593-.175-42.773 18.898-42.773 42.45v72.407 5.669l13.783 13.425 7.936 2.584-.02.02h72.407c23.552 0 42.625-19.18 42.45-42.773-.175-23.405-19.577-42.128-42.984-42.128z" fill="#ffd064"/><path d="m415.867 136.974c0-32.595 0-82.141 0-85.369 0-18.811 10.152-35.244 25.271-44.141-6.583-4.387-14.442-6.984-22.922-7.047-23.593-.175-42.773 18.898-42.773 42.45v72.407 5.669l13.783 13.425 7.936 2.584-.02.02c5.712.002 12.131.002 18.725.002z" fill="#ffc250"/><path d="m397.162 115.254c-5.992-5.992-15.707-5.992-21.699 0l-158.23 158.23c-5.992 5.992-5.992 15.707 0 21.699s15.707 5.992 21.699 0l158.23-158.23c5.992-5.992 5.992-15.707 0-21.699z" fill="#f9f6f9"/><path d="m229.081 284.301 158.229-158.23c3.735-3.735 8.917-5.14 13.742-4.218-.694-2.416-1.987-4.695-3.891-6.598-5.992-5.992-15.707-5.992-21.699 0l-158.229 158.23c-5.992 5.992-5.992 15.707 0 21.699 2.257 2.257 5.041 3.662 7.956 4.219-1.491-5.192-.197-11.013 3.892-15.102z" fill="#cbe2ff"/></g></svg>