<svg id="Layer_1" enable-background="new 0 0 512 512" height="512" viewBox="0 0 512 512" width="512" xmlns="http://www.w3.org/2000/svg"><g><path d="m256 0c-69.036 0-125.202 56.165-125.202 125.201v62.596l3.974 3.329 31.592-5.838 5.641-3.964v-56.123c0-46.315 37.68-83.994 83.995-83.994s83.995 37.679 83.995 83.994v56.123l5.191 6.473 29.36 5.646 6.656-5.647v-62.596c0-69.035-56.166-125.2-125.202-125.2z" fill="#ffd064"/><g fill="#ffc250"><path d="m153.977 125.201c0-65.128 49.99-118.792 113.612-124.659-3.817-.353-7.681-.542-11.589-.542-69.036 0-125.202 56.165-125.202 125.201v62.596l3.974 3.329 19.205-3.549z"/><path d="m368.365 187.796-5.191-6.473v-56.123c0-46.315-37.68-83.994-83.995-83.994-3.934 0-7.798.293-11.589.819 40.847 5.665 72.405 40.794 72.405 83.175v56.123l5.191 6.473 29.36 5.646 4.284-3.634z"/></g><path d="m416.519 210.417c-40.36-39.767-105.615-38.604-145.68 1.462l-10.447 10.447c-2.425 2.425-6.359 2.425-8.784 0l-10.447-10.447c-40.065-40.065-105.32-41.228-145.68-1.462-40.682 40.082-40.866 105.556-.554 145.869 5.835 5.835 118.335 118.335 151.92 151.92 5.06 5.059 13.245 5.06 18.305 0 33.585-33.585 146.085-146.085 151.92-151.92 40.313-40.313 40.129-105.787-.553-145.869z" fill="#ffafe2"/><g><path d="m160.895 356.285c-40.312-40.313-40.128-105.787.554-145.869 11.328-11.161 24.617-19.097 38.76-23.855-35.602-11.843-76.328-4.127-104.727 23.855-40.682 40.082-40.866 105.556-.554 145.869 5.835 5.835 118.335 118.335 151.92 151.92 5.06 5.059 13.245 5.06 18.305 0 5.865-5.865 14.141-14.141 23.831-23.831-45.798-45.798-123.273-123.273-128.089-128.089z" fill="#ff94d5"/></g><path d="m301.044 283.089c-11.326-11.159-29.637-10.833-40.88.41l-2.932 2.932c-.681.681-1.784.681-2.465 0l-2.932-2.932c-11.243-11.243-29.554-11.569-40.88-.41-11.416 11.248-11.468 29.621-.155 40.933l42.631 42.631c1.42 1.42 3.717 1.42 5.137 0 9.424-9.425 40.994-40.994 42.631-42.631 11.312-11.313 11.261-29.686-.155-40.933z" fill="#ff94d5"/><g><path d="m250.978 319.386c-10.516-10.516-11.205-27.129-2.081-38.452-11.297-8.646-27.554-8.079-37.94 2.155-11.416 11.248-11.467 29.621-.155 40.933 1.637 1.637 33.206 33.206 42.631 42.631 1.42 1.42 3.717 1.42 5.137 0 3.975-3.975 11.891-11.891 19.838-19.838-12.197-12.196-26.348-26.347-27.43-27.429z" fill="#ff72c7"/></g></g></svg>