<svg id="Layer_1" enable-background="new 0 0 512 512" height="512" viewBox="0 0 512 512" width="512" xmlns="http://www.w3.org/2000/svg"><g><path d="m164.436 67.27h-33.63c-4.567 0-8.27 3.703-8.27 8.27v60.315l2.706 4.534h44.299l3.165-4.534v-60.315c-.001-4.567-3.703-8.27-8.27-8.27z" fill="#f9f6f9"/><path d="m147.62 75.54c0-4.567 3.703-8.27 8.27-8.27h-25.085c-4.567 0-8.27 3.703-8.27 8.27v60.315l2.706 4.534h25.085l-2.706-4.534z" fill="#cbe2ff"/><path d="m439.12 54.907c-2.986-1.024-4.891-3.98-4.678-7.13.068-.995.102-2 .102-3.012 0-24.723-20.042-44.765-44.764-44.765-18.612 0-34.562 11.363-41.311 27.528-1.415 3.389-5.196 5.241-8.677 4.074-2.775-.93-5.743-1.44-8.828-1.454-15.496-.066-28.332 12.714-28.332 28.21 0 .087.001.173.001.259.03 3.276-2.079 6.182-5.251 7.003l-82.782 21.441c-6.097 1.579-10.836 6.663-11.489 12.927-.774 7.414 3.994 14.135 11.055 15.963l83.217 21.553c3.172.821 5.281 3.727 5.251 7.003-.001.086-.001.173-.001.259-.001 15.496 12.836 28.275 28.332 28.21 3.086-.013 6.053-.524 8.828-1.454 3.482-1.167 7.262.685 8.677 4.074 6.749 16.165 22.698 27.528 41.311 27.528 24.723 0 44.764-20.042 44.764-44.764 0-1.013-.034-2.017-.102-3.013-.213-3.15 1.692-6.107 4.678-7.13 19.383-6.645 33.318-25.019 33.318-46.655-.001-21.636-13.936-40.009-33.319-46.655z" fill="#80b4fb"/><path d="m460.207 69.072c-3.854 4.854-8.625 9.001-14.12 12.144-2.741 1.567-4.055 4.83-3.253 7.883.254.965.477 1.945.667 2.94 4.651 24.281-11.263 47.735-35.544 52.386-18.28 3.501-36.082-4.658-45.752-19.265-2.027-3.062-6.089-4.17-9.289-2.369-2.55 1.435-5.369 2.495-8.397 3.088-15.206 2.98-30.218-7.157-33.133-22.376-.016-.085-.032-.17-.048-.255-.587-3.224-3.205-5.681-6.475-5.891l-85.786-5.513c-3.124-.201-5.999-1.371-8.318-3.223-4.162 2.351-7.142 6.498-7.65 11.366-.774 7.414 3.994 14.134 11.055 15.963l83.217 21.553c3.172.821 5.281 3.727 5.251 7.003 0 .086-.001.173-.001.259 0 15.496 12.836 28.276 28.332 28.21 3.086-.013 6.053-.524 8.828-1.454 3.482-1.167 7.263.685 8.677 4.074 6.749 16.165 22.698 27.528 41.311 27.528 24.723 0 44.764-20.042 44.764-44.764 0-1.013-.034-2.017-.102-3.013-.213-3.15 1.692-6.107 4.678-7.13 19.383-6.645 33.318-25.019 33.318-46.655.001-12.449-4.619-23.812-12.23-32.489z" fill="#61a2f9"/><g><path d="m172.705 109.289h-10.567c-4.267 0-7.726-3.459-7.726-7.726s3.459-7.726 7.726-7.726h10.567c4.267 0 7.726 3.459 7.726 7.726s-3.459 7.726-7.726 7.726z" fill="#80b4fb"/></g><path d="m191.544 143.867c-6.979-5.454-15.582-8.417-24.439-8.417h-38.97c-8.857 0-17.46 2.963-24.439 8.417l-47.778 37.342 6.484 7.083h169.464l7.457-7.083z" fill="#ff636e"/><path d="m142.709 143.867c4.972-5.454 11.1-8.417 17.409-8.417h-31.983c-8.857 0-17.46 2.963-24.439 8.417l-47.778 37.342 6.484 7.083h50.891l-4.619-7.083z" fill="#ff4654"/><path d="m239.323 455.88v-225.265l16.356-15.8v-17.25c0-9.033-7.323-16.356-16.356-16.356h-183.405c-9.033 0-16.356 7.323-16.356 16.356v17.25l16.356 14.426v232.133l-16.356 17.019v17.25c0 9.033 7.323 16.356 16.356 16.356h183.405c9.033 0 16.356-7.323 16.356-16.356v-17.25z" fill="#f9f6f9"/><path d="m94.97 495.644v-17.25l16.356-17.019v-232.133l-16.356-14.427v-17.25c0-9.033 7.323-16.356 16.356-16.356h-55.408c-9.033 0-16.356 7.323-16.356 16.356v17.25l16.356 14.426v232.133l-16.356 17.019v17.25c0 9.033 7.323 16.356 16.356 16.356h55.408c-9.034.001-16.356-7.322-16.356-16.355z" fill="#cbe2ff"/><path d="m39.562 214.815h216.117v263.578h-216.117z" fill="#ffd064"/><path d="m39.562 214.815h55.408v263.578h-55.408z" fill="#ffc250"/></g></svg>