<svg id="Layer_1" enable-background="new 0 0 512 512" height="512" viewBox="0 0 512 512" width="512" xmlns="http://www.w3.org/2000/svg"><g><path d="m405.781 316.027c-3.131-1.213-41.115-15.923-70.307-27.229l-5.077.683-8.277-2.411c-25.392 47.449-66.12 59.339-66.12 59.339-31.961-13.116-53.146-41.727-64.468-61.155l-11.175 4.485-3.961-1.119-70.175 27.408c-6.945 2.858-14.841 8.198-21.787 15.721l-1.173 9.242 33.224 37.859v119.931l8.423 13.219h262.183l9.347-12.532v-112.634l31.499-45.843v-9.004c-6.377-7.076-14.005-12.605-22.156-15.96z" fill="#f9f6f9"/><path d="m106.22 316.027c-6.945 2.858-14.841 8.198-21.787 15.721l-1.173 9.242 16.398 18.686c5.741-30.407 29.208-49.581 38.562-56.147z" fill="#cbe2ff"/><path d="m256 346.409s40.728-11.889 66.12-59.338l-19.429-5.659-1.924-6.17c-2.222-1.316-3.641-3.719-3.648-6.372l-.02-24.441-4.709-4.053h-74.345l-3.208 3.943v24.506c0 3.063-1.473 4.868-3.168 6.019l-.549.214-1.403 2.898-18.185 7.298c11.322 19.427 32.507 48.039 64.468 61.155z" fill="#ffcebe"/><path d="m218.044 240.375-3.208 3.943v24.506c0 3.063-1.473 4.868-3.168 6.019l-.549.214-1.403 2.898-18.185 7.298c11.323 19.427 32.508 48.039 64.468 61.155v-106.033z" fill="#ffb1a0"/><path d="m432.595 512c7.402 0 13.402-6.001 13.402-13.402 0-11.073 0-107.155 0-120.192 0-17.912-7.222-34.4-18.06-46.42l-26.127 28.759c-9.472 10.426-14.72 24.007-14.72 38.093v113.162z" fill="#ff7f87"/><path d="m431.264 360.745 8.896-9.793c-3.097-7.057-7.277-13.481-12.222-18.966l-26.126 28.759c-9.472 10.426-14.72 24.007-14.72 38.093v113.162h29.453v-113.162c-.001-14.086 5.247-27.667 14.719-38.093z" fill="#ff636e"/><path d="m124.908 398.838c0-14.086-5.248-27.667-14.719-38.093l-25.755-28.997c-10.25 11.102-18.431 26.965-18.431 46.658v120.192c0 7.401 6.001 13.402 13.402 13.402h45.504v-113.162z" fill="#ff7f87"/><path d="m98.37 373.442c0-8.033 1.276-15.433 3.39-22.186l-17.327-19.508c-10.25 11.102-18.431 26.965-18.431 46.658v120.192c0 7.401 6.001 13.402 13.402 13.402h18.966c0-25.8 0-100.086 0-138.558z" fill="#ff636e"/><path d="m161.295 100.957h190.767v30.515h-190.767z" fill="#ff7f87"/><path d="m399.782 100.957h-47.719l-2.841 2.232s-.451 24.445 0 24.896 2.841 3.386 2.841 3.386h47.719c8.426 0 15.257-6.831 15.257-15.257s-6.831-15.257-15.257-15.257z" fill="#f9f6f9"/><path d="m256.679 0c-52.679 0-95.383 42.705-95.383 95.384v5.573l4.471 3.606h180.242l6.054-3.606v-5.573c-.001-52.679-42.705-95.384-95.384-95.384z" fill="#f9f6f9"/><path d="m198.897 95.384c0-46.243 32.908-84.795 76.582-93.527-6.078-1.215-12.364-1.857-18.8-1.857-52.679 0-95.383 42.705-95.383 95.384v5.573l4.471 3.606h37.602l-4.471-3.606v-5.573z" fill="#cbe2ff"/><path d="m164.396 128.257-3.1 3.215c-8.246 5.351-14.154 14.72-14.154 24.896 0 16.852 15.619 30.676 34.509 28.602l2.742-2.628v-54.085z" fill="#ffcebe"/><path d="m168.595 156.367c0-10.177 5.908-19.545 14.154-24.896l1.643-1.703v-1.511h-19.997l-3.1 3.215c-8.246 5.351-14.154 14.72-14.154 24.896 0 16.852 15.619 30.676 34.509 28.602l2.742-2.628v-.806c-9.467-4.955-15.797-14.445-15.797-25.169z" fill="#ffb1a0"/><path d="m352.062 131.471-2.497-2.828h-22.407v52.668l3.189 3.669c18.873 2.007 34.511-11.815 34.511-28.711.001-9.865-4.959-19.242-12.796-24.798z" fill="#ffcebe"/><path d="m348.612 128.643h-21.454v52.668l3.189 3.669c6.678.71 12.946-.569 18.265-3.257z" fill="#ffb1a0"/><path d="m323.982 127.398h-98.682l-2.858 2.584v52.834c0 31.727 20.101 61.205 52.36 71.371 31.892-7.955 55.595-36.833 55.595-71.152v-51.563z" fill="#ffdecf"/><path d="m223.766 183.034v-51.563l4.505-4.073h-42.163l-4.505 4.073v51.563c0 38.328 30.031 73.335 75.458 73.335 7.077 0 13.914-1.028 20.393-2.907-32.996-9.126-53.688-38.623-53.688-70.428z" fill="#ffcebe"/><path d="m176.396 288.619c44.429 61.732 79.604 60.098 79.604 60.098v-2.308c0-15.594-6.639-30.549-18.5-40.671-15.404-13.145-25.168-28.701-26.38-30.68z" fill="#ff7f87"/><path d="m256 348.717s35.106 1.629 79.474-59.918c-17.458-6.761-31.772-12.305-33.603-13.014-.388-.15-.754-.336-1.104-.543-1.614 2.609-11.266 17.695-26.266 30.496-11.862 10.122-18.501 25.077-18.501 40.671z" fill="#ff7f87"/><path d="m263.726 348.717c0-4.267-3.459-7.726-7.726-7.726s-7.726 3.459-7.726 7.726v163.283h15.453v-163.283z" fill="#cbe2ff"/><path d="m347.763 386.834h-42.213c-3.225 0-5.839 2.614-5.839 5.839v37.142c0 14.881 12.064 26.945 26.945 26.945 14.881 0 26.945-12.064 26.945-26.945v-37.142c.001-3.225-2.613-5.839-5.838-5.839z" fill="#ff7f87"/><path d="m324.951 429.815v-37.142c0-3.225 2.614-5.839 5.839-5.839h-25.24c-3.225 0-5.839 2.614-5.839 5.839v37.142c0 14.881 12.064 26.945 26.945 26.945 4.561 0 8.854-1.137 12.62-3.138-8.52-4.526-14.325-13.487-14.325-23.807z" fill="#ff636e"/><path d="m256.679 73.399c-10.336 0-18.715 8.379-18.715 18.715v8.843l2.744 3.606h31.592l3.093-3.606v-8.843c.001-10.336-8.378-18.715-18.714-18.715z" fill="#365e7d"/><path d="m161.295 100.957h190.767v30.515h-190.767z" fill="#ff7f87"/><path d="m161.296 100.957h37.602v30.515h-37.602z" fill="#ff636e"/><path d="m237.964 100.957h37.43v30.515h-37.43z" fill="#ff636e"/><circle cx="256" cy="396.962" fill="#365e7d" r="14.206"/><circle cx="256" cy="459.85" fill="#365e7d" r="14.206"/><g fill="#2b4d66"><path d="m256 396.962c0-5.255 2.861-9.833 7.103-12.29-2.091-1.212-4.513-1.916-7.103-1.916-7.846 0-14.206 6.36-14.206 14.206s6.36 14.206 14.206 14.206c2.591 0 5.012-.705 7.103-1.916-4.242-2.457-7.103-7.034-7.103-12.29z"/><path d="m256 459.85c0-5.255 2.861-9.833 7.103-12.29-2.091-1.212-4.513-1.916-7.103-1.916-7.846 0-14.206 6.36-14.206 14.206s6.36 14.206 14.206 14.206c2.591 0 5.012-.705 7.103-1.916-4.242-2.457-7.103-7.034-7.103-12.29z"/></g></g></svg>