<svg id="Layer_1" enable-background="new 0 0 512 512" height="512" viewBox="0 0 512 512" width="512" xmlns="http://www.w3.org/2000/svg"><g><path d="m171.738 96.294c-26.713 0-51.737 13.065-67.006 34.984l-85.742 123.086 2.347 1.748 48.19-9.615 3.202-2.973 52.273-90.7c8.107-14.066 24.918-20.585 40.389-15.661 11.87 3.778 24.391-3.585 26.86-15.794 2.621-12.961-7.288-25.075-20.513-25.075z" fill="#80b4fb"/><path d="m119.841 139.863c15.269-21.919 40.293-34.984 67.006-34.984.626 0 1.242.036 1.852.089-3.767-5.207-9.889-8.674-16.961-8.674-26.713 0-51.737 13.065-67.006 34.984l-85.742 123.086 2.347 1.748 20.354-4.061z" fill="#61a2f9"/><path d="m407.268 131.278c-15.269-21.919-40.293-34.984-67.006-34.984-13.224 0-23.134 12.114-20.513 25.076 2.469 12.209 14.99 19.572 26.86 15.794 15.47-4.924 32.282 1.595 40.389 15.661l52.273 90.7 4.382 4.604 46.873 10.473 2.484-4.238z" fill="#80b4fb"/><path d="m400.261 143.699c-11.056-17.828-33.039-25.547-52.813-18.544-10.184 3.606-20.949.737-28.05-6.273.067.824.182 1.654.351 2.487 2.469 12.209 14.99 19.572 26.86 15.794 15.47-4.924 32.282 1.595 40.389 15.661l52.273 90.7 4.382 4.604 24.802 5.542z" fill="#61a2f9"/><path d="m502.48 256.959c-20.156-5.803-70.022-18.234-127.317-18.234-36.603 0-64.176 6.501-91.685 29.46-15.961 13.322-38.306 13.896-54.955 0-27.509-22.959-55.082-29.46-91.685-29.46-57.296 0-107.161 12.431-127.317 18.234-5.644 1.624-9.521 6.793-9.521 12.665v19.568c0 9.053 7.484 11.893 11.162 13.778 9.652 4.947 17.176 13.235 21.169 23.319l22.289 56.29c7.917 19.995 27.242 33.127 48.747 33.127h69.194c16.231 0 31.17-8.856 38.96-23.096l26.74-48.885c7.642-13.969 27.806-14.025 35.478 0l26.74 48.885c7.79 14.24 22.728 23.096 38.96 23.096h69.194c21.505 0 40.83-13.132 48.747-33.127l22.289-56.29c3.993-10.084 11.517-18.372 21.169-23.319 3.679-1.885 11.162-4.726 11.162-13.778v-19.568c0-5.872-3.877-11.041-9.52-12.665z" fill="#9dc6fb"/><g><path d="m93.79 376.947-22.29-65.859c-3.993-11.798-11.517-21.495-21.168-27.283-3.679-2.206-11.162-5.529-11.162-16.121v-18.118c-12.684 2.731-22.858 5.438-29.649 7.393-5.644 1.624-9.521 6.793-9.521 12.665v19.568c0 9.053 7.484 11.893 11.162 13.778 9.652 4.947 17.175 13.235 21.169 23.319l22.289 56.29c7.917 19.995 27.242 33.127 48.747 33.127h39.17c-21.505 0-40.83-15.365-48.747-38.759z" fill="#80b4fb"/></g><path d="m208.192 292.545c-19.295-16.102-38.634-22.09-71.355-22.09-18.278 0-35.788 1.376-51.636 3.394-19.243 2.449-30.762 22.378-23.524 40.375.051.127.102.255.153.383l22.289 56.29c3.146 7.944 10.7 13.078 19.246 13.078h69.194c4.637 0 8.898-2.526 11.123-6.594l30.182-54.883c5.531-10.053 3.151-22.617-5.672-29.953z" fill="#8479c2"/><path d="m303.808 292.545c19.295-16.102 38.634-22.09 71.355-22.09 18.278 0 35.788 1.376 51.636 3.394 19.243 2.449 30.762 22.378 23.524 40.375-.051.127-.102.255-.153.383l-22.289 56.29c-3.146 7.944-10.701 13.078-19.246 13.078h-69.195c-4.637 0-8.898-2.526-11.123-6.594l-30.182-54.883c-5.53-10.053-3.15-22.617 5.673-29.953z" fill="#8479c2"/><g fill="#6e60b8"><path d="m123.29 375.021-22.289-61.299c-.051-.139-.102-.278-.153-.417-6.43-17.409 1.947-36.465 17.384-42.378-11.552.565-22.652 1.601-33.03 2.923-19.243 2.449-30.762 22.378-23.524 40.375.051.127.102.255.153.383l22.289 56.29c3.146 7.944 10.701 13.078 19.246 13.078h25.836c-2.558-2.35-4.614-5.387-5.912-8.955z"/><path d="m369.27 379.284-31.806-64.475c-5.827-11.812-3.319-26.571 5.978-35.189 3.164-2.944 6.33-5.599 9.549-7.986-20.183 2.433-34.696 8.82-49.184 20.91-8.823 7.336-11.202 19.899-5.673 29.954l30.182 54.883c2.225 4.067 6.486 6.594 11.123 6.594h33.453c-1.463-1.243-2.707-2.827-3.622-4.691z"/></g></g></svg>