<svg id="Layer_1" enable-background="new 0 0 512 512" height="512" viewBox="0 0 512 512" width="512" xmlns="http://www.w3.org/2000/svg"><g><path d="m491.126 0h-103.776c-11.528 0-20.874 9.353-20.874 20.89v324.557c0 11.537 9.346 20.89 20.874 20.89h103.776c11.529 0 20.874-9.353 20.874-20.89v-324.557c0-11.537-9.346-20.89-20.874-20.89z" fill="#8479c2"/><path d="m401.845 345.447v-324.557c0-11.537 9.346-20.89 20.874-20.89h-35.369c-11.528 0-20.874 9.353-20.874 20.89v324.557c0 11.537 9.346 20.89 20.874 20.89h35.369c-11.528.001-20.874-9.352-20.874-20.89z" fill="#6e60b8"/><path d="m262.514 388.918h-252.737l-9.777 8.044v106.342c0 4.802 3.894 8.696 8.696 8.696h247.304l6.514-6.524z" fill="#9dc6fb"/><path d="m52.062 503.304v-106.342l9.778-8.044h-52.063l-9.777 8.044v106.342c0 4.802 3.894 8.696 8.696 8.696h52.062c-4.802 0-8.696-3.894-8.696-8.696z" fill="#80b4fb"/><path d="m256 388.918v123.082h247.304c4.803 0 8.696-3.894 8.696-8.696v-106.342l-10.485-8.044z" fill="#cbe2ff"/><path d="m199.416 283.215h-70.31l-6.455 5.235v46.701l6.97 3.951h71.34l5.09-3.951v-46.701z" fill="#6e60b8"/><path d="m164.351 288.45 6.455-5.235h-41.7l-6.455 5.235v46.701l6.97 3.951h41.7l-6.97-3.951z" fill="#6353b2"/><path d="m306.859 38.46h-285.359c-11.874 0-21.5 9.626-21.5 21.5v206.99c0 11.874 9.626 21.5 21.5 21.5h285.359c11.874 0 21.5-9.626 21.5-21.5v-206.99c0-11.874-9.626-21.5-21.5-21.5z" fill="#8479c2"/><path d="m41.872 266.95v-206.99c0-11.874 9.626-21.5 21.5-21.5h-41.872c-11.874 0-21.5 9.626-21.5 21.5v206.99c0 11.874 9.626 21.5 21.5 21.5h41.872c-11.874 0-21.5-9.626-21.5-21.5z" fill="#6e60b8"/><path d="m240.928 335.151h-153.153c-3.34 0-6.047 2.707-6.047 6.047v19.841c0 3.34 2.707 6.047 6.047 6.047h153.153c3.34 0 6.047-2.707 6.047-6.047v-19.841c0-3.339-2.708-6.047-6.047-6.047z" fill="#8479c2"/><path d="m123.599 361.039v-19.841c0-3.34 2.707-6.047 6.047-6.047h-41.871c-3.34 0-6.047 2.707-6.047 6.047v19.841c0 3.34 2.707 6.047 6.047 6.047h41.872c-3.34.001-6.048-2.707-6.048-6.047z" fill="#6e60b8"/><path d="m36.219 98.938-5.313 6.681v149.483c0 1.349 1.093 2.442 2.442 2.442h261.665c1.349 0 2.442-1.093 2.442-2.442v-149.482l-7.125-6.681h-254.111z" fill="#ffd064"/><path d="m36.219 98.938-5.313 6.681v149.483c0 1.349 1.093 2.442 2.442 2.442h261.665c1.349 0 2.442-1.093 2.442-2.442v-149.482l-7.125-6.681h-254.111z" fill="#ffd064"/><path d="m73.218 255.103v-149.483l5.313-6.681h-42.312l-5.313 6.681v149.483c0 1.349 1.093 2.442 2.442 2.442h42.312c-1.349-.001-2.442-1.094-2.442-2.442z" fill="#ffc250"/><path d="m295.012 69.365h-221.794l-4.721 2.921v28.33l4.721 5.003h224.235v-33.812c.001-1.348-1.092-2.442-2.441-2.442z" fill="#6e60b8"/><path d="m73.218 69.365h-39.871c-1.348 0-2.442 1.093-2.442 2.442v33.812h42.313z" fill="#ff636e"/><path d="m506.712 366.056h-501.424c-2.92 0-5.288 2.367-5.288 5.288v25.618h512v-25.618c0-2.92-2.368-5.288-5.288-5.288z" fill="#f9f6f9"/><path d="m57.349 366.056h-52.061c-2.92 0-5.288 2.367-5.288 5.288v25.618h52.062v-25.618c0-2.92 2.367-5.288 5.287-5.288z" fill="#cbe2ff"/><path d="m471.332 270.322h-64.188c-4.369 0-7.911 3.542-7.911 7.911v20.432c0 4.369 3.542 7.911 7.911 7.911h64.188c4.369 0 7.911-3.542 7.911-7.911v-20.432c0-4.369-3.542-7.911-7.911-7.911z" fill="#f9f6f9"/><path d="m434.602 298.666v-20.432c0-4.369 3.542-7.911 7.911-7.911h-35.37c-4.369 0-7.911 3.542-7.911 7.911v20.432c0 4.369 3.542 7.911 7.911 7.911h35.37c-4.369 0-7.911-3.542-7.911-7.911z" fill="#9dc6fb"/><g><path d="m479.243 63.897h-80.011c-4.267 0-7.726-3.459-7.726-7.726s3.459-7.726 7.726-7.726h80.011c4.267 0 7.726 3.459 7.726 7.726s-3.459 7.726-7.726 7.726z" fill="#6e60b8"/></g><g><path d="m479.243 98.938h-80.011c-4.267 0-7.726-3.459-7.726-7.726s3.459-7.726 7.726-7.726h80.011c4.267 0 7.726 3.459 7.726 7.726s-3.459 7.726-7.726 7.726z" fill="#6e60b8"/></g><g><path d="m479.243 133.978h-80.011c-4.267 0-7.726-3.459-7.726-7.726 0-4.268 3.459-7.726 7.726-7.726h80.011c4.267 0 7.726 3.459 7.726 7.726 0 4.268-3.459 7.726-7.726 7.726z" fill="#6e60b8"/></g><g><path d="m479.243 169.019h-80.011c-4.267 0-7.726-3.459-7.726-7.726s3.459-7.726 7.726-7.726h80.011c4.267 0 7.726 3.459 7.726 7.726s-3.459 7.726-7.726 7.726z" fill="#6e60b8"/></g><g><path d="m479.243 204.06h-80.011c-4.267 0-7.726-3.459-7.726-7.726s3.459-7.726 7.726-7.726h80.011c4.267 0 7.726 3.459 7.726 7.726s-3.459 7.726-7.726 7.726z" fill="#6e60b8"/></g><g><path d="m444.493 239.1h-10.511c-4.267 0-7.726-3.459-7.726-7.726 0-4.268 3.459-7.726 7.726-7.726h10.511c4.267 0 7.726 3.459 7.726 7.726s-3.459 7.726-7.726 7.726z" fill="#ff636e"/></g></g></svg>