<svg id="Layer_1" enable-background="new 0 0 512 512" height="512" viewBox="0 0 512 512" width="512" xmlns="http://www.w3.org/2000/svg"><g><g><path d="m394.349 64.55-12.693-32.915c-1.532-3.971.447-8.433 4.418-9.965 3.97-1.53 8.433.447 9.964 4.419l12.693 32.915c1.532 3.971-.447 8.433-4.418 9.965-3.974 1.531-8.433-.45-9.964-4.419z" fill="#cbe2ff"/></g><g><path d="m377.208 33.274c-1.532-3.972.446-8.433 4.418-9.966l9.201-3.549c3.97-1.53 8.433.446 9.965 4.418s-.446 8.433-4.418 9.966l-9.201 3.549c-3.972 1.53-8.433-.446-9.965-4.418z" fill="#f9f6f9"/></g><g><path d="m422.157 54.184-12.406-32.172c-1.532-3.971.447-8.433 4.418-9.965 3.971-1.53 8.433.447 9.964 4.419l12.406 32.172c1.532 3.971-.447 8.433-4.418 9.965-3.974 1.532-8.433-.449-9.964-4.419z" fill="#cbe2ff"/></g><g><path d="m405.303 23.653c-1.532-3.972.446-8.433 4.418-9.966l9.202-3.549c3.971-1.53 8.433.447 9.965 4.418 1.532 3.972-.446 8.433-4.418 9.966l-9.202 3.549c-3.972 1.53-8.433-.446-9.965-4.418z" fill="#f9f6f9"/></g><g><path d="m450.188 44.395-12.341-32.003c-1.532-3.971.447-8.433 4.418-9.965 3.968-1.531 8.433.448 9.964 4.419l12.341 32.003c1.532 3.971-.447 8.433-4.418 9.965-3.974 1.531-8.433-.449-9.964-4.419z" fill="#cbe2ff"/></g><g><path d="m433.398 14.03c-1.531-3.972.447-8.433 4.419-9.965l9.202-3.548c3.973-1.53 8.433.448 9.965 4.419 1.531 3.972-.447 8.433-4.419 9.965l-9.202 3.548c-3.974 1.531-8.433-.448-9.965-4.419z" fill="#f9f6f9"/></g><path d="m507.093 62.719-11.463-11.463c-14.606-14.606-36.486-19.151-55.7-11.572l-43.33 17.092c-7.337 2.894-12.714 9.301-14.292 17.028l-4.732 23.171v4.787l19.037 22.258h8.008l96.485-36.996c10.498-3.275 13.763-16.529 5.987-24.305z" fill="#8479c2"/><path d="m397.968 117.155 9.763-47.805c1.592-7.796 5.068-14.932 9.966-20.897l-21.097 8.323c-7.337 2.894-12.714 9.301-14.292 17.028l-4.732 23.171v4.787l19.037 22.258h1.355z" fill="#6e60b8"/><g><path d="m407.211 88.669c-1.524-3.975.463-8.432 4.437-9.957l45.938-17.614c3.973-1.526 8.432.462 9.956 4.437s-.463 8.432-4.437 9.957l-45.938 17.614c-3.958 1.52-8.427-.448-9.956-4.437z" fill="#6e60b8"/></g><path d="m232.638 341.441c-16.333-9.727-25.094-20.344-25.094-20.344l-4.395-1.335-19.77-23.475v-5.114c-8.034-18.331-3.968-40.598.239-54.782 2.085-7.029-3.117-14.167-10.449-14.207-17.011-.092-32.267 10.136-38.948 25.763-19.521 45.665-60.964 67.348-91.854 77.469-26.946 8.828-44.088 35.164-41.492 63.4 2.618 28.469 11.519 55.282 23.228 79.348 28.724 59.04 113.184 58.238 141.147-1.167 8.82-18.738 16.784-35.384 22.01-45.732 8.649-17.128 24.8-26.293 39.917-31.195 10.625-3.445 17.969-13.154 18.489-24.311.459-9.884-4.528-19.255-13.028-24.318z" fill="#ff636e"/><path d="m51.73 489.565c-12.02-24.705-21.158-52.229-23.845-81.454-2.665-28.986 14.931-56.02 42.593-65.083 31.71-10.389 74.252-32.648 94.292-79.525 3.576-8.364 9.547-15.216 16.916-19.851.609-2.59 1.269-5.027 1.932-7.263 2.085-7.029-3.117-14.167-10.449-14.207-17.011-.092-32.267 10.136-38.948 25.763-19.521 45.665-60.964 67.348-91.854 77.469-26.946 8.828-44.088 35.164-41.492 63.4 2.618 28.469 11.519 55.282 23.228 79.348 8.505 17.481 21.897 29.713 37.26 36.734-3.644-4.577-6.888-9.687-9.633-15.331z" fill="#ff4654"/><path d="m377.576 96.975-209.348 209.348c-2.213 2.213-2.213 5.801 0 8.013l19.032 19.032c2.213 2.213 5.8 2.213 8.013 0l209.348-209.348z" fill="#cbe2ff"/><path d="m181.635 321.434 210.2-210.2-14.259-14.259-209.348 209.348c-2.213 2.213-2.213 5.801 0 8.013l11.714 11.714c-.12-1.655.427-3.35 1.693-4.616z" fill="#9dc6fb"/><g><path d="m373.879 159.02-31.302-31.302c-3.01-3.011-3.01-7.89 0-10.901 3.01-3.009 7.89-3.009 10.9 0l31.302 31.302c3.01 3.011 3.01 7.89 0 10.901-3.01 3.01-7.89 3.009-10.9 0z" fill="#f9f6f9"/></g><g><path d="m351.377 181.522-31.302-31.303c-3.01-3.011-3.01-7.89 0-10.901 3.01-3.009 7.89-3.009 10.9 0l31.302 31.303c3.01 3.011 3.01 7.89 0 10.901-3.01 3.009-7.889 3.009-10.9 0z" fill="#f9f6f9"/></g><g><path d="m328.876 204.023-31.302-31.302c-3.01-3.011-3.01-7.89 0-10.901 3.01-3.009 7.89-3.009 10.9 0l31.302 31.302c3.01 3.011 3.01 7.89 0 10.901-3.011 3.009-7.89 3.009-10.9 0z" fill="#f9f6f9"/></g><g><path d="m306.374 226.525-31.302-31.302c-3.01-3.011-3.01-7.89 0-10.901 3.01-3.009 7.89-3.009 10.9 0l31.302 31.302c3.01 3.011 3.01 7.89 0 10.901-3.01 3.009-7.89 3.009-10.9 0z" fill="#f9f6f9"/></g><g><path d="m283.872 249.027-31.302-31.303c-3.01-3.011-3.01-7.89 0-10.901 3.01-3.009 7.89-3.009 10.9 0l31.302 31.303c3.01 3.011 3.01 7.89 0 10.901-3.01 3.009-7.889 3.009-10.9 0z" fill="#f9f6f9"/></g><g><path d="m261.371 271.528-31.302-31.303c-3.01-3.011-3.01-7.89 0-10.901 3.01-3.01 7.89-3.008 10.9 0l31.302 31.303c3.01 3.011 3.01 7.89 0 10.901-3.011 3.01-7.89 3.009-10.9 0z" fill="#f9f6f9"/></g><g><path d="m238.869 294.029-31.302-31.302c-3.01-3.011-3.01-7.89 0-10.901 3.01-3.009 7.89-3.009 10.9 0l31.302 31.302c3.01 3.011 3.01 7.89 0 10.901-3.011 3.01-7.89 3.009-10.9 0z" fill="#f9f6f9"/></g><g><path d="m216.367 316.531-31.302-31.302c-3.01-3.011-3.01-7.89 0-10.901 3.01-3.009 7.89-3.009 10.9 0l31.302 31.302c3.01 3.011 3.01 7.89 0 10.901-3.01 3.01-7.89 3.009-10.9 0z" fill="#f9f6f9"/></g><path d="m113.763 422.141-34.307-34.307c-2.697-2.697-7.069-2.697-9.766 0l-11.644 11.644c-2.697 2.697-2.697 7.069 0 9.766l34.307 34.307c2.697 2.697 7.069 2.697 9.766 0l11.644-11.644c2.697-2.697 2.697-7.07 0-9.766z" fill="#f9f6f9"/><path d="m81.175 424.136 13.173-13.173c1.639-1.639 3.825-2.389 5.971-2.267l-20.863-20.863c-2.697-2.697-7.069-2.697-9.766 0l-11.644 11.644c-2.697 2.697-2.697 7.069 0 9.766l20.863 20.863c-.123-2.144.627-4.33 2.266-5.97z" fill="#cbe2ff"/><circle cx="138.178" cy="363.418" fill="#8479c2" r="29.04"/><path d="m143.679 383.952c-11.341-11.341-11.341-29.728 0-41.068 2.262-2.262 4.807-4.064 7.517-5.424-10.88-5.458-24.473-3.655-33.552 5.424-11.341 11.341-11.341 29.727 0 41.068 9.079 9.079 22.671 10.882 33.552 5.424-2.71-1.36-5.255-3.162-7.517-5.424z" fill="#6e60b8"/></g></svg>