<svg id="Layer_1" enable-background="new 0 0 512 512" height="512" viewBox="0 0 512 512" width="512" xmlns="http://www.w3.org/2000/svg"><g><path d="m311.664 41.578-5.367-3.116h-131.863l-4.92 3.116-4.51 40.521 2.047 2.206h144.613l4.51-2.206z" fill="#cbe2ff"/><path d="m209 41.578 4.92-3.116h-39.486l-4.92 3.116-4.51 40.521 2.047 2.206h39.486l-2.047-2.206z" fill="#9dc6fb"/><path d="m311.664 41.578-3.528-31.698c-.626-5.625-5.381-9.88-11.041-9.88h-113.012c-5.659 0-10.414 4.255-11.04 9.88l-3.528 31.699h142.149z" fill="#f9f6f9"/><path d="m223.569 0h-39.486c-5.659 0-10.414 4.255-11.04 9.88l-3.528 31.699h39.485l3.528-31.699c.626-5.625 5.381-9.88 11.041-9.88z" fill="#cbe2ff"/><path d="m316.174 82.099h-151.17l-4.691 42.149 4.691 3.668h151.17l4.691-3.668z" fill="#f9f6f9"/><path d="m204.49 82.099h-39.486l-4.691 42.149 4.691 3.668h39.486l-4.691-3.668z" fill="#cbe2ff"/><g><path d="m311.664 470.422-5.367 3.116h-131.863l-4.92-3.116-4.51-40.521 2.047-2.206h144.613l4.51 2.206z" fill="#cbe2ff"/><path d="m209 470.422 4.92 3.116h-39.486l-4.92-3.116-4.51-40.521 2.047-2.206h39.486l-2.047 2.206z" fill="#9dc6fb"/><path d="m311.664 470.422-3.528 31.699c-.626 5.625-5.381 9.88-11.04 9.88h-113.013c-5.659 0-10.414-4.255-11.04-9.88l-3.528-31.699z" fill="#f9f6f9"/><path d="m223.569 512h-39.486c-5.659 0-10.414-4.255-11.04-9.88l-3.528-31.699h39.485l3.528 31.699c.626 5.625 5.381 9.88 11.041 9.88z" fill="#cbe2ff"/><path d="m316.174 429.901h-151.17l-4.691-42.149 4.691-3.668h151.17l4.691 3.668z" fill="#f9f6f9"/><path d="m204.49 429.901h-39.486l-4.691-42.149 4.691-3.668h39.486l-4.691 3.668z" fill="#cbe2ff"/></g><g><path d="m320.865 387.752h-160.552c-9.631 0-18.596-4.32-24.598-11.853l-38.941-48.885c-4.417-5.544-6.851-12.503-6.851-19.595v-102.838c0-7.092 2.434-14.051 6.852-19.596l38.94-48.883c6.002-7.533 14.968-11.854 24.598-11.854h160.552c9.633 0 18.599 4.321 24.598 11.855l38.941 48.883-.001-.002c4.418 5.546 6.852 12.505 6.852 19.596v102.838c0 7.092-2.434 14.051-6.852 19.596l-38.941 48.883c-5.999 7.534-14.964 11.855-24.597 11.855z" fill="#8479c2"/></g><path d="m180.012 375.899-38.941-48.885c-4.417-5.544-6.851-12.503-6.851-19.595v-102.838c0-7.092 2.434-14.051 6.852-19.596l38.94-48.883c6.002-7.533 14.968-11.854 24.598-11.854h-44.298c-9.631 0-18.597 4.32-24.598 11.854l-38.94 48.883c-4.418 5.546-6.852 12.505-6.852 19.596v102.838c0 7.092 2.434 14.051 6.851 19.595l38.941 48.885c6.002 7.533 14.968 11.853 24.598 11.853h44.298c-9.63 0-18.596-4.32-24.598-11.853z" fill="#6e60b8"/><path d="m409.716 230.761h-6.098c-6.799 0-12.362 5.563-12.362 12.362v25.754c0 6.799 5.563 12.362 12.362 12.362h6.098c6.799 0 12.362-5.563 12.362-12.362v-25.754c0-6.799-5.563-12.362-12.362-12.362z" fill="#f9f6f9"/><path d="m409.716 260.55h-6.098c-6.799 0-12.362-5.563-12.362-12.362v20.689c0 6.799 5.563 12.362 12.362 12.362h6.098c6.799 0 12.362-5.563 12.362-12.362v-20.689c0 6.799-5.563 12.362-12.362 12.362z" fill="#cbe2ff"/><path d="m124.47 210.588-3.643 3.478v93.354c0 .122.041.242.118.337l38.943 48.886c.104.13.259.205.426.205h160.552c.166 0 .321-.074.424-.203l38.944-48.886c.076-.097.119-.216.119-.339v-93.354l-6.151-3.478z" fill="#9dc6fb"/><path d="m160.431 307.756c-.076-.095-.118-.215-.118-.337v-93.354l3.643-3.478h-39.486l-3.643 3.478v93.354c0 .122.041.242.118.337l38.943 48.886c.104.13.259.205.426.205h39.486c-.167 0-.322-.075-.426-.205z" fill="#80b4fb"/><path d="m315.068 246.516h-148.958c-5.166 0-9.355 4.188-9.355 9.355v40.011c0 5.166 4.188 9.355 9.355 9.355h148.957c5.166 0 9.355-4.188 9.355-9.355v-40.011c0-5.167-4.188-9.355-9.354-9.355z" fill="#80b4fb"/><path d="m204.144 295.881v-40.011c0-5.166 4.188-9.355 9.355-9.355h-47.388c-5.166 0-9.355 4.188-9.355 9.355v40.011c0 5.166 4.188 9.355 9.355 9.355h47.388c-5.167 0-9.355-4.188-9.355-9.355z" fill="#61a2f9"/><path d="m360.232 204.242-38.943-48.885c-.104-.131-.259-.205-.425-.205h-160.551c-.167 0-.322.075-.426.205l-38.941 48.884c-.077.097-.119.216-.119.339v9.484h239.523v-9.484c0-.122-.042-.242-.118-.337z" fill="#ffd064"/><path d="m160.432 204.242 38.941-48.884c.104-.13.259-.205.426-.205h-39.486c-.167 0-.322.075-.426.205l-38.941 48.884c-.077.097-.119.216-.119.339v9.484h39.486v-9.484c0-.122.042-.242.119-.339z" fill="#ffc250"/><g><path d="m188.015 192.335h-8.499c-4.267 0-7.726-3.459-7.726-7.726s3.459-7.726 7.726-7.726h8.499c4.267 0 7.726 3.459 7.726 7.726s-3.459 7.726-7.726 7.726z" fill="#ebb044"/></g><g><path d="m222.526 192.335h-8.499c-4.267 0-7.726-3.459-7.726-7.726s3.459-7.726 7.726-7.726h8.499c4.267 0 7.726 3.459 7.726 7.726s-3.459 7.726-7.726 7.726z" fill="#ebb044"/></g></g></svg>