<svg id="Layer_1" enable-background="new 0 0 512 512" height="512" viewBox="0 0 512 512" width="512" xmlns="http://www.w3.org/2000/svg"><g><path d="m108.18 475.858-1.126 1.454v24.901c0 5.405 4.382 9.787 9.787 9.787h29.875c5.405 0 9.787-4.382 9.787-9.787v-22.149l-3.059-2.752z" fill="#f9f6f9"/><path d="m322.006 475.858-40.692 1.454-3.251 2.752v22.149c0 5.405 4.382 9.787 9.787 9.787h29.875c5.405 0 9.787-4.382 9.787-9.787v-24.901z" fill="#f9f6f9"/><path d="m131.607 502.213v-24.901l.53-.685-23.957-.77-1.126 1.454v24.901c0 5.405 4.382 9.787 9.787 9.787h24.553c-5.406.001-9.787-4.381-9.787-9.786z" fill="#cbe2ff"/><path d="m302.616 502.213v-22.149l3.251-2.752 19.065-.681-2.926-.773-40.692 1.454-3.251 2.752v22.149c0 5.405 4.382 9.787 9.787 9.787h24.553c-5.405 0-9.787-4.382-9.787-9.787z" fill="#cbe2ff"/><path d="m314.874 67.78h-123.767l-8.947 3.734-88.724 89.239-4.153 8.851v280.052c0 16.794 13.615 30.408 30.408 30.408h195.183c16.794 0 30.408-13.614 30.408-30.408v-351.467c.001-16.794-13.614-30.409-30.408-30.409z" fill="#8479c2"/><g><path d="m133.458 454.186v-333.688l-40.022 40.255-4.153 8.851v280.052c0 16.794 13.615 30.408 30.408 30.408h27.541c-8.309-5.603-13.774-15.102-13.774-25.878z" fill="#6e60b8"/></g><g><path d="m44.385 367.39h-17.515c-4.267 0-7.726-3.459-7.726-7.726 0-4.268 3.459-7.726 7.726-7.726h17.515c4.267 0 7.726 3.459 7.726 7.726s-3.459 7.726-7.726 7.726z" fill="#ffc250"/></g><g><path d="m407.696 367.39h-17.515c-4.267 0-7.726-3.459-7.726-7.726 0-4.268 3.459-7.726 7.726-7.726h17.515c4.267 0 7.726 3.459 7.726 7.726s-3.459 7.726-7.726 7.726z" fill="#ffc250"/></g><g><path d="m32.876 410.915c-2.134-3.695-.868-8.421 2.828-10.554l15.168-8.758c3.695-2.132 8.42-.868 10.554 2.828 2.134 3.695.868 8.42-2.828 10.554l-15.168 8.758c-3.696 2.133-8.421.867-10.554-2.828z" fill="#ffc250"/></g><g><path d="m373.139 324.896c-2.134-3.695-.868-8.421 2.828-10.554l15.168-8.758c3.695-2.133 8.421-.867 10.554 2.828 2.134 3.695.868 8.421-2.828 10.554l-15.168 8.758c-3.696 2.133-8.421.867-10.554-2.828z" fill="#ffc250"/></g><g><path d="m391.135 413.743-15.168-8.758c-3.696-2.134-4.962-6.859-2.828-10.554 2.133-3.696 6.859-4.961 10.554-2.828l15.168 8.758c3.696 2.134 4.962 6.859 2.828 10.554-2.133 3.695-6.857 4.961-10.554 2.828z" fill="#ffc250"/></g><g><path d="m50.873 327.724-15.168-8.758c-3.696-2.134-4.962-6.859-2.828-10.554 2.133-3.696 6.859-4.962 10.554-2.828l15.168 8.758c3.696 2.134 4.962 6.859 2.828 10.554-2.133 3.695-6.858 4.961-10.554 2.828z" fill="#ffc250"/></g><g><path d="m430.916 93.231c-4.267 0-7.726-3.459-7.726-7.726v-75.546c0-4.268 3.459-7.726 7.726-7.726s7.726 3.459 7.726 7.726v75.546c0 4.267-3.459 7.726-7.726 7.726z" fill="#e61e2b"/></g><g><path d="m485.13 93.231c-4.267 0-7.726-3.459-7.726-7.726v-75.546c0-4.268 3.459-7.726 7.726-7.726s7.726 3.459 7.726 7.726v75.546c0 4.267-3.459 7.726-7.726 7.726z" fill="#e61e2b"/></g><path d="m485.516 0h-54.986c-4.054 0-7.34 3.286-7.34 7.34v24.597h69.667v-24.597c-.001-4.054-3.287-7.34-7.341-7.34z" fill="#ff636e"/><path d="m454.052 0h-23.523c-4.054 0-7.34 3.286-7.34 7.34v24.597h23.523v-24.597c0-4.054 3.286-7.34 7.34-7.34z" fill="#ff4654"/><path d="m89.283 98.189v71.415l101.824-101.824h-71.416c-16.793 0-30.408 13.615-30.408 30.409z" fill="#ffd064"/><path d="m133.458 93.659c0-10.776 5.465-20.275 13.774-25.879h-27.541c-16.794 0-30.408 13.614-30.408 30.409v71.415l44.175-44.175z" fill="#ffc250"/><g><path d="m217.283 445.512c-47.337 0-85.848-38.511-85.848-85.848s38.511-85.848 85.848-85.848 85.848 38.511 85.848 85.848-38.511 85.848-85.848 85.848z" fill="#f9f6f9"/></g><path d="m165.088 359.664c0-41.579 29.715-76.338 69.022-84.182-5.444-1.086-11.068-1.666-16.826-1.666-47.337 0-85.848 38.511-85.848 85.848s38.511 85.848 85.848 85.848c5.759 0 11.383-.58 16.826-1.666-39.307-7.844-69.022-42.603-69.022-84.182z" fill="#cbe2ff"/><g><path d="m217.283 237.32c-33.457 0-60.676-27.219-60.676-60.676s27.219-60.676 60.676-60.676 60.676 27.219 60.676 60.676-27.219 60.676-60.676 60.676z" fill="#f9f6f9"/></g><path d="m189.047 176.644c0-27.839 18.853-51.343 44.456-58.457-5.166-1.435-10.602-2.219-16.22-2.219-33.457 0-60.676 27.219-60.676 60.676s27.219 60.676 60.676 60.676c5.618 0 11.053-.784 16.22-2.219-25.604-7.114-44.456-30.618-44.456-58.457z" fill="#cbe2ff"/><path d="m217.283 146.873c-16.415 0-29.771 13.355-29.771 29.771s13.355 29.771 29.771 29.771 29.771-13.355 29.771-29.771c-.001-16.415-13.356-29.771-29.771-29.771z" fill="#6e60b8"/><path d="m219.952 176.644c0-10.435 5.402-19.627 13.551-24.945-4.67-3.047-10.239-4.826-16.22-4.826-16.415 0-29.771 13.355-29.771 29.771s13.355 29.771 29.771 29.771c5.98 0 11.55-1.779 16.22-4.826-8.15-5.317-13.551-14.509-13.551-24.945z" fill="#6353b2"/><circle cx="217.283" cy="359.664" fill="#6e60b8" r="54.943"/><path d="m195.993 359.664c0-24.427 16.028-45.173 38.116-52.297-5.306-1.712-10.958-2.646-16.826-2.646-30.296 0-54.942 24.647-54.942 54.943s24.647 54.943 54.942 54.943c5.868 0 11.52-.934 16.826-2.646-22.088-7.124-38.116-27.87-38.116-52.297z" fill="#6353b2"/><circle cx="419.069" cy="85.505" fill="#ff636e" r="19.573"/><circle cx="473.283" cy="85.505" fill="#ff636e" r="19.573"/><g fill="#ff4654"><path d="m419.069 85.505c0-7.241 3.942-13.548 9.787-16.934-2.881-1.669-6.217-2.64-9.787-2.64-10.81 0-19.573 8.763-19.573 19.573s8.763 19.573 19.573 19.573c3.569 0 6.905-.971 9.787-2.64-5.845-3.385-9.787-9.692-9.787-16.932z"/><path d="m473.283 85.505c0-7.241 3.942-13.548 9.787-16.934-2.881-1.669-6.217-2.64-9.787-2.64-10.81 0-19.573 8.763-19.573 19.573s8.763 19.573 19.573 19.573c3.569 0 6.905-.971 9.787-2.64-5.845-3.385-9.787-9.692-9.787-16.932z"/></g></g></svg>