<svg id="Layer_1" enable-background="new 0 0 512 512" height="512" viewBox="0 0 512 512" width="512" xmlns="http://www.w3.org/2000/svg"><g><path d="m481.311 349.7-20.122-6.408h-419.768l-10.732 6.408c-82.114 136.381 225.308 130.669 225.311 130.669s307.425 5.712 225.311-130.669z" fill="#ffd064"/><path d="m99.649 361.761-7.939-18.469h-50.29l-10.731 6.408c-53.588 89.002 58.721 117.487 143.223 126.538-88.297-43.405-74.263-114.477-74.263-114.477z" fill="#ffc250"/><path d="m454.651 355.196-12.21-5.496h-377.814l-7.278 5.496c-49.533 91.623 198.649 87.661 198.651 87.661s248.184 3.962 198.651-87.661z" fill="#ffc250"/><path d="m99.649 361.761-5.184-12.061h-29.838l-7.278 5.496c-21.466 39.707 12.986 61.46 58.917 73.365-23.013-34.405-16.617-66.8-16.617-66.8z" fill="#ebb044"/><path d="m55.413 136.803c-19.51 17.425-32.849 40.694-38.005 66.34l-16.448 81.822c-2.878 14.315.793 29.167 10.008 40.494l19.721 24.241 14.659-18.011 38.022-186.363 70.221-57.034.726-3.631c-39.68 5.906-75.092 30.875-98.904 52.142z" fill="#cbe2ff"/><path d="m511.04 284.965-16.449-81.823c-5.156-25.646-18.495-48.914-38.005-66.34-23.812-21.267-59.223-46.236-98.904-52.142l.782 1.054 76.377 71.571 34.645 175.653 11.826 16.761 19.721-24.241c9.215-11.325 12.885-26.178 10.007-40.493z" fill="#f9f6f9"/><path d="m455.149 188.703c-7.266-44.717-37.987-82.019-80.406-97.925-27.743-10.402-60.328-20.465-90.969-24.653l-3.062-1.665h-50.964l-1.522 1.665c-30.641 4.188-63.226 14.251-90.969 24.653-42.42 15.906-73.14 53.208-80.407 97.925l-26.161 160.997c92.11 21.421 225.311 23.564 225.311 23.564s133.201-2.142 225.311-23.563z" fill="#80b4fb"/><path d="m122.548 190.569c6.667-49.844 34.854-91.423 73.775-109.153 13.282-6.05 27.778-11.988 42.595-16.956h-9.169l-1.522 1.665c-30.642 4.188-63.227 14.251-90.97 24.653-42.42 15.906-73.14 53.208-80.407 97.925l-26.161 160.997c21.488 4.997 45.213 8.945 68.96 12.061z" fill="#61a2f9"/><path d="m263.051 31.597h-14.103c-13.5 0-24.545 11.045-24.545 24.545 0 8.296 6.788 15.084 15.084 15.084h33.024c8.296 0 15.084-6.788 15.084-15.084.001-13.5-11.044-24.545-24.544-24.545z" fill="#ffd064"/><path d="m253.322 56.142c0-10.92 7.229-20.232 17.137-23.392-2.34-.747-4.829-1.153-7.408-1.153h-14.103c-13.5 0-24.545 11.045-24.545 24.545 0 8.296 6.788 15.084 15.084 15.084h28.919c-8.296 0-15.084-6.788-15.084-15.084z" fill="#ffc250"/></g></svg>