<svg id="Layer_1" enable-background="new 0 0 512 512" height="512" viewBox="0 0 512 512" width="512" xmlns="http://www.w3.org/2000/svg"><g><path d="m237.722 163.934h36.556v95.182h-36.556z" fill="#8479c2"/><path d="m127.944 163.934c-20.181 0-36.692 16.512-36.692 36.692v47.801l11.585 10.69h99.584v-91.931l-4.539-3.251h-69.938z" fill="#8479c2"/><path d="m155.638 200.626c0-20.181 16.512-36.692 36.692-36.692h-64.386c-20.181 0-36.692 16.512-36.692 36.692v47.801l11.585 10.69h64.386l-11.585-10.69z" fill="#6e60b8"/><path d="m384.057 163.934h-69.938l-6.964 5.557v89.625h105.078l8.515-10.69v-47.801c0-20.179-16.511-36.691-36.691-36.691z" fill="#8479c2"/><path d="m414.98 274.569h-315.577l-8.151 5.486v126.513c0 58.229 47.203 105.432 105.431 105.432h118.634c58.228 0 105.431-47.203 105.431-105.431v-126.513z" fill="#f9f6f9"/><path d="m155.638 406.569v-126.513l8.151-5.486h-64.386l-8.151 5.486v126.513c0 58.228 47.203 105.431 105.431 105.431h64.386c-58.228 0-105.431-47.203-105.431-105.431z" fill="#cbe2ff"/><path d="m388.979 109.064 3.166-5.676v-96.836l-3.166-2.983c-10.574-2.307-22.026-3.569-33.985-3.569-19.123 0-36.951 3.226-51.964 8.793-8.458 3.136-14.47 10.483-16.203 19.116-1.01 5.032-2.209 10.025-3.898 14.872-7.085 20.326-10.704 41.698-10.704 63.224v142.423l4.287 6.054h33.003l4.603-6.054v-122.128c0-9.394 8.308-16.645 17.606-15.308 7.453 1.071 15.246 1.641 23.269 1.641 11.96 0 23.412-1.262 33.986-3.569z" fill="#f9f6f9"/><g><path d="m388.979 73.523c-10.574 2.307-22.026 3.568-33.984 3.568-8.023 0-15.816-.569-23.269-1.641-9.298-1.337-17.606 5.914-17.606 15.308v35.542c0-9.394 8.308-16.645 17.606-15.308 7.453 1.071 15.246 1.641 23.269 1.641 11.959 0 23.411-1.262 33.984-3.568l3.166-5.676v-35.542z" fill="#cbe2ff"/></g><path d="m229.071 42.781c-1.69-4.847-2.888-9.84-3.898-14.872-1.733-8.632-7.745-15.979-16.203-19.116-15.013-5.567-32.841-8.793-51.964-8.793-11.959 0-23.411 1.262-33.985 3.568l-3.702 5.473v93.746l3.702 6.277c10.574 2.307 22.026 3.568 33.985 3.568 8.023 0 15.816-.569 23.269-1.641 9.298-1.337 17.606 5.914 17.606 15.308v122.127l3.466 4.766h35.155l3.273-4.766v-142.422c0-21.525-3.619-42.898-10.704-63.223z" fill="#f9f6f9"/><g><path d="m356.528 44.126h-8.579c-4.267 0-7.726-3.459-7.726-7.726s3.459-7.726 7.726-7.726h8.579c4.267 0 7.726 3.459 7.726 7.726s-3.459 7.726-7.726 7.726z" fill="#9dc6fb"/></g><g><path d="m197.881 90.759c0-9.394-8.308-16.645-17.606-15.308-7.453 1.071-15.246 1.641-23.269 1.641-11.959 0-23.411-1.262-33.985-3.568l-3.702-6.277v35.541l3.702 6.277c10.574 2.307 22.026 3.568 33.985 3.568 8.023 0 15.816-.569 23.269-1.641 9.298-1.337 17.606 5.914 17.606 15.308z" fill="#cbe2ff"/></g><g><path d="m164.051 44.126h-8.579c-4.267 0-7.726-3.459-7.726-7.726s3.459-7.726 7.726-7.726h8.579c4.267 0 7.726 3.459 7.726 7.726s-3.459 7.726-7.726 7.726z" fill="#9dc6fb"/></g><path d="m422.202 248.427h-332.404c-5.887 0-10.66 4.773-10.66 10.66v10.309c0 5.887 4.773 10.66 10.66 10.66h332.404c5.887 0 10.66-4.773 10.66-10.66v-10.309c0-5.887-4.773-10.66-10.66-10.66z" fill="#cbe2ff"/><path d="m143.524 269.396v-10.309c0-5.887 4.773-10.66 10.66-10.66h-64.386c-5.887 0-10.66 4.773-10.66 10.66v10.309c0 5.887 4.773 10.66 10.66 10.66h64.386c-5.887 0-10.66-4.773-10.66-10.66z" fill="#9dc6fb"/><path d="m406.958 8.793c-5.625-2.086-11.644-3.843-17.979-5.225v105.496c6.335-1.382 12.355-3.139 17.979-5.224 10.102-3.746 16.715-13.499 16.715-24.274v-46.5c0-10.774-6.613-20.527-16.715-24.273z" fill="#8479c2"/><path d="m406.958 68.299c-5.625 2.086-11.644 3.843-17.979 5.224v35.541c6.335-1.382 12.355-3.139 17.979-5.224 10.102-3.746 16.715-13.499 16.715-24.274v-35.541c0 10.775-6.613 20.528-16.715 24.274z" fill="#6e60b8"/><path d="m105.042 8.793c5.625-2.086 11.644-3.843 17.979-5.225v105.496c-6.335-1.382-12.355-3.139-17.979-5.224-10.102-3.746-16.715-13.499-16.715-24.274v-46.5c0-10.774 6.613-20.527 16.715-24.273z" fill="#8479c2"/><path d="m88.328 44.025v35.541c0 10.775 6.612 20.528 16.715 24.274 5.625 2.086 11.644 3.843 17.979 5.224v-35.541c-6.335-1.382-12.355-3.139-17.979-5.224-10.103-3.746-16.715-13.499-16.715-24.274z" fill="#6e60b8"/></g></svg>