<svg id="Layer_1" enable-background="new 0 0 512 512" height="512" viewBox="0 0 512 512" width="512" xmlns="http://www.w3.org/2000/svg"><g><path d="m402.586 138.025h-31.247c-15.088 0-27.432 12.344-27.432 27.432v5.592l2.309 2.993h62.669l17.255 7.04 3.877-1.222v-14.402c.001-15.089-12.344-27.433-27.431-27.433z" fill="#6e60b8"/><g><path d="m256.261 151.077c-4.267 0-7.726-3.459-7.726-7.726v-7.547c0-.277.015-.552.044-.827.999-9.279 4.298-14.819 7.208-19.707 2.978-5.003 5.331-8.955 5.331-17.605 0-8.646-2.353-12.595-5.332-17.592-3.347-5.615-7.512-12.602-7.512-25.504s4.165-19.89 7.512-25.505c2.979-4.999 5.332-8.948 5.332-17.595 0-4.268 3.459-7.726 7.726-7.726s7.726 3.459 7.726 7.726c0 12.903-4.165 19.891-7.512 25.506-2.979 4.999-5.332 8.947-5.332 17.593s2.353 12.595 5.332 17.592c3.347 5.615 7.512 12.602 7.512 25.504 0 12.901-4.162 19.892-7.506 25.509-2.45 4.115-4.396 7.383-5.077 13.066v7.111c0 4.268-3.459 7.727-7.726 7.727z" fill="#f9f6f9"/></g><path d="m140.662 138.025h-31.248c-15.087 0-27.431 12.344-27.431 27.432v14.402l1.71 1.565 26.441-8.07h52.453l5.506-2.306v-5.592c0-15.087-12.344-27.431-27.431-27.431z" fill="#6e60b8"/><g><path d="m380.307 165.456c0-14.219 10.965-25.996 24.856-27.306-.849-.08-1.707-.126-2.576-.126h-31.247c-15.088 0-27.432 12.344-27.432 27.432v5.592l2.309 2.993h36.4l-2.309-2.993v-5.592z" fill="#6353b2"/></g><path d="m118.382 165.456c0-14.219 10.964-25.996 24.855-27.306-.849-.08-1.707-.126-2.576-.126h-31.248c-15.087 0-27.431 12.344-27.431 27.432v14.402l1.71 1.565 26.441-8.07h8.248v-7.897z" fill="#6353b2"/><path d="m261.681 138.025h-11.363c-7.273 0-13.224 5.951-13.224 13.224v19.8l1.811 2.134h33.051l2.948-2.134v-19.8c.001-7.274-5.95-13.224-13.223-13.224z" fill="#8479c2"/><path d="m256 151.249c0-5.963 4.003-11.031 9.453-12.665-1.197-.359-2.462-.558-3.771-.558h-11.363c-7.273 0-13.224 5.951-13.224 13.224v19.8l1.811 2.134h18.905l-1.811-2.135z" fill="#6e60b8"/><path d="m13.211 387.288 87.909 49.792 12.003.422 14.192-36.17c2.892-6.194 6.922-11.623 11.771-16.089l3.298-5.338 62.182-12.105 2.829 3.81h97.209l5.298-1.298 60.265 11.524 2.746 3.406c4.849 4.466 8.878 9.895 11.771 16.089l14.192 36.17 9.923.951 89.282-52.394 6.647-9.671c-7.02-51.927-19.859-111.313-43.243-162.725-11.793-25.928-37.602-42.615-66.086-42.615-12.233 0-266.566 0-278.8 0-28.484 0-54.293 16.687-66.086 42.615-23.382 51.413-36.221 110.8-43.242 162.727z" fill="#8479c2"/><g><path d="m92.237 213.664c11.793-25.928 37.601-42.615 66.086-42.615-22.938 0-38.878 0-41.722 0-28.484 0-54.293 16.687-66.086 42.615-23.384 51.411-36.223 110.798-43.244 162.725l5.94 10.899 32.33 18.312c6.692-65.535 20.87-135.155 46.696-191.936z" fill="#6e60b8"/></g><circle cx="171.626" cy="370.313" fill="#6e60b8" r="35.803"/><circle cx="340.374" cy="370.313" fill="#6e60b8" r="35.803"/><path d="m168.093 370.313c0-13.967 8.002-26.057 19.668-31.958-4.85-2.453-10.328-3.845-16.135-3.845-19.773 0-35.802 16.029-35.802 35.803s16.029 35.803 35.802 35.803c5.807 0 11.285-1.391 16.135-3.845-11.665-5.901-19.668-17.991-19.668-31.958z" fill="#6353b2"/><path d="m336.841 370.313c0-13.967 8.003-26.057 19.668-31.958-4.85-2.453-10.328-3.845-16.135-3.845-19.773 0-35.803 16.029-35.803 35.803s16.029 35.803 35.803 35.803c5.807 0 11.285-1.391 16.135-3.845-11.665-5.901-19.668-17.991-19.668-31.958z" fill="#6353b2"/><g><path d="m272.597 323.87h-33.193c-4.267 0-7.726-3.459-7.726-7.726 0-4.268 3.459-7.726 7.726-7.726h33.193c4.267 0 7.726 3.459 7.726 7.726s-3.459 7.726-7.726 7.726z" fill="#ff636e"/></g><path d="m182.101 171.049 25.406 69.038c4.228 11.488 15.17 19.121 27.411 19.121h42.165c12.241 0 23.183-7.633 27.411-19.121l25.406-69.038c-44.583 0-103.217 0-147.799 0z" fill="#6e60b8"/><path d="m252.142 240.087-25.406-69.038c-15.669 0-30.827 0-44.635 0l25.406 69.038c4.228 11.488 15.17 19.121 27.411 19.121h42.165c.415 0 .824-.031 1.235-.048-11.736-.496-22.091-7.974-26.176-19.073z" fill="#6353b2"/><g fill="#6e60b8"><circle cx="125.038" cy="233.577" r="17.347"/><circle cx="125.038" cy="297.788" r="17.347"/><circle cx="92.932" cy="265.683" r="17.347"/><circle cx="157.143" cy="265.683" r="17.347"/></g><path d="m125.038 233.577c0-6.417 3.493-12.007 8.674-15.007-2.553-1.479-5.51-2.34-8.674-2.34-9.58 0-17.347 7.767-17.347 17.347 0 9.581 7.767 17.347 17.347 17.347 3.163 0 6.12-.86 8.674-2.34-5.181-3-8.674-8.59-8.674-15.007z" fill="#6353b2"/><path d="m125.038 297.788c0-6.417 3.493-12.007 8.674-15.007-2.553-1.479-5.51-2.34-8.674-2.34-9.58 0-17.347 7.767-17.347 17.347s7.767 17.347 17.347 17.347c3.163 0 6.12-.86 8.674-2.34-5.181-3-8.674-8.589-8.674-15.007z" fill="#6353b2"/><path d="m92.932 265.683c0-6.417 3.493-12.007 8.674-15.007-2.554-1.479-5.51-2.34-8.674-2.34-9.58 0-17.347 7.767-17.347 17.347 0 9.581 7.767 17.347 17.347 17.347 3.163 0 6.12-.86 8.674-2.34-5.18-3-8.674-8.59-8.674-15.007z" fill="#6353b2"/><path d="m157.143 265.683c0-6.417 3.493-12.007 8.674-15.007-2.553-1.479-5.51-2.34-8.674-2.34-9.58 0-17.347 7.767-17.347 17.347 0 9.581 7.767 17.347 17.347 17.347 3.163 0 6.12-.86 8.674-2.34-5.18-3-8.674-8.59-8.674-15.007z" fill="#6353b2"/><path d="m413.999 476.044c7.625 19.432 26.37 32.214 47.245 32.214 29 0 52.14-24.258 50.691-53.223-1.094-21.887-3.206-49.056-7.207-78.646l-105.852 61.114z" fill="#80b4fb"/><path d="m98.001 476.044c-7.625 19.432-26.37 32.214-47.245 32.214-29 0-52.14-24.258-50.691-53.223 1.094-21.887 3.206-49.056 7.207-78.646l105.852 61.114z" fill="#80b4fb"/><path d="m41.787 455.035c.906-18.137 2.366-36.992 4.464-56.141l-38.98-22.505c-4 29.59-6.113 56.759-7.207 78.646-1.448 28.965 21.691 53.223 50.691 53.223 7.344 0 14.421-1.588 20.847-4.485-18.389-8.306-30.891-27.218-29.815-48.738z" fill="#61a2f9"/><circle cx="386.962" cy="233.577" fill="#6e60b8" r="17.347"/><circle cx="386.962" cy="297.788" fill="#6e60b8" r="17.347"/><circle cx="354.857" cy="265.683" fill="#6e60b8" r="17.347"/><circle cx="419.068" cy="265.683" fill="#6e60b8" r="17.347"/><path d="m386.962 233.577c0-6.417 3.493-12.007 8.673-15.007-2.553-1.479-5.51-2.34-8.673-2.34-9.58 0-17.347 7.767-17.347 17.347 0 9.581 7.767 17.347 17.347 17.347 3.163 0 6.12-.86 8.673-2.34-5.179-3-8.673-8.59-8.673-15.007z" fill="#6353b2"/><path d="m386.962 297.788c0-6.417 3.493-12.007 8.673-15.007-2.553-1.479-5.51-2.34-8.673-2.34-9.58 0-17.347 7.767-17.347 17.347s7.767 17.347 17.347 17.347c3.163 0 6.12-.86 8.673-2.34-5.179-3-8.673-8.589-8.673-15.007z" fill="#6353b2"/><path d="m354.857 265.683c0-6.417 3.493-12.007 8.674-15.007-2.554-1.479-5.51-2.34-8.674-2.34-9.58 0-17.347 7.767-17.347 17.347 0 9.581 7.767 17.347 17.347 17.347 3.163 0 6.12-.86 8.674-2.34-5.181-3-8.674-8.59-8.674-15.007z" fill="#6353b2"/><path d="m419.068 265.683c0-6.417 3.493-12.007 8.674-15.007-2.553-1.479-5.51-2.34-8.674-2.34-9.58 0-17.347 7.767-17.347 17.347 0 9.581 7.767 17.347 17.347 17.347 3.163 0 6.12-.86 8.674-2.34-5.181-3-8.674-8.59-8.674-15.007z" fill="#6353b2"/></g></svg>