<svg id="Layer_1" enable-background="new 0 0 512 512" height="512" viewBox="0 0 512 512" width="512" xmlns="http://www.w3.org/2000/svg"><g><path d="m455.672 244.179 8.424-3.318v-147.115c0-51.775-41.972-93.746-93.746-93.746s-93.746 41.971-93.746 93.746v10.824l8.574 16.503z" fill="#ffd064"/><path d="m320.445 88.044c0-42.195 29.689-77.439 69.313-86.028-6.263-1.318-12.754-2.016-19.408-2.016-51.774 0-93.746 41.971-93.746 93.746v10.824l8.574 16.503 35.267 25.465z" fill="#ffc250"/><path d="m285.178 255.263-8.574 2.138v160.853c0 51.774 41.972 93.746 93.746 93.746s93.746-41.972 93.746-93.746v-24.562l-5.848-13.701z" fill="#ffd064"/><path d="m320.445 423.956v-143.277l-35.267-25.416-8.574 2.138v160.853c0 51.774 41.972 93.746 93.746 93.746 6.655 0 13.146-.698 19.408-2.017-39.624-8.588-69.313-43.832-69.313-86.027z" fill="#ffc250"/><path d="m67.22 137.556h151.511l16.665-13.59v-30.22c.001-51.775-41.971-93.746-93.746-93.746s-93.746 41.971-93.746 93.746v30.22h19.316z" fill="#8479c2"/><path d="m83.778 137.556c0-25.951 0-43.03 0-43.81 0-45.639 32.616-83.654 75.809-92.024-5.806-1.126-11.801-1.722-17.937-1.722-51.774 0-93.746 41.971-93.746 93.746v30.22h19.316v13.59z" fill="#6e60b8"/><path d="m61.286 358.357h154.795l19.316-11.53v-181.654l-16.15-13.003h-152.027l-19.316 13.003v181.654z" fill="#8479c2"/><path d="m83.778 152.17h-16.558l-19.316 13.003v181.654l13.382 11.53h22.492c0-58.797 0-147.896 0-206.187z" fill="#6e60b8"/><path d="m235.397 388.034-16.837-12.164h-157.274l-13.382 12.164v30.22c0 51.774 41.972 93.746 93.746 93.746s93.746-41.972 93.746-93.746v-30.22z" fill="#8479c2"/><path d="m83.778 418.254c0-.349 0-16.912 0-42.384h-22.492l-13.382 12.164v30.22c0 51.774 41.972 93.746 93.746 93.746 6.135 0 12.13-.596 17.937-1.721-43.193-8.371-75.809-46.386-75.809-92.025z" fill="#6e60b8"/><path d="m276.603 183.046 187.493 136.291v-78.476l-187.493-136.291z" fill="#ff636e"/><path d="m320.445 136.439-43.841-31.869v78.476l43.841 31.869z" fill="#ff4654"/><g fill="#6e60b8"><path d="m147.145 100.072h-10.988c-8.44 0-15.281 6.842-15.281 15.281v14.45l2.222 2.516h36.228l3.101-2.516v-14.45c-.001-8.439-6.843-15.281-15.282-15.281z"/><path d="m147.145 303.759h-10.988c-8.44 0-15.281 6.842-15.281 15.281v33.625l1.621 1.571h36.4l3.53-1.571v-33.625c-.001-8.439-6.843-15.281-15.282-15.281z"/><path d="m123.011 157.472-2.136 1.862v33.625c0 8.44 6.842 15.281 15.281 15.281h10.988c8.44 0 15.281-6.842 15.281-15.281v-33.625l-2.242-1.862z"/><path d="m123.269 379.991-2.394 2.206v14.45c0 8.439 6.842 15.281 15.281 15.281h10.988c8.44 0 15.281-6.842 15.281-15.281v-14.45l-2.843-2.206z"/></g><path d="m141.65 115.353c0-6.726 4.351-12.424 10.388-14.466-1.538-.52-3.18-.815-4.894-.815h-10.988c-8.44 0-15.281 6.842-15.281 15.281v14.45l2.222 2.516h20.775l-2.222-2.516z" fill="#6353b2"/><path d="m141.65 319.04c0-6.726 4.351-12.424 10.388-14.466-1.538-.52-3.18-.815-4.894-.815h-10.988c-8.44 0-15.281 6.842-15.281 15.281v33.625l1.621 1.571h20.775l-1.621-1.571z" fill="#6353b2"/><path d="m141.65 192.96v-33.625l2.136-1.862h-20.775l-2.136 1.862v33.625c0 8.44 6.842 15.281 15.281 15.281h10.988c1.714 0 3.355-.295 4.894-.815-6.037-2.042-10.388-7.741-10.388-14.466z" fill="#6353b2"/><path d="m141.65 396.647v-14.45l2.394-2.206h-20.775l-2.394 2.206v14.45c0 8.439 6.842 15.281 15.281 15.281h10.988c1.714 0 3.355-.295 4.894-.815-6.037-2.042-10.388-7.74-10.388-14.466z" fill="#6353b2"/><path d="m196.765 129.803h-110.229l-2.243 2.087v23.179l2.243 4.266h110.229l2.737-2.721v-24.381z" fill="#cbe2ff"/><path d="m196.765 352.665h-110.229l-2.758 3.632v21.805l2.758 4.094h110.229l2.222-2.549v-23.522z" fill="#cbe2ff"/><path d="m86.536 144.569-2.243-4.266v14.766l2.243 4.266h110.229l2.737-2.721v-14.766l-2.737 2.721z" fill="#9dc6fb"/><path d="m86.536 367.431-2.758-4.095v14.766l2.758 4.094h110.229l2.222-2.549v-14.765l-2.222 2.549z" fill="#9dc6fb"/><path d="m74.174 111.603h-13.908c-6.799 0-12.362 5.563-12.362 12.362v41.207c0 6.799 5.563 12.362 12.362 12.362h13.907c6.799 0 12.362-5.563 12.362-12.362v-41.207c.001-6.799-5.562-12.362-12.361-12.362z" fill="#f9f6f9"/><path d="m223.034 111.603h-13.907c-6.799 0-12.362 5.563-12.362 12.362v41.207c0 6.799 5.563 12.362 12.362 12.362h13.907c6.799 0 12.362-5.563 12.362-12.362v-41.207c0-6.799-5.562-12.362-12.362-12.362z" fill="#f9f6f9"/><path d="m74.174 400.396h-13.908c-6.799 0-12.362-5.563-12.362-12.362v-41.207c0-6.799 5.563-12.362 12.362-12.362h13.907c6.799 0 12.362 5.563 12.362 12.362v41.207c.001 6.799-5.562 12.362-12.361 12.362z" fill="#f9f6f9"/><path d="m223.034 400.396h-13.907c-6.799 0-12.362-5.563-12.362-12.362v-41.207c0-6.799 5.563-12.362 12.362-12.362h13.907c6.799 0 12.362 5.563 12.362 12.362v41.207c0 6.799-5.562 12.362-12.362 12.362z" fill="#f9f6f9"/><path d="m74.174 149.905h-13.908c-6.799 0-12.362-5.563-12.362-12.362v27.63c0 6.799 5.563 12.362 12.362 12.362h13.907c6.799 0 12.362-5.563 12.362-12.362v-27.63c.001 6.799-5.562 12.362-12.361 12.362z" fill="#cbe2ff"/><path d="m223.034 149.905h-13.907c-6.799 0-12.362-5.563-12.362-12.362v27.63c0 6.799 5.563 12.362 12.362 12.362h13.907c6.799 0 12.362-5.563 12.362-12.362v-27.63c.001 6.799-5.562 12.362-12.362 12.362z" fill="#cbe2ff"/><path d="m74.174 372.766h-13.908c-6.799 0-12.362-5.563-12.362-12.362v27.63c0 6.799 5.563 12.362 12.362 12.362h13.907c6.799 0 12.362-5.563 12.362-12.362v-27.63c.001 6.8-5.562 12.362-12.361 12.362z" fill="#cbe2ff"/><path d="m223.034 372.766h-13.907c-6.799 0-12.362-5.563-12.362-12.362v27.63c0 6.799 5.563 12.362 12.362 12.362h13.907c6.799 0 12.362-5.563 12.362-12.362v-27.63c.001 6.8-5.562 12.362-12.362 12.362z" fill="#cbe2ff"/><path d="m276.603 257.401 187.493 136.291v-76.416l-187.493-136.291z" fill="#80b4fb"/><path d="m320.445 212.855-43.841-31.87v76.416l43.841 31.869z" fill="#61a2f9"/></g></svg>