<svg id="Layer_1" enable-background="new 0 0 512 512" height="512" viewBox="0 0 512 512" width="512" xmlns="http://www.w3.org/2000/svg"><g><path d="m134.257 78.836-24.381-22.588h-5.242c-4.284 3.707-8.455 7.582-12.501 11.628-43.77 43.771-67.876 101.967-67.876 163.868v26.354l2.461 4.625h31.569l7.177-4.625v-26.354c0-58.661 26.654-111.208 68.479-146.187z" fill="#cbe2ff"/><path d="m43.977 251.078c0-74.057 28.656-140.687 74.336-187.014l-8.437-7.816h-5.242c-4.284 3.707-8.455 7.582-12.501 11.628-43.77 43.771-67.876 101.967-67.876 163.868v26.354l2.461 4.625h17.509c-.158-3.861-.25-7.741-.25-11.645z" fill="#9dc6fb"/><path d="m419.868 67.876c-4.046-4.046-8.217-7.922-12.502-11.628l-6.122 1.47-23.186 22.149v5.69c41.825 34.98 68.479 87.526 68.479 146.188v26.353l1.58 1.792h36.399l3.227-1.792v-26.354c.001-61.902-24.104-120.097-67.875-163.868z" fill="#cbe2ff"/><path d="m462.368 201.701c-14.935-84.699-84.282-116.132-84.309-116.145 41.825 34.98 68.478 87.526 68.478 146.187v26.353l1.58 1.792h20.52c-.723-17.701-2.588-37.309-6.269-58.187z" fill="#9dc6fb"/><path d="m77.209 294.598h-5.664l-20.197 20.277v3.136l28.046 30.946h4.642l23.178-14.895 1.13-5.109z" fill="#cbe2ff"/><path d="m62.506 303.672-11.158 11.203v3.136l28.046 30.946h4.642l12.33-7.924z" fill="#9dc6fb"/><path d="m437.386 294.598h-2.595l-31.135 34.355v5.109l23.171 16.225 5.779-1.33 28.046-30.946v-3.522z" fill="#cbe2ff"/><path d="m449.284 304.77-11.898-10.172h-2.595l-31.135 34.355v5.109l11.673 8.174z" fill="#9dc6fb"/><path d="m343.313 326.711h-12.433c-12.193 0-22.077 9.884-22.077 22.077v125.365c0 12.193 9.884 22.077 22.077 22.077h12.434l3.675-3.521v-162.966z" fill="#8479c2"/><path d="m330.88 444.379c-12.193 0-22.077-9.884-22.077-22.077v51.852c0 12.193 9.884 22.077 22.077 22.077h12.434l3.675-3.521v-51.852l-3.675 3.522h-12.434z" fill="#6e60b8"/><path d="m436.426 351.597-40.574-28.036-4.566 3.15v166.256l4.566 6.413 40.574-28.036c10.825-7.48 17.287-19.799 17.287-32.958v-53.833c.001-13.157-6.461-25.476-17.287-32.956z" fill="#ff636e"/><path d="m436.426 419.492-40.574 28.036-4.566-6.413v51.852l4.566 6.413 40.574-28.036c10.825-7.48 17.287-19.799 17.287-32.958v-51.852c.001 13.159-6.461 25.478-17.287 32.958z" fill="#ff4654"/><path d="m482.765 254.911h-6.832l-13.564 18.199v26.012l12.019 14.594 8.378 1.091c10.789-5.64 18.156-16.931 18.156-29.948s-7.369-24.308-18.157-29.948z" fill="#f9f6f9"/><path d="m60.484 254.911-4.392.665-16.955 4.743v40.177l8.499 14.312h12.848c10.789-5.64 18.156-16.931 18.156-29.948s-7.367-24.309-18.156-29.949z" fill="#f9f6f9"/><path d="m464.608 284.859c0-13.018 7.368-24.308 18.156-29.948-4.674-2.443-9.985-3.833-15.624-3.833-18.656 0-33.781 15.124-33.781 33.781s15.124 33.781 33.781 33.781c5.639 0 10.951-1.389 15.624-3.833-10.788-5.64-18.156-16.931-18.156-29.948z" fill="#cbe2ff"/><path d="m42.328 284.859c0-13.018 7.368-24.308 18.156-29.948-4.674-2.443-9.985-3.833-15.624-3.833-18.657 0-33.781 15.124-33.781 33.781s15.124 33.781 33.781 33.781c5.639 0 10.951-1.389 15.624-3.833-10.788-5.64-18.156-16.931-18.156-29.948z" fill="#cbe2ff"/><path d="m256 0c-56.179 0-109.304 19.857-151.366 56.248l29.309 29.309c33.084-27.669 75.657-44.349 122.058-44.349s88.974 16.68 122.057 44.349l29.309-29.309c-42.063-36.391-95.188-56.248-151.367-56.248z" fill="#8479c2"/><path d="m236.752.795c-49.002 4.004-94.894 23.247-132.118 55.452l10.794 10.794c32.764-34.39 74.704-58.133 121.324-66.246z" fill="#6e60b8"/><path d="m383.233 310.942h-27.3c-6.97 0-12.62 5.65-12.62 12.62v175.818c0 6.97 5.65 12.62 12.62 12.62h27.3c6.97 0 12.62-5.65 12.62-12.62v-175.819c-.001-6.969-5.651-12.619-12.62-12.619z" fill="#ff7f87"/><path d="m383.233 460.148h-27.3c-6.97 0-12.62-5.65-12.62-12.62v51.852c0 6.97 5.65 12.62 12.62 12.62h27.3c6.97 0 12.62-5.65 12.62-12.62v-51.852c-.001 6.97-5.651 12.62-12.62 12.62z" fill="#ff636e"/><path d="m168.687 326.711h12.434c12.193 0 22.077 9.884 22.077 22.077v125.365c0 12.193-9.884 22.077-22.077 22.077h-12.434l-3.675-3.521v-162.966z" fill="#8479c2"/><path d="m181.12 444.379c12.193 0 22.077-9.884 22.077-22.077v51.852c0 12.193-9.884 22.077-22.077 22.077h-12.434l-3.675-3.521v-51.852l3.675 3.522h12.434z" fill="#6e60b8"/><path d="m75.574 351.597 40.574-28.036 4.566 3.15v166.256l-4.566 6.413-40.574-28.036c-10.825-7.48-17.287-19.799-17.287-32.958v-53.833c-.001-13.157 6.461-25.476 17.287-32.956z" fill="#ff636e"/><path d="m75.574 419.492 40.574 28.036 4.566-6.413v51.852l-4.566 6.413-40.574-28.036c-10.825-7.48-17.287-19.799-17.287-32.958v-51.852c-.001 13.159 6.461 25.478 17.287 32.958z" fill="#ff4654"/><path d="m128.768 310.942h27.3c6.97 0 12.62 5.65 12.62 12.62v175.818c0 6.97-5.65 12.62-12.62 12.62h-27.3c-6.97 0-12.62-5.65-12.62-12.62v-175.819c0-6.969 5.65-12.619 12.62-12.619z" fill="#ff7f87"/><path d="m128.768 460.148h27.3c6.97 0 12.62-5.65 12.62-12.62v51.852c0 6.97-5.65 12.62-12.62 12.62h-27.3c-6.97 0-12.62-5.65-12.62-12.62v-51.852c0 6.97 5.65 12.62 12.62 12.62z" fill="#ff636e"/></g></svg>