<svg id="Layer_1" enable-background="new 0 0 512 512" height="512" viewBox="0 0 512 512" width="512" xmlns="http://www.w3.org/2000/svg"><g><path d="m158.207 173.842-3.032 2.88v65.465c0 9.513 7.711 17.224 17.224 17.224h42.438l7.499-3.006v-17.661l-37.895-64.902z" fill="#365e7d"/><path d="m190.532 242.187v-57.913l-6.091-10.432h-26.234l-3.032 2.88v65.465c0 9.513 7.711 17.224 17.224 17.224h35.357c-9.513 0-17.224-7.711-17.224-17.224z" fill="#2b4d66"/><path d="m350.595 173.842-22.664 2.88-37.602 62.537v17.146l6.782 3.006h42.494c9.512 0 17.224-7.711 17.224-17.224v-65.469z" fill="#365e7d"/><path d="m441.423 370.351-8.928-27.428 1.755-2.809c-7.313-10.988-17.412-19.537-28.469-24.087-3.429-1.328-48.657-18.844-78.361-30.348l-8.246 7.923h-122.078l-12.656-7.9c-29.68 11.506-77.418 30.014-78.221 30.325-9.291 3.823-20.278 12.09-28.421 24.087l2.886 2.809-8.584 26.298-5.975 5.27c-.072 1.289-.122 2.59-.122 3.915v12.525l6.956 9.81 51.95 15.543v62.369h262.441v-65.292l51.842-17.468 6.806-4.962c0-5.935 0-10.37 0-12.525 0-1.314-.052-2.617-.128-3.915z" fill="#f9f6f9"/><path d="m96.486 374.491c0-28.152 18.271-52.485 32.858-67.429-13.163 5.103-22.767 8.826-23.123 8.965-9.291 3.823-20.278 12.09-28.421 24.087l2.886 2.809-8.586 26.298-5.975 5.27c-.072 1.289-.122 2.59-.122 3.915v12.525l6.956 9.81 23.527 7.039c0-12.883 0-24.424 0-33.289z" fill="#cbe2ff"/><path d="m301.871 275.785c-2.85-1.102-4.744-3.844-4.752-6.916l-.02-24.913-4.452-4.182h-74.06l-3.75 4.329.001 24.721c0 5.69-5.076 7.061-7.24 7.9-.503.195-10.079 3.908-23.156 8.978 6.599 31.31 33.776 57.091 72.309 57.221 34.48.116 63.513-24.725 70.67-57.243-13.641-5.283-24.01-9.299-25.55-9.895z" fill="#ffcebe"/><path d="m256.021 239.775h-37.435l-3.75 4.329.001 24.721c0 5.69-5.076 7.061-7.24 7.9-.503.195-10.079 3.908-23.156 8.978 6.557 31.11 33.436 56.75 71.58 57.203z" fill="#ffb1a0"/><path d="m387.092 407.225v104.775h45.504c7.402 0 13.402-6 13.402-13.402 0-9.243 0-77.7 0-107.667z" fill="#ffcebe"/><path d="m124.908 407.225-58.906-16.294v107.667c0 7.401 6 13.402 13.402 13.402h45.504z" fill="#ffcebe"/><path d="m96.486 399.363-30.483-8.432v107.667c0 7.401 6 13.402 13.402 13.402h17.081c0-30.76 0-78.21 0-112.637z" fill="#ffb1a0"/><g fill="#ffafe2"><path d="m124.908 408.868h262.183v34.377h-262.183z"/><path d="m124.908 477.623h262.183v34.377h-262.183z"/><path d="m434.25 340.114h-157.582c-6.335 1.839-13.014 2.831-19.917 2.808-7.44-.025-14.45-1.016-20.977-2.808h-157.975c-6.322 9.315-10.919 20.881-11.674 34.377h379.745c-.746-12.677-5.054-24.512-11.62-34.377z"/></g><path d="m77.799 340.114c-6.322 9.315-10.919 20.881-11.674 34.377h30.361c0-12.351 3.519-23.966 8.699-34.377z" fill="#ff94d5"/><g fill="#ff94d5"><path d="m132.635 512v-135.052c0-4.267-3.459-7.726-7.726-7.726s-7.726 3.459-7.726 7.726v135.052z"/><path d="m394.818 512v-135.052c0-4.267-3.459-7.726-7.726-7.726s-7.726 3.459-7.726 7.726v135.052z"/></g><path d="m157.091 135.811-1.9 4.081c-4.567 4.936-7.346 11.374-7.346 18.426 0 17.148 16.414 30.674 35.071 27.742l2.089-1.091v-54.567c-16.21-3.948-27.914 5.409-27.914 5.409z" fill="#ffcebe"/><path d="m164.302 157.946c0-12.284 6.986-22.929 17.197-28.201-14.364-1.954-24.408 6.066-24.408 6.066l-1.9 4.081c-4.567 4.936-7.346 11.374-7.346 18.426 0 16.759 15.678 30.049 33.806 27.907-10.294-5.244-17.349-15.935-17.349-28.279z" fill="#ffb1a0"/><path d="m356.792 139.872-1.948-4.018s-10.688-8.37-26.914-5.795v54.858l1.133 1.14c18.666 2.945 35.092-10.585 35.092-27.739 0-7.061-2.786-13.508-7.363-18.446z" fill="#ffcebe"/><path d="m346.989 131.816c-4.674-1.688-11.216-3.002-19.059-1.757v54.858l1.133 1.14c6.436 1.015 12.604.071 17.926-2.304z" fill="#ffb1a0"/><path d="m321.578 125.853h-31.421l-29.096-29.704h-10.081l-26.245 26.128v61.95c0 30.874 19.437 59.587 50.694 69.72 30.827-8.338 53.696-36.983 53.696-70.335v-51.829z" fill="#ffdecf"/><path d="m225.831 184.322v-63.136l-6.757 6.727h-31.077l-5.122 3.871v52.538c0 37.579 29.376 71.933 73.876 72.083 7.278.025 14.31-1.073 20.95-3.11-31.915-9.256-51.87-38.01-51.87-68.973z" fill="#ffcebe"/><path d="m255.247.003c-55.597.406-100.072 46.488-100.072 102.087v37.814c6.782-5.517 16.357-9.697 27.66-8.12h.04 19.119c2.494 0 16.519-1.142 15.489-1.063 17.564-1.345 33.058-14.588 37.324-32.189.135-.556.623-.953 1.196-.953s1.061.397 1.196.953c4.218 17.36 19.417 30.632 36.919 32.116 12.701 1.077 12.873 1.136 15.164 1.136h19.845.039c11.517-1.642 21.336 2.369 27.664 8.12 0-15.865 0-33.418 0-39.077-.001-55.937-45.548-101.234-101.583-100.824z" fill="#365e7d"/><g><path d="m190.532 102.09c0-49.848 35.752-92.039 83.216-100.528-6.001-1.066-12.183-1.606-18.501-1.559-55.597.406-100.072 46.488-100.072 102.087v37.814c6.782-5.517 16.357-9.697 27.66-8.121h.04 7.657z" fill="#2b4d66"/></g><path d="m231.168 131.508h-36.164c-6.648 0-12.087 5.439-12.087 12.087v18.916c0 12.607 10.315 22.922 22.922 22.922h14.494c12.607 0 22.922-10.315 22.922-22.922v-18.916c-.001-6.648-5.44-12.087-12.087-12.087z" fill="#9dc6fb"/><path d="m317.039 131.508h-36.164c-6.648 0-12.087 5.439-12.087 12.087v18.916c0 12.607 10.315 22.922 22.922 22.922h14.494c12.607 0 22.922-10.315 22.922-22.922v-18.916c0-6.648-5.439-12.087-12.087-12.087z" fill="#9dc6fb"/><path d="m213.086 162.51v-18.916c0-6.648 5.439-12.087 12.087-12.087h-30.169c-6.648 0-12.087 5.439-12.087 12.087v18.916c0 12.607 10.315 22.922 22.922 22.922h14.494c2.749 0 5.389-.491 7.837-1.389-8.778-3.219-15.084-11.675-15.084-21.533z" fill="#80b4fb"/><path d="m298.957 162.51v-18.916c0-6.648 5.439-12.087 12.087-12.087h-30.169c-6.647 0-12.086 5.439-12.086 12.087v18.916c0 12.607 10.315 22.922 22.922 22.922h14.494c2.749 0 5.389-.491 7.837-1.389-8.778-3.219-15.085-11.675-15.085-21.533z" fill="#80b4fb"/><g><path d="m220.333 193.158h-14.494c-16.9 0-30.648-13.749-30.648-30.648v-18.916c0-10.925 8.888-19.813 19.813-19.813h36.164c10.925 0 19.813 8.888 19.813 19.813v18.916c0 16.9-13.749 30.648-30.648 30.648zm-25.33-53.924c-2.364 0-4.36 1.997-4.36 4.36v18.916c0 8.379 6.816 15.195 15.195 15.195h14.494c8.379 0 15.195-6.816 15.195-15.195v-18.916c0-2.364-1.996-4.36-4.36-4.36z" fill="#8479c2"/></g><g><path d="m306.204 193.158h-14.494c-16.9 0-30.649-13.749-30.649-30.648v-18.916c0-10.925 8.888-19.813 19.813-19.813h36.165c10.925 0 19.813 8.888 19.813 19.813v18.916c0 16.9-13.748 30.648-30.648 30.648zm-25.33-53.924c-2.364 0-4.36 1.997-4.36 4.36v18.916c0 8.379 6.817 15.195 15.196 15.195h14.494c8.379 0 15.195-6.816 15.195-15.195v-18.916c0-2.364-1.996-4.36-4.36-4.36z" fill="#8479c2"/></g><g><path d="m267.758 160.192h-23.473c-4.267 0-7.726-3.459-7.726-7.726s3.459-7.726 7.726-7.726h23.473c4.267 0 7.726 3.459 7.726 7.726s-3.459 7.726-7.726 7.726z" fill="#9790cc"/></g></g></svg>