<svg id="Layer_1" enable-background="new 0 0 512 512" height="512" viewBox="0 0 512 512" width="512" xmlns="http://www.w3.org/2000/svg"><g><path d="m356.532 34.091c-80.613 0-146.892 61.355-154.696 139.915l3.361 15.554 91.362 140.64 13.607 7.795c14.644 4.57 30.218 7.034 46.367 7.034 85.863 0 155.468-69.606 155.468-155.468-.001-85.864-69.606-155.47-155.469-155.47z" fill="#ff7f87"/><path d="m268.45 189.559c0-74.292 52.113-136.402 121.775-151.796-10.85-2.398-22.122-3.673-33.693-3.673-80.613 0-146.892 61.355-154.696 139.915l3.361 15.554 91.362 140.64 13.607 7.795c14.644 4.57 30.218 7.034 46.367 7.034 11.571 0 22.843-1.275 33.693-3.673-69.663-15.394-121.776-77.504-121.776-151.796z" fill="#ff636e"/><path d="m469.568 83.076.123-.115c-3.536-3.752-7.254-7.331-11.144-10.718-30.235 29.234-47.665 67.884-49.583 109.589h-44.705v-147.549c-2.56-.125-5.135-.192-7.726-.192s-5.167.066-7.727.191v147.551h-44.706c-1.919-41.732-19.366-80.402-49.585-109.591-3.89 3.385-7.603 6.967-11.138 10.719l.078.077c27.394 26.333 43.264 61.171 45.177 98.795h-85.107l1.669 7.726 5.019 7.727h78.41c-.724 14.06-3.418 27.848-8.051 41.085-.027.077-.053.155-.077.233l-14.174 45.051 9.933 15.291c1.202-.931 2.152-2.213 2.642-3.773l16.302-51.815c5.183-14.846 8.163-30.311 8.898-46.073h44.707v147.53c2.562.125 5.134.212 7.727.212 2.591 0 5.166-.066 7.726-.192v-147.55h44.705c1.92 41.736 19.369 80.409 49.583 109.59 3.89-3.385 7.606-6.964 11.142-10.715l-.08-.079c-27.394-26.333-43.264-61.171-45.177-98.795h87.379c.125-2.56.192-5.136.192-7.727s-.067-5.166-.192-7.726h-87.378c1.912-37.607 17.766-72.429 45.138-98.757z" fill="#365e7d"/><g fill="#2b4d66"><path d="m364.258 45.959v-11.676c-2.56-.125-5.135-.192-7.726-.192s-5.167.066-7.727.191v19.136c4.99-2.759 10.146-5.252 15.453-7.459z"/><path d="m268.45 189.559c0-2.591.067-5.166.192-7.726h-65.115l1.669 7.726 5.019 7.727h58.426c-.125-2.56-.191-5.136-.191-7.727z"/><path d="m278.398 134.751c2.431-6.45 5.274-12.698 8.505-18.707-8.133-16.087-19.005-30.876-32.387-43.802-3.89 3.385-7.603 6.967-11.138 10.719l.078.077c15.469 14.869 27.26 32.45 34.942 51.713z"/><path d="m348.805 325.7v19.115c2.562.125 5.134.212 7.727.212 2.591 0 5.166-.066 7.726-.192v-11.675c-5.307-2.207-10.463-4.701-15.453-7.46z"/></g><path d="m304.485 366.866-3.597-10.397-1.03-71.855 4.627-6.598c-7.042-23.655-19.555-44.951-36.082-62.414h-7.193l-66.172-37.672-3.532-6.75c-11.567-2.745-23.63-4.207-36.037-4.207s-24.471 1.462-36.039 4.207l-8.61 8.356-61.092 36.066h-7.193c-16.527 17.464-29.041 38.76-36.082 62.414l5.728 10.461.515 61.811-6.243 16.578c7.042 23.657 19.557 44.955 36.087 62.419l14.454 1.356 59.235 36.056 3.204 7.005c11.566 2.745 23.63 4.207 36.036 4.207 12.407 0 24.471-1.462 36.039-4.208l10.328-9.923 50.376-32.107 16.183-2.383c16.531-17.465 29.047-38.764 36.09-62.422z" fill="#f9f6f9"/><path d="m49.728 323.368c0-75.729 52.807-139.122 123.606-155.37-5.863-.673-11.823-1.026-17.866-1.026-12.407 0-24.471 1.462-36.039 4.207l-8.61 8.356-61.092 36.066h-7.193c-16.527 17.464-29.041 38.76-36.082 62.414l5.728 10.461.515 61.811-6.243 16.578c7.042 23.657 19.557 44.955 36.087 62.419l14.454 1.356 59.235 36.056 3.204 7.005c11.566 2.745 23.63 4.207 36.036 4.207 4.208 0 8.374-.182 12.497-.511-68.081-18.151-118.237-80.228-118.237-154.029z" fill="#cbe2ff"/><path d="m203.837 317.367-19.79-34.278c-1.812-3.14-5.162-5.073-8.788-5.073h-39.581c-3.625 0-6.975 1.934-8.788 5.073l-19.79 34.278c-1.812 3.139-1.812 7.007 0 10.147l19.79 34.278c1.812 3.14 5.162 5.074 8.788 5.074h39.581c3.625 0 6.975-1.934 8.788-5.074l19.79-34.278c1.812-3.139 1.812-7.007 0-10.147z" fill="#8479c2"/><path d="m168.613 361.792-19.79-34.278c-1.812-3.139-1.812-7.007 0-10.147l19.79-34.278c1.632-2.827 4.513-4.662 7.717-5.002-.354-.038-.71-.071-1.071-.071h-39.58c-3.625 0-6.975 1.934-8.788 5.073l-19.79 34.278c-1.812 3.139-1.812 7.007 0 10.147l19.79 34.278c1.812 3.14 5.162 5.074 8.788 5.074h39.58c.361 0 .717-.033 1.071-.071-3.204-.341-6.085-2.176-7.717-5.003z" fill="#6e60b8"/><path d="m282.359 283.089-19.791 34.278c-1.812 3.139-1.812 7.007 0 10.147l19.791 34.278c1.812 3.14 5.162 5.074 8.788 5.074h13.338c4.191-14.077 6.452-28.986 6.452-44.425s-2.261-30.347-6.452-44.425h-13.338c-3.626 0-6.975 1.934-8.788 5.073z" fill="#8479c2"/><path d="m295.191 327.514c-1.812-3.139-1.812-7.008 0-10.147l13.223-22.902c-1.019-5.592-2.331-11.082-3.929-16.449h-13.338c-3.625 0-6.975 1.934-8.787 5.073l-19.791 34.278c-1.813 3.139-1.813 7.008 0 10.147l19.791 34.278c1.812 3.139 5.162 5.074 8.787 5.074h13.338c1.598-5.367 2.91-10.857 3.929-16.449z" fill="#6e60b8"/><path d="m28.578 283.089 19.791 34.278c1.812 3.139 1.812 7.007 0 10.147l-19.791 34.278c-1.812 3.14-5.162 5.074-8.788 5.074h-13.338c-4.191-14.078-6.452-28.986-6.452-44.426 0-15.439 2.261-30.347 6.452-44.425h13.338c3.626.001 6.975 1.935 8.788 5.074z" fill="#8479c2"/><path d="m28.578 283.089 19.791 34.278c1.812 3.139 1.812 7.007 0 10.147l-19.791 34.278c-1.812 3.14-5.162 5.074-8.788 5.074h-13.338c-4.191-14.078-6.452-28.986-6.452-44.426 0-15.439 2.261-30.347 6.452-44.425h13.338c3.626.001 6.975 1.935 8.788 5.074z" fill="#6e60b8"/><path d="m184.835 192.874 19.79 34.278c1.813 3.139 5.162 5.073 8.787 5.073h39.581c3.625 0 6.975-1.934 8.788-5.073l6.669-11.551c-10.096-10.668-21.876-20.081-35.247-27.8-13.37-7.719-27.412-13.215-41.699-16.625l-6.669 11.551c-1.813 3.14-1.813 7.008 0 10.147z" fill="#8479c2"/><path d="m236.781 227.153-19.79-34.278c-1.813-3.139-1.813-7.007 0-10.147l1.413-2.447c-8.794-3.902-17.797-6.931-26.9-9.104l-6.669 11.551c-1.813 3.14-1.813 7.008 0 10.147l19.79 34.278c1.812 3.139 5.162 5.073 8.787 5.073h32.153c-3.624-.002-6.972-1.935-8.784-5.073z" fill="#6e60b8"/><path d="m57.944 412.656h39.581c3.625 0 6.975 1.934 8.787 5.073l19.79 34.278c1.813 3.139 1.813 7.007 0 10.147l-6.669 11.551c-14.287-3.409-28.329-8.905-41.699-16.625-13.37-7.719-25.151-17.132-35.247-27.8l6.669-11.551c1.813-3.14 5.163-5.074 8.788-5.073z" fill="#8479c2"/><path d="m77.063 412.656h-19.12c-3.625 0-6.975 1.934-8.787 5.073l-6.669 11.551c10.096 10.668 21.876 20.081 35.247 27.8 13.371 7.72 27.412 13.215 41.699 16.625l6.669-11.551c.394-.682.686-1.403.909-2.14-19.891-11.98-36.955-28.177-49.948-47.358z" fill="#6e60b8"/><path d="m57.944 232.226h39.581c3.625 0 6.975-1.934 8.787-5.073l19.79-34.278c1.813-3.139 1.813-7.007 0-10.147l-6.669-11.551c-14.287 3.409-28.329 8.905-41.699 16.625-13.37 7.719-25.151 17.132-35.247 27.8l6.669 11.551c1.813 3.139 5.163 5.073 8.788 5.073z" fill="#8479c2"/><path d="m57.944 232.226h20.405c12.906-18.486 29.628-34.107 49.029-45.721-.169-1.31-.593-2.596-1.275-3.777l-6.669-11.551c-14.287 3.409-28.329 8.905-41.699 16.625-13.37 7.719-25.151 17.132-35.247 27.8l6.669 11.551c1.812 3.139 5.162 5.073 8.787 5.073z" fill="#6e60b8"/><path d="m184.835 452.007 19.79-34.278c1.813-3.139 5.162-5.073 8.787-5.073h39.581c3.625 0 6.975 1.934 8.788 5.073l6.669 11.551c-10.096 10.668-21.876 20.081-35.247 27.8-13.37 7.719-27.412 13.215-41.699 16.625l-6.669-11.551c-1.813-3.14-1.813-7.008 0-10.147z" fill="#8479c2"/><path d="m216.991 462.154c-1.813-3.14-1.813-7.008 0-10.147l19.79-34.278c1.812-3.138 5.16-5.072 8.783-5.073h-32.153c-3.625 0-6.975 1.934-8.787 5.073l-19.79 34.278c-1.813 3.14-1.813 7.008 0 10.147l6.669 11.551c9.104-2.173 18.106-5.201 26.9-9.104z" fill="#6e60b8"/></g></svg>