<svg id="Layer_1" enable-background="new 0 0 512 512" height="512" viewBox="0 0 512 512" width="512" xmlns="http://www.w3.org/2000/svg"><g><path d="m79.485 143.05h-18.286l-1.124 1.204v10.77c0 9.623-5.676 15.102-14.231 19.512-11.742 6.054-15.27 40.406 6.806 51.611l6.273.947 43.911-16.998v-24.897z" fill="#365e7d"/><path d="m76.235 174.536c6.529-3.366 11.371-7.361 13.303-13.339l-10.053-18.147h-18.286l-1.124 1.204v10.77c0 9.623-5.676 15.102-14.231 19.512-11.742 6.054-15.27 40.406 6.806 51.611l6.273.947 16.702-6.466c-13.578-14.246-9.587-40.834.61-46.092z" fill="#2b4d66"/><path d="m210.156 174.536c-8.578-4.423-14.228-9.903-14.228-19.509v-10.943l-1.793-1.695h-19.18l-22.027 44.53v22.535l45.328 17.642 4.216-1.277c21.618-11.508 19.312-45.287 7.684-51.283z" fill="#365e7d"/><path d="m228.907 236.056c-2.355-.912-33.982-13.161-53.952-20.895l-4.814 2.134h-83.274l-5.949-2.106c-19.887 7.71-53.272 20.653-53.824 20.867-11.583 4.767-27.094 19.767-27.094 42.025v50.144h41.745v48.679h172.51v-48.679h41.745c0-24.3 0-46.327 0-50.144 0-19.169-12.273-35.925-27.093-42.025z" fill="#ffafe2"/><path d="m35.081 259.889c0-15.606 8.266-26.43 16.971-33.509-13.326 5.166-24.639 9.552-24.958 9.676-11.583 4.767-27.094 19.767-27.094 42.025v50.144h35.081c0-28.299 0-55.452 0-68.336z" fill="#ff94d5"/><path d="m195.841 112.69-1.513-1.522h-18.06v31.646l.997 2.06h13.632c9.097 0 16.471-7.374 16.471-16.471-.001-7.373-4.847-13.613-11.527-15.713z" fill="#ffcebe"/><path d="m60.075 112.536.003.016c-6.944 1.936-12.045 8.291-12.045 15.852 0 9.097 7.374 16.471 16.471 16.471h14.232l1.564-1.824v-31.978h-19.058z" fill="#ffcebe"/><g fill="#ffb1a0"><path d="m192.401 111.168h-16.134v31.646l.997 2.06h13.632c.508 0 1.009-.031 1.505-.076z"/><path d="m64.166 128.403c0-7.561 5.101-13.916 12.045-15.852l-.003-.016 1.167-1.464h-16.133l-1.167 1.464.003.016c-6.944 1.936-12.045 8.291-12.045 15.852 0 9.097 7.374 16.471 16.471 16.471h14.232l.09-.105c-8.244-.902-14.66-7.882-14.66-16.366z"/><path d="m41.745 327.194h-41.745v40.68c0 4.986 4.042 9.029 9.029 9.029h32.716c0-26.438 0-22.781 0-49.709z"/></g><path d="m214.255 327.194v49.709h32.716c4.987 0 9.029-4.042 9.029-9.029 0-4.264 0-8.808 0-40.68z" fill="#ffcebe"/><path d="m158.903 208.945c-1.92-.742-3.196-2.59-3.202-4.659l-.014-16.784-2.202-2.301h-50.65l-2.567 2.4v16.654c0 3.834-3.42 4.757-4.877 5.322-.324.126-6.245 2.421-14.473 5.611 5.906 19.079 23.436 34.119 47.587 34.2 21.671.073 40.151-14.486 46.449-34.227-8.611-3.335-15.058-5.831-16.051-6.216z" fill="#ffcebe"/><path d="m128.002 185.201h-25.166l-2.567 2.4v16.654c0 3.834-3.42 4.757-4.877 5.322-.324.126-6.245 2.421-14.473 5.611 5.865 18.946 23.194 33.9 47.083 34.188z" fill="#ffb1a0"/><path d="m49.471 376.903v-94.03c0-4.267-3.459-7.726-7.726-7.726s-7.726 3.459-7.726 7.726v94.03z" fill="#ff94d5"/><path d="m221.982 376.903v-94.03c0-4.267-3.459-7.726-7.726-7.726s-7.726 3.459-7.726 7.726v94.03z" fill="#ff636e"/><path d="m172.2 107.767h-21.634l-16.998-21.119h-10.13l-15.757 17.07v43.547c0 20.569 12.645 39.738 33.101 47.057 20.924-5.508 36.482-24.892 36.482-47.472v-34.917z" fill="#ffdecf"/><path d="m108.838 147.327v-44.862l-6.003 6.503h-21.917l-2.182 2.964v35.394c0 25.317 19.79 48.461 49.77 48.562 5.107.017 10.034-.783 14.67-2.267-21.149-6.419-34.338-25.63-34.338-46.294z" fill="#ffcebe"/><path d="m127.105 23.156c-37.33.48-67.03 31.597-67.03 68.931v20.465c1.411-.394 2.892-.62 4.429-.62h14.232 12.88c1.68 0 11.129-.769 10.435-.716 11.957-.916 22.296-9.948 25.145-21.686.091-.375.42-.642.805-.642.386 0 .715.267.806.642 2.847 11.71 13.092 20.638 24.872 21.636 8.556.726 8.672.765 10.216.765h13.369 13.632c1.756 0 3.445.281 5.032.789v-21.643c0-37.813-30.895-68.409-68.823-67.921z" fill="#365e7d"/><g><path d="m90.465 92.087c0-32.433 22.42-60.162 52.779-67.201-5.181-1.188-10.581-1.802-16.139-1.73-37.33.48-67.03 31.597-67.03 68.931v20.465c1.411-.394 2.892-.62 4.429-.62h14.232 11.729z" fill="#2b4d66"/></g><path d="m335.484 143.05h-18.286l-1.124 1.204v10.77c0 9.623-5.676 15.102-14.231 19.512-11.742 6.054-15.27 40.406 6.806 51.611l6.273.947 43.911-16.998v-24.897z" fill="#365e7d"/><path d="m332.235 174.536c6.529-3.366 11.371-7.361 13.303-13.339l-10.053-18.147h-18.286l-1.124 1.204v10.77c0 9.623-5.676 15.102-14.231 19.512-11.742 6.054-15.27 40.406 6.806 51.611l6.273.947 16.702-6.466c-13.578-14.246-9.587-40.834.61-46.092z" fill="#2b4d66"/><path d="m466.156 174.536c-8.578-4.423-14.228-9.903-14.228-19.509v-10.943l-1.793-1.695h-19.181l-22.027 44.53v22.535l45.328 17.642 4.216-1.277c21.619-11.508 19.313-45.287 7.685-51.283z" fill="#365e7d"/><path d="m484.907 236.056c-2.355-.912-33.982-13.161-53.953-20.895l-4.814 2.134h-83.273l-5.949-2.106c-19.887 7.71-53.272 20.653-53.824 20.867-11.583 4.767-27.094 19.767-27.094 42.025v50.144h41.745v48.679h172.51v-48.679h41.745c0-24.3 0-46.327 0-50.144 0-19.169-12.273-35.925-27.093-42.025z" fill="#ffd064"/><path d="m451.841 112.69-1.513-1.522h-18.06v31.646l.997 2.06h13.632c9.097 0 16.471-7.374 16.471-16.471-.001-7.373-4.847-13.613-11.527-15.713z" fill="#ffcebe"/><path d="m316.075 112.536.003.016c-6.944 1.936-12.045 8.291-12.045 15.852 0 9.097 7.374 16.471 16.471 16.471h14.232l1.564-1.824v-31.978h-19.058z" fill="#ffcebe"/><path d="m448.401 111.168h-16.134v31.646l.997 2.06h13.632c.508 0 1.009-.031 1.505-.076z" fill="#ffb1a0"/><path d="m320.166 128.403c0-7.561 5.101-13.916 12.045-15.852l-.003-.016 1.167-1.464h-16.134l-1.167 1.464.003.016c-6.944 1.936-12.045 8.291-12.045 15.852 0 9.097 7.374 16.471 16.471 16.471h14.232l.09-.105c-8.243-.902-14.659-7.882-14.659-16.366z" fill="#ffb1a0"/><path d="m470.255 327.194v49.709h32.716c4.987 0 9.029-4.042 9.029-9.029 0-4.264 0-8.808 0-40.68z" fill="#ffcebe"/><path d="m414.903 208.945c-1.92-.742-3.196-2.59-3.202-4.659l-.014-16.784-2.202-2.301h-50.65l-2.566 2.4v16.654c0 3.834-3.419 4.757-4.878 5.322-.324.126-6.245 2.421-14.473 5.611 5.906 19.079 23.436 34.119 47.587 34.2 21.671.073 40.151-14.486 46.448-34.227-8.61-3.335-15.057-5.831-16.05-6.216z" fill="#ffcebe"/><path d="m384.002 185.201h-25.166l-2.566 2.4v16.654c0 3.834-3.419 4.757-4.878 5.322-.324.126-6.245 2.421-14.473 5.611 5.865 18.946 23.194 33.9 47.083 34.188z" fill="#ffb1a0"/><path d="m477.982 376.903v-94.03c0-4.267-3.459-7.726-7.726-7.726s-7.726 3.459-7.726 7.726v94.03z" fill="#ffc250"/><path d="m428.2 107.767h-21.634l-16.998-21.119h-10.13l-15.757 17.07v43.547c0 20.569 12.645 39.738 33.101 47.057 20.924-5.508 36.482-24.892 36.482-47.472v-34.917z" fill="#ffdecf"/><path d="m364.838 147.327v-44.862l-6.003 6.503h-21.917l-2.182 2.964v35.394c0 25.317 19.79 48.461 49.77 48.562 5.107.017 10.034-.783 14.67-2.267-21.149-6.419-34.338-25.63-34.338-46.294z" fill="#ffcebe"/><path d="m383.105 23.156c-37.33.48-67.03 31.597-67.03 68.931v20.465c1.411-.394 2.892-.62 4.429-.62h14.232 12.88c1.68 0 11.129-.769 10.435-.716 11.957-.916 22.296-9.948 25.145-21.686.091-.375.42-.642.805-.642.386 0 .715.267.806.642 2.847 11.71 13.092 20.638 24.872 21.636 8.556.726 8.672.765 10.216.765h13.369 13.632c1.756 0 3.445.281 5.032.789v-21.643c0-37.813-30.895-68.409-68.823-67.921z" fill="#365e7d"/><g><path d="m346.465 92.087c0-32.433 22.42-60.162 52.779-67.201-5.181-1.188-10.581-1.802-16.139-1.73-37.33.48-67.03 31.597-67.03 68.931v20.465c1.411-.394 2.892-.62 4.429-.62h14.232 11.729z" fill="#2b4d66"/></g><path d="m207.485 254.996h-18.286l-1.124 1.204v10.77c0 9.623-5.676 15.102-14.231 19.512-11.742 6.054-15.27 40.406 6.806 51.611l6.273.947 43.911-16.998v-24.897z" fill="#365e7d"/><path d="m204.235 286.483c6.529-3.366 11.371-7.361 13.303-13.339l-10.053-18.147h-18.286l-1.124 1.204v10.77c0 9.623-5.676 15.102-14.231 19.512-11.742 6.054-15.27 40.406 6.806 51.611l6.273.947 16.702-6.466c-13.578-14.247-9.587-40.835.61-46.092z" fill="#2b4d66"/><path d="m338.156 286.483c-8.578-4.423-14.228-9.903-14.228-19.509v-10.944l-1.793-1.695h-19.181l-22.027 44.53v22.535l45.328 17.642 4.216-1.277c21.619-11.507 19.313-45.287 7.685-51.282z" fill="#365e7d"/><path d="m356.907 348.002c-2.355-.912-33.982-13.161-53.953-20.895l-4.814 2.134h-83.273l-5.949-2.106c-19.887 7.71-53.272 20.653-53.824 20.867-11.583 4.767-27.094 19.767-27.094 42.025v50.144h41.745v48.679h172.51v-48.679h41.745c0-24.3 0-46.327 0-50.144 0-19.169-12.273-35.925-27.093-42.025z" fill="#ff7f87"/><path d="m163.081 371.835c0-15.606 8.266-26.43 16.971-33.509-13.326 5.166-24.639 9.552-24.958 9.676-11.583 4.767-27.094 19.767-27.094 42.025v50.144h35.081c0-28.299 0-55.451 0-68.336z" fill="#ff636e"/><path d="m323.841 224.636-1.513-1.522h-18.06v31.646l.997 2.06h13.632c9.097 0 16.471-7.374 16.471-16.471-.001-7.373-4.847-13.613-11.527-15.713z" fill="#ffcebe"/><path d="m188.075 224.482.003.016c-6.944 1.936-12.045 8.291-12.045 15.852 0 9.097 7.374 16.471 16.471 16.471h14.232l1.564-1.824v-31.978h-19.058z" fill="#ffcebe"/><path d="m320.401 223.114h-16.134v31.646l.997 2.06h13.632c.508 0 1.009-.031 1.505-.076z" fill="#ffb1a0"/><path d="m192.166 240.349c0-7.561 5.101-13.916 12.045-15.852l-.003-.016 1.167-1.464h-16.134l-1.167 1.464.003.016c-6.944 1.936-12.045 8.291-12.045 15.852 0 9.097 7.374 16.471 16.471 16.471h14.232l.09-.105c-8.243-.902-14.659-7.882-14.659-16.366z" fill="#ffb1a0"/><path d="m169.745 439.141h-41.745v40.68c0 4.986 4.042 9.029 9.029 9.029h32.716c0-26.438 0-22.782 0-49.709z" fill="#ffb1a0"/><path d="m342.255 439.141v49.709h32.716c4.987 0 9.029-4.042 9.029-9.029 0-4.264 0-8.808 0-40.68z" fill="#ffcebe"/><path d="m286.903 320.891c-1.92-.742-3.196-2.59-3.202-4.659l-.014-16.784-2.202-2.301h-50.65l-2.567 2.4v16.654c0 3.834-3.42 4.757-4.878 5.322-.324.126-6.245 2.421-14.473 5.611 5.906 19.079 23.436 34.119 47.587 34.2 21.671.073 40.151-14.486 46.448-34.227-8.609-3.335-15.056-5.831-16.049-6.216z" fill="#ffcebe"/><path d="m256.002 297.147h-25.166l-2.567 2.4v16.654c0 3.834-3.42 4.757-4.878 5.322-.324.126-6.245 2.421-14.473 5.611 5.865 18.946 23.194 33.9 47.083 34.188v-64.175z" fill="#ffb1a0"/><path d="m177.471 488.849v-94.03c0-4.267-3.459-7.726-7.726-7.726s-7.726 3.459-7.726 7.726v94.03z" fill="#ff636e"/><path d="m349.982 488.849v-94.03c0-4.267-3.459-7.726-7.726-7.726s-7.726 3.459-7.726 7.726v94.03z" fill="#ff636e"/><path d="m300.2 219.713h-21.634l-16.998-21.119h-10.13l-15.757 17.07v43.547c0 20.569 12.645 39.738 33.101 47.057 20.924-5.508 36.482-24.892 36.482-47.472v-34.917z" fill="#ffdecf"/><path d="m236.838 259.273v-44.862l-6.003 6.503h-21.917l-2.182 2.964v35.394c0 25.317 19.79 48.461 49.77 48.562 5.107.017 10.034-.783 14.67-2.267-21.149-6.419-34.338-25.63-34.338-46.294z" fill="#ffcebe"/><path d="m255.105 135.103c-37.33.48-67.03 31.597-67.03 68.931v20.465c1.411-.394 2.892-.62 4.429-.62h14.232 12.88c1.68 0 11.129-.769 10.435-.716 11.957-.916 22.296-9.948 25.145-21.686.091-.375.42-.642.805-.642.386 0 .715.267.806.642 2.847 11.71 13.092 20.638 24.872 21.636 8.556.726 8.672.765 10.216.765h13.369 13.632c1.756 0 3.445.281 5.032.789v-21.645c0-37.812-30.895-68.407-68.823-67.919z" fill="#365e7d"/><g><path d="m218.465 204.034c0-32.433 22.42-60.162 52.779-67.201-5.181-1.188-10.581-1.802-16.139-1.73-37.33.48-67.03 31.597-67.03 68.931v20.465c1.411-.394 2.892-.62 4.429-.62h14.232 11.729z" fill="#2b4d66"/></g></g></svg>