<svg id="Layer_1" enable-background="new 0 0 512 512" height="512" viewBox="0 0 512 512" width="512" xmlns="http://www.w3.org/2000/svg"><g><path d="m387.347 470.277-9.111-11.479v-407.264l9.111-9.811v-19.573c0-12.183-9.967-22.15-22.15-22.15h-218.395c-12.182 0-22.15 9.967-22.15 22.15v19.573l11.779 12.558v406.577l-11.779 9.419v19.573c0 12.183 9.968 22.15 22.15 22.15h218.396c12.183 0 22.15-9.967 22.15-22.15v-19.573z" fill="#8479c2"/><path d="m167.489 489.85v-19.573l11.779-9.419v-406.577l-11.779-12.558v-19.573c0-12.183 9.968-22.15 22.15-22.15h-42.837c-12.182 0-22.15 9.967-22.15 22.15v19.573l11.779 12.558v406.577l-11.779 9.419v19.573c0 12.183 9.968 22.15 22.15 22.15h42.837c-12.183 0-22.15-9.967-22.15-22.15z" fill="#6e60b8"/><path d="m387.347 375.823v-334.1h-66.026c-4.599 0-8.698 2.62-10.944 6.633-3.395 6.067-9.878 10.194-17.291 10.194h-74.173c-7.413 0-13.896-4.126-17.291-10.194-2.246-4.013-6.345-6.633-10.944-6.633h-66.027v334.1z" fill="#b3e59f"/><g><path d="m124.652 41.723h42.837v334.1h-42.837z" fill="#95d6a4"/><g><path d="m320.849 180.992h-4.023l-1.814-1.738h-10.703v35.687l3.123 1.639h13.417c9.334 0 16.902-7.967 16.902-17.794-.001-9.827-7.568-17.794-16.902-17.794z" fill="#ffcebe"/><path d="m191.122 180.994c-9.321.017-16.873 7.975-16.873 17.792 0 9.827 7.567 17.794 16.902 17.794h13.418l2.182-4.026v-33.299h-12.515z" fill="#ffcebe"/><path d="m321.95 181.051c-.366-.025-.73-.059-1.102-.059h-4.023l-1.814-1.738h-10.703v35.687l3.123 1.639h13.417c.372 0 .736-.034 1.102-.059z" fill="#ffb1a0"/><path d="m191.892 198.786c0-9.098 6.49-16.587 14.859-17.651v-1.881h-12.515l-3.114 1.74c-9.321.017-16.873 7.975-16.873 17.792 0 9.827 7.567 17.794 16.902 17.794h13.418l.275-.508c-7.426-1.876-12.952-8.893-12.952-17.286z" fill="#ffb1a0"/><path d="m359.545 311.075c-2.39-.926-34.148-13.225-54.671-21.173l-4.221 2.024h-89.767l-3.808-2.184-54.623 21.334c-11.887 4.892-27.803 20.284-27.803 43.124v34.715h262.695c0-17.657 0-31.705 0-34.715.001-19.671-12.593-36.866-27.802-43.125z" fill="#80b4fb"/><path d="m124.653 354.199v34.715h35.965c0-22.599 0-42.737 0-53.382 0-16.104 8.578-27.243 17.566-34.505l-25.728 10.048c-11.887 4.892-27.803 20.283-27.803 43.124z" fill="#61a2f9"/><path d="m287.711 283.255c-1.97-.762-3.279-2.657-3.285-4.781l-.014-16.897-3.492-3.568h-50.213l-3.163 3.492v16.941c0 2.117-1.018 3.365-2.19 4.161l-18.275 7.138c6.398 19.635 24.645 34.99 49.656 34.99 22.413 0 41.464-14.626 48.141-34.83-9.184-3.556-16.119-6.241-17.165-6.646z" fill="#ffcebe"/><path d="m255.976 258.009h-25.27l-3.163 3.492v16.941c0 2.117-1.018 3.365-2.19 4.161l-18.275 7.138c6.333 19.435 24.279 34.667 48.898 34.976z" fill="#ffb1a0"/><path d="m304.874 176.611-4.222-2.819-3.171-13.743h-6.167l-25.723 18.676h-22.784l-1.919 3.098v37.194c0 20.687 12.379 39.996 32.52 47.985 19.786-6.913 34.023-25.753 34.023-47.866v-36.76z" fill="#ffdecf"/><g><path d="m241.648 219.135v-36.358l2.51-4.051h-37.08l-2.51 4.051v36.358c0 26.496 20.761 50.697 52.165 50.697 6.325 0 12.378-1.174 17.965-3.299-20.434-7.49-33.05-26.745-33.05-47.398z" fill="#ffcebe"/></g><path d="m304.138 116.041c-4.844.373-9.289-2.673-10.221-7.441-1.57-8.03-5.546-15.999-21.075-15.999h-53.88c-19.774 0-35.805 16.03-35.805 35.805v39.295c0 8.326 6.75 15.076 15.076 15.076h61.152c13.678 0 25.557-7.673 31.585-18.947.467-.874 1.794-.533 1.794.458 0 10.169 8.32 18.489 18.489 18.489 5.33 0 9.691-4.361 9.691-9.691v-41.006c-.001-9.661-8.429-16.683-16.806-16.039z" fill="#365e7d"/><g><path d="m213.549 167.701v-39.295c0-19.775 16.03-35.805 35.805-35.805h-30.392c-19.774 0-35.805 16.03-35.805 35.805v39.295c0 8.326 6.75 15.076 15.076 15.076h30.392c-8.326 0-15.076-6.75-15.076-15.076z" fill="#2b4d66"/></g></g><g><path d="m344.511 381.489c-4.267 0-7.726-3.459-7.726-7.726v-19.776c0-4.267 3.459-7.726 7.726-7.726s7.726 3.459 7.726 7.726v19.776c0 4.267-3.459 7.726-7.726 7.726z" fill="#61a2f9"/></g><g><path d="m167.489 381.489c-4.267 0-7.726-3.459-7.726-7.726v-19.776c0-4.267 3.459-7.726 7.726-7.726s7.726 3.459 7.726 7.726v19.776c0 4.267-3.459 7.726-7.726 7.726z" fill="#61a2f9"/></g></g><path d="m124.652 373.763h262.695v96.514h-262.695z" fill="#f9f6f9"/><path d="m124.652 373.763h42.837v96.514h-42.837z" fill="#cbe2ff"/><g><path d="m277.258 34.684h-42.517c-4.267 0-7.726-3.459-7.726-7.726s3.459-7.726 7.726-7.726h42.517c4.267 0 7.726 3.459 7.726 7.726s-3.459 7.726-7.726 7.726z" fill="#9790cc"/></g><circle cx="255.934" cy="422.535" fill="#cbe2ff" r="20.543"/><path d="m255.935 422.535c0-7.599 4.137-14.219 10.271-17.772-3.024-1.752-6.525-2.771-10.271-2.771-11.346 0-20.543 9.197-20.543 20.543s9.197 20.543 20.543 20.543c3.746 0 7.247-1.019 10.271-2.771-6.135-3.553-10.271-10.173-10.271-17.772z" fill="#9dc6fb"/><path d="m346.262 401.992h41.086v41.086h-41.086z" fill="#80b4fb"/><path d="m311.515 401.992c-2.255 0-4.083 1.828-4.083 4.083v32.919c0 2.256 1.828 4.083 4.083 4.083h35.875v-41.086h-35.875z" fill="#b3e59f"/></g></svg>