<svg id="Layer_1" enable-background="new 0 0 512 512" height="512" viewBox="0 0 512 512" width="512" xmlns="http://www.w3.org/2000/svg"><g><path d="m387.348 470.277-9.111-11.479v-407.264l9.111-9.811v-19.573c0-12.183-9.967-22.15-22.15-22.15h-218.396c-12.182 0-22.15 9.967-22.15 22.15v19.573l11.779 12.558v406.577l-11.779 9.419v19.573c0 12.183 9.968 22.15 22.15 22.15h218.396c12.183 0 22.15-9.967 22.15-22.15z" fill="#8479c2"/><path d="m167.489 489.85v-19.573l11.779-9.419v-406.577l-11.779-12.558v-19.573c0-12.183 9.968-22.15 22.15-22.15h-42.837c-12.182 0-22.15 9.967-22.15 22.15v19.573l11.779 12.558v406.577l-11.779 9.419v19.573c0 12.183 9.968 22.15 22.15 22.15h42.837c-12.182 0-22.15-9.967-22.15-22.15z" fill="#6e60b8"/><path d="m387.348 375.823v-334.1h-66.026c-4.599 0-8.698 2.62-10.944 6.633-3.395 6.067-9.878 10.194-17.291 10.194h-74.173c-7.413 0-13.896-4.126-17.291-10.194-2.246-4.013-6.345-6.633-10.944-6.633h-66.027v334.1z" fill="#80b4fb"/><g><path d="m124.652 41.723h42.837v334.1h-42.837z" fill="#61a2f9"/></g><path d="m206.216 215.637h-18.764l-1.153 1.235v11.052c0 9.875-5.824 15.497-14.603 20.023-12.049 6.212-15.67 41.462 6.984 52.961l6.437.972 45.06-17.442v-25.548z" fill="#365e7d"/><path d="m202.881 247.946c6.7-3.454 11.669-7.554 13.651-13.688l-10.316-18.622h-18.764l-1.153 1.235v11.052c0 9.875-5.824 15.497-14.603 20.023-12.049 6.212-15.67 41.462 6.984 52.961l6.437.972 17.139-6.635c-13.934-14.619-9.838-41.903.625-47.298z" fill="#2b4d66"/><path d="m340.304 247.946c-8.802-4.538-14.6-10.162-14.6-20.019v-11.229l-1.84-1.74h-19.682l-22.603 45.694v23.124l46.513 18.103 4.327-1.311c22.184-11.806 19.817-46.469 7.885-52.622z" fill="#365e7d"/><path d="m359.546 311.074c-2.417-.936-34.871-13.505-55.363-21.441l-4.94 2.19h-85.45l-6.105-2.161c-20.407 7.912-54.665 21.193-55.231 21.413-11.887 4.892-27.803 20.284-27.803 43.124v39.698h262.695c0-19.951 0-36.41 0-39.698-.001-19.671-12.595-36.865-27.803-43.125z" fill="#ff7f87"/><path d="m124.653 354.198v39.698h35.999c0-24.594 0-46.943 0-58.365 0-16.014 8.482-27.121 17.415-34.386-13.675 5.302-25.283 9.802-25.611 9.929-11.887 4.892-27.803 20.284-27.803 43.124z" fill="#ff636e"/><g><path d="m344.511 386.318c-4.267 0-7.726-3.459-7.726-7.726v-24.605c0-4.267 3.459-7.726 7.726-7.726s7.726 3.459 7.726 7.726v24.605c.001 4.267-3.459 7.726-7.726 7.726z" fill="#ff636e"/></g><g><path d="m167.489 386.318c-4.267 0-7.726-3.459-7.726-7.726v-24.605c0-4.267 3.459-7.726 7.726-7.726s7.726 3.459 7.726 7.726v24.605c0 4.267-3.459 7.726-7.726 7.726z" fill="#ff636e"/></g><path d="m325.615 184.483-1.552-1.562h-18.533v32.473l1.023 2.114h13.988c9.334 0 16.902-7.567 16.902-16.902-.001-7.566-4.973-13.968-11.828-16.123z" fill="#ffcebe"/><path d="m186.299 184.324.003.016c-7.125 1.986-12.36 8.508-12.36 16.266 0 9.334 7.567 16.902 16.902 16.902h14.605l1.605-1.871v-32.815h-19.557z" fill="#ffcebe"/><path d="m322.085 182.921h-16.555v32.473l1.023 2.114h13.988c.521 0 1.035-.032 1.545-.078v-34.509z" fill="#ffb1a0"/><path d="m190.497 200.606c0-7.759 5.234-14.28 12.36-16.266l-.003-.016 1.197-1.503h-16.556l-1.197 1.503.003.016c-7.125 1.986-12.36 8.508-12.36 16.266 0 9.334 7.567 16.902 16.902 16.902h14.605l.092-.107c-8.459-.927-15.043-8.089-15.043-16.795z" fill="#ffb1a0"/><path d="m287.711 283.255c-1.97-.762-3.279-2.657-3.285-4.781l-.014-17.223-2.26-2.361h-51.975l-2.634 2.463v17.09c0 3.934-3.509 4.882-5.005 5.462-.332.129-6.408 2.484-14.852 5.758 6.061 19.578 24.049 35.011 48.832 35.094 22.237.075 41.201-14.865 47.663-35.123-8.835-3.423-15.451-5.985-16.47-6.379z" fill="#ffcebe"/><path d="m256.002 258.89h-25.825l-2.634 2.463v17.09c0 3.934-3.509 4.882-5.005 5.462-.332.129-6.408 2.484-14.852 5.758 6.018 19.441 23.801 34.786 48.315 35.082v-65.855z" fill="#ffb1a0"/><path d="m301.356 179.43h-22.199l-17.442-21.671h-10.395l-16.169 17.516v44.685c0 21.107 12.975 40.778 33.966 48.288 21.472-5.652 37.436-25.543 37.436-48.714v-35.83z" fill="#ffdecf"/><path d="m236.337 220.025v-46.035l-6.16 6.673h-22.49l-2.239 3.042v36.32c0 25.979 20.308 49.728 51.071 49.832 5.24.018 10.297-.803 15.053-2.326-21.701-6.588-35.235-26.301-35.235-47.506z" fill="#ffcebe"/><path d="m255.082 92.607c-38.307.493-68.783 32.424-68.783 70.734v21c1.448-.404 2.968-.636 4.544-.636h14.605 13.217c1.724 0 11.42-.789 10.707-.735 12.269-.94 22.88-10.208 25.803-22.253.094-.385.43-.659.827-.659.396 0 .733.274.827.659 2.922 12.016 13.434 21.177 25.523 22.202 8.78.745 8.899.785 10.483.785h13.719 13.988c1.802 0 3.535.288 5.164.81v-22.211c-.002-38.801-31.704-70.196-70.624-69.696z" fill="#365e7d"/><g><path d="m217.484 163.341c0-33.281 23.006-61.735 54.16-68.958-5.316-1.219-10.858-1.849-16.561-1.776-38.307.493-68.783 32.424-68.783 70.734v21c1.448-.404 2.968-.636 4.544-.636h14.605 12.036v-20.364z" fill="#2b4d66"/></g><path d="m124.652 373.763h262.695v96.514h-262.695z" fill="#f9f6f9"/><path d="m124.652 373.763h42.837v96.514h-42.837z" fill="#cbe2ff"/><g><path d="m277.258 34.684h-42.517c-4.267 0-7.726-3.459-7.726-7.726s3.459-7.726 7.726-7.726h42.517c4.267 0 7.726 3.459 7.726 7.726s-3.458 7.726-7.726 7.726z" fill="#9790cc"/></g><circle cx="255.934" cy="422.535" fill="#cbe2ff" r="20.543"/><path d="m255.935 422.535c0-7.599 4.137-14.219 10.271-17.772-3.024-1.752-6.525-2.771-10.271-2.771-11.346 0-20.543 9.197-20.543 20.543s9.197 20.543 20.543 20.543c3.746 0 7.247-1.019 10.271-2.771-6.135-3.553-10.271-10.173-10.271-17.772z" fill="#9dc6fb"/><path d="m346.262 401.992h41.086v41.086h-41.086z" fill="#b3e59f"/><path d="m311.515 401.992c-2.255 0-4.083 1.828-4.083 4.083v32.919c0 2.256 1.828 4.083 4.083 4.083h35.875v-41.086h-35.875z" fill="#80b4fb"/></g></svg>